<svg version="1.1" id="Capa_1" xmlns="http://www.w3.org/2000/svg" xmlns:xlink="http://www.w3.org/1999/xlink" x="0px" y="0px"
	 viewBox="0 0 349.3 303.1" style="enable-background:new 0 0 349.3 303.1;" xml:space="preserve">
<style type="text/css">
	.st0{fill:#CD2E25;}
</style>
<g>
	<g>
		<path class="st0" d="M174.6,303.1c-3.9,0-7.1-3-7.5-6.8c-1.3,2.3-3.7,3.8-6.5,3.8c-3.9,0-7.1-3-7.5-6.8c-1.3,2.3-3.7,3.9-6.6,3.9
			c-3.9,0-7.1-3-7.5-6.8c-1.3,2.3-3.7,3.8-6.5,3.8c-4.1,0-7.5-3.4-7.5-7.5v-24.5c-6.4,5-10.3,13.1-10.3,22.1c0,4.1-3.4,7.5-7.5,7.5
			H107c-2.3,0-4.5-1.1-5.9-2.9c-3.9-5.1-7.4-12-10.2-20c-0.9,1.7-2.4,3-4.2,3.6c-0.8,0.3-1.6,0.4-2.4,0.4c-2.3,0-4.5-1.1-5.9-2.9
			c-3.6-4.6-7-9.3-9.8-15c-0.1,3.1-2.1,5.8-5.1,6.8c-0.8,0.3-1.6,0.4-2.4,0.4c-2.3,0-4.5-1.1-5.9-2.9c-5.2-6.7-8.7-15.3-11-22.5
			h-5.2c-7.6,0-13.3-7.7-15.7-20.3c-5.2,4.4-8.3,10.9-8.3,18.1c0,13.2,10.7,23.9,23.9,23.9c4.1,0,7.5,3.4,7.5,7.5s-3.4,7.5-7.5,7.5
			C17.5,273.6,0,256.2,0,234.7c0-15.2,8.8-28.8,22.2-35.1c0.4-8.6,2-15.7,4.5-20.8l-11.1,3c-0.6,0.2-1.3,0.3-2,0.3
			c-3.4,0-6.4-2.3-7.2-5.6c-0.5-1.9-0.3-4,0.7-5.7c1-1.7,2.6-3,4.5-3.5l65.3-17.6l-69.5,0.1c-4.1,0-7.5-3.4-7.5-7.5
			c0-4.1,3.4-7.5,7.5-7.5l65.3-0.1L12,120.8c-2-0.4-3.6-1.6-4.7-3.3c-1.1-1.7-1.4-3.7-1-5.7c0.8-3.4,3.8-5.8,7.3-5.8
			c0.6,0,1.2,0.1,1.7,0.2l22.7,5.2c1.4-6.7,3.3-13.4,5.7-19.9C18.2,75.9,1.6,48.4,0.1,18.4C0,16.7,0,15.2,0,13.7
			c0-4.1,3.4-7.5,7.5-7.5h125.4C146.1,2.1,160.1,0,174.7,0c14.6,0,28.6,2.1,41.8,6.2h125.4c4.1,0,7.5,3.4,7.5,7.5
			c0,1.5,0,3.1-0.1,4.7c-1.5,30-18.1,57.5-43.7,73.1c2.4,6.5,4.4,13.2,5.7,19.9l22.7-5.2c0.5-0.1,1.1-0.2,1.7-0.2
			c3.5,0,6.5,2.4,7.3,5.8c0.9,4-1.6,8.1-5.6,9l-60.8,13.9l65.3,0.1c4.1,0,7.5,3.4,7.5,7.5c0,4.1-3.4,7.5-7.5,7.5l-69.6-0.1
			l65.3,17.6c1.9,0.5,3.5,1.8,4.5,3.5c1,1.7,1.3,3.8,0.7,5.7c-0.9,3.3-3.9,5.6-7.2,5.6c-0.7,0-1.3-0.1-2-0.3l-11.2-3
			c0.6,1.1,1.1,2.4,1.6,3.9c2,5.7,3.1,13.2,3.1,20.7c0,7.5-1.1,15-3.1,20.7c-3.9,11.2-10.3,12.9-13.7,12.9h-5.1
			c-2.3,7.2-5.8,15.8-11,22.5c-1.4,1.8-3.6,2.9-5.9,2.9c-0.8,0-1.6-0.1-2.4-0.4c-2.9-1-4.9-3.7-5.1-6.7c-2.8,5.7-6.2,10.4-9.8,15
			c-1.4,1.8-3.6,2.9-5.9,2.9c-0.8,0-1.6-0.1-2.4-0.4c-1.9-0.6-3.4-2-4.3-3.6c-2.8,7.9-6.2,14.9-10.2,20c-1.4,1.8-3.6,2.9-5.9,2.9
			h-0.3c-4.1,0-7.5-3.4-7.5-7.5c0-9.2-4-17.4-10.6-22.4v24.8c0,4.1-3.4,7.5-7.5,7.5c-2.8,0-5.2-1.5-6.5-3.8
			c-0.4,3.8-3.6,6.7-7.5,6.7c-2.8,0-5.2-1.5-6.5-3.8c-0.4,3.8-3.6,6.7-7.5,6.7c-2.8,0-5.2-1.5-6.5-3.8
			C181.7,300.2,178.5,303.1,174.6,303.1z"/>
	</g>
	<g>
		<path d="M227.9,139.6c-1.4,0-2.6,1.2-2.6,2.6c0,1.4,1.1,2.6,2.6,2.6c1.4,0,2.6-1.2,2.6-2.6C230.5,140.7,229.3,139.6,227.9,139.6z"
			/>
		<path d="M216.8,128.5c-1.4,0-2.6,1.1-2.6,2.6s1.1,2.6,2.6,2.6c1.4,0,2.6-1.2,2.6-2.6S218.3,128.5,216.8,128.5z"/>
		<path d="M216.8,150.6c-1.4,0-2.6,1.2-2.6,2.6s1.1,2.6,2.6,2.6c1.4,0,2.6-1.2,2.6-2.6S218.3,150.6,216.8,150.6z"/>
		<path d="M205.8,139.6c-1.4,0-2.6,1.2-2.6,2.6c0,1.4,1.1,2.6,2.6,2.6c1.4,0,2.6-1.2,2.6-2.6C208.4,140.7,207.2,139.6,205.8,139.6z"
			/>
		<path d="M143.6,144.7c1.4,0,2.6-1.2,2.6-2.6c0-1.4-1.1-2.6-2.6-2.6c-1.4,0-2.6,1.2-2.6,2.6C141,143.6,142.2,144.7,143.6,144.7z"/>
		<path d="M132.5,133.7c1.4,0,2.6-1.2,2.6-2.6s-1.1-2.6-2.6-2.6c-1.4,0-2.6,1.1-2.6,2.6S131.1,133.7,132.5,133.7z"/>
		<circle cx="132.5" cy="153.2" r="2.6"/>
		<path d="M121.4,144.7c1.4,0,2.6-1.2,2.6-2.6c0-1.4-1.1-2.6-2.6-2.6c-1.4,0-2.6,1.2-2.6,2.6C118.9,143.6,120,144.7,121.4,144.7z"/>
		<path d="M341.8,141.3l-99.5-0.2c-0.1-1.7-0.3-3.4-0.7-5.1l63.8-14.6c0,0,0,0,0,0c0,0,0,0,0,0l30.4-7c0.5-0.1,0.9-0.7,0.8-1.2
			s-0.7-0.9-1.2-0.8l-29.3,6.7l-0.1-0.7c0,0,0-0.1,0-0.1c-1.6-10.1-4.5-20.1-8.6-29.8c26.5-13.8,43.8-40.8,45.3-70.6
			c0.1-1.5,0.1-3,0.1-4.4c0-0.6-0.4-1-1-1h-63.3h-39.2h-24c-12.8-4.1-26.5-6.2-40.7-6.2c-14.3,0-28,2.1-40.7,6.2h-24H70.8H7.5
			c-0.6,0-1,0.4-1,1c0,1.4,0,2.8,0.1,4.4c1.5,29.8,18.9,56.7,45.3,70.6c-4.1,9.7-7,19.7-8.6,29.9l-0.1,0.7c0,0,0,0,0,0.1l-29.4-6.7
			c-0.5-0.1-1.1,0.2-1.2,0.8c-0.1,0.5,0.2,1.1,0.8,1.2l30.5,7c0,0,0,0,0,0c0,0,0,0,0,0l63.8,14.6c-0.4,1.7-0.7,3.4-0.7,5.1
			l-99.5,0.2c-0.6,0-1,0.4-1,1c0,0.6,0.4,1,1,1c0,0,0,0,0,0l99.5-0.2c0.1,1.7,0.3,3.4,0.7,5l-94.3,25.4c-0.5,0.1-0.8,0.7-0.7,1.2
			c0.1,0.4,0.5,0.7,1,0.7c0.1,0,0.2,0,0.3,0l94.3-25.4c0.6,1.8,1.4,3.6,2.4,5.2l-31.3,21H65.9h-27c-5.9,0-10.3,11.6-10.3,27.1
			c0,0.2,0,0.5,0,0.7c-13.3,4.4-22.1,16.7-22.1,30.7c0,17.9,14.5,32.4,32.4,32.4c0.6,0,1-0.4,1-1s-0.4-1-1-1
			c-16.8,0-30.4-13.6-30.4-30.4c0-13,8.1-24.3,20.2-28.6c0.5,13.9,4.8,24.3,10.3,24.3h10c2,7.5,5.5,17.6,11.3,25
			c0.3,0.3,0.7,0.5,1.1,0.3c0.4-0.1,0.7-0.5,0.7-0.9c0-6.8,1.2-16,6.8-23c1.7,16.6,7.6,25.4,14.6,34.4c0.3,0.3,0.7,0.5,1.1,0.3
			c0.4-0.1,0.7-0.5,0.7-0.9c0-7.7,2.6-15.2,6.8-19.6c2.2,15.7,7.5,30.5,14.2,39.1c0.2,0.2,0.5,0.4,0.8,0.4h0.3c0.6,0,1-0.4,1-1
			c0-15.4,9.3-28.5,23.2-32.6c0,0,0.1,0,0.1,0v35c0,0.6,0.4,1,1,1s1-0.4,1-1v-34.5c3.7,3.1,7.7,5.8,12,8v29.5c0,0.6,0.4,1,1,1
			s1-0.4,1-1v-28.6c3.8,1.8,7.9,3.2,12,4.2v27.3c0,0.6,0.4,1,1,1s1-0.4,1-1v-26.9c3.9,0.8,7.9,1.3,12,1.3v28.5c0,0.6,0.4,1,1,1
			s1-0.4,1-1v-28.5c4-0.1,8-0.5,12-1.3v26.9c0,0.6,0.4,1,1,1s1-0.4,1-1v-27.3c4.1-1,8.1-2.4,12-4.2v28.5c0,0.6,0.4,1,1,1s1-0.4,1-1
			v-29.5c4.3-2.2,8.3-4.8,12-7.9v34.4c0,0.6,0.4,1,1,1s1-0.4,1-1v-35.1c0.1,0,0.3,0.1,0.4,0.1c13.9,4.1,23.2,17.2,23.2,32.6
			c0,0.6,0.4,1,1,1h0.3c0.3,0,0.6-0.1,0.8-0.4c6.6-8.5,12-23.4,14.1-39.1c4.2,4.4,6.8,11.9,6.8,19.6c0,0.4,0.3,0.8,0.7,0.9
			c0.4,0.1,0.9,0,1.1-0.3c7-9,12.9-17.8,14.6-34.4c5.6,7,6.8,16.2,6.8,23c0,0.4,0.3,0.8,0.7,0.9c0.4,0.1,0.9,0,1.1-0.3
			c5.7-7.4,9.3-17.5,11.3-25h10c6.5,0,10.3-13.8,10.3-27.1c0-13.3-3.9-27.1-10.3-27.1h-27H270l-31.3-21c1-1.6,1.8-3.3,2.4-5.2
			l94.3,25.4c0.1,0,0.2,0,0.3,0c0.4,0,0.8-0.3,1-0.7c0.1-0.5-0.2-1.1-0.7-1.2l-94.3-25.4c0.4-1.6,0.6-3.3,0.7-5l99.5,0.2
			c0,0,0,0,0,0c0.6,0,1-0.4,1-1C342.8,141.8,342.4,141.3,341.8,141.3z M236.6,155C236.6,155,236.6,155,236.6,155
			C236.6,155,236.6,155,236.6,155C236.6,155,236.6,155,236.6,155c-1.8,2.8-4.2,5.2-7.1,7c-3.8,2.4-8.1,3.7-12.6,3.7
			c-4.6,0-9.1-1.3-12.9-3.8l-0.3-0.2l0,0c0,0,0,0,0,0l-27.4-19.4c0.5-0.4,1-0.7,1.5-1.1c1.7-1.2,3.3-2.3,5-3.5l0.9-0.6
			c2.2-1.6,4.4-3.2,6.7-4.7l5.4-3.8c0.9-0.6,1.9-1.3,2.7-2.2c0.9-0.8,1.5-1.7,2-2.6c0.8-1.4,1.2-3.1,1.2-4.7c0-0.1,0-0.1,0-0.2h15.3
			c10.4,0,19.6,6.9,22.5,16.9c0.6,2.1,0.9,4.4,0.9,6.6c0,2.2-0.3,4.4-0.9,6.5C238.8,150.9,237.9,153.1,236.6,155z M283.4,178.2
			c3.9,0,8.3,10.3,8.3,25.1c0,14.8-4.4,25.1-8.3,25.1h-18.1c4-4.3,6.3-14.8,6.3-25.1c0-10.3-2.3-20.8-6.3-25.1H283.4z M112.8,155
			c-1.3-2-2.3-4.1-2.9-6.4c-0.6-2.1-0.9-4.2-0.9-6.5c0-2.2,0.3-4.4,0.9-6.6c2.9-9.9,12.2-16.9,22.5-16.9h15.3c0,0.1,0,0.1,0,0.2
			c0,1.6,0.4,3.3,1.2,4.8c0.5,0.9,1.2,1.8,2,2.6c0.8,0.8,1.8,1.5,2.7,2.2c1.2,0.9,2.5,1.8,3.7,2.6l1.7,1.2c2.2,1.6,4.4,3.1,6.7,4.7
			c0.9,0.6,1.7,1.2,2.6,1.8l0.1,0.1l4.6,3.3l-27.4,19.4c0,0,0,0,0,0c0,0,0,0,0,0l-0.3,0.2c-3.8,2.5-8.3,3.8-12.9,3.8
			c-4.5,0-8.8-1.3-12.6-3.7C117,160.2,114.6,157.8,112.8,155z M157.9,110.6h16.8h16.8c3.6,0,6.8,2.3,7.8,5.8
			c0.1,0.5,0.2,0.9,0.3,1.3c0,0,0,0,0,0c0,0.3,0.1,0.7,0.1,1.1c0,1.3-0.3,2.7-0.9,3.8c-0.3,0.5-0.6,1-1,1.4c-1.8-1.4-4-2.1-6.2-2.1
			h-33.6c-2.3,0-4.5,0.8-6.2,2.1c-0.4-0.5-0.8-0.9-1-1.4c-0.6-1.2-0.9-2.5-0.9-3.8c0-0.3,0-0.7,0.1-1c0,0,0,0,0-0.1
			c0.1-0.5,0.2-0.9,0.3-1.3C151.1,113,154.3,110.6,157.9,110.6z M223.9,178.2l-7,44.7l-7-44.7H223.9z M134,228.4h-0.3l7-44.7l7,44.7
			h-7c0,0,0,0,0,0L134,228.4z M139.5,178.2l-7,44.7l-7-44.7H139.5z M208.6,228.4C208.6,228.4,208.6,228.4,208.6,228.4l-7,0l7-44.7
			l7,44.7h-0.3L208.6,228.4z M153.7,244.1v-5.9c0,0,0,0,0,0v-3.3c0-2.4,2-4.4,4.5-4.4c2.5,0,4.5,2,4.5,4.4v3.3c0,0.6,0.4,1,1,1
			s1-0.4,1-1v-3.3c0-2.4,2-4.4,4.5-4.4c2.5,0,4.5,2,4.5,4.4v3.3c0,0.6,0.4,1,1,1s1-0.4,1-1v-3.3c0-2.4,2-4.4,4.5-4.4
			c2.5,0,4.5,2,4.5,4.4v3.3c0,0.6,0.4,1,1,1s1-0.4,1-1v-3.3c0-2.4,2-4.4,4.5-4.4c2.5,0,4.5,2,4.5,4.4v3.3c0,0,0,0.1,0,0.1v5.9
			c0,1.7,0.7,3.2,1.8,4.3h-22.8h-22.8C153,247.3,153.7,245.7,153.7,244.1z M218.3,247.1c-0.2,0.2-0.4,0.4-0.6,0.6
			c-0.6,0.5-1.4,0.7-2.2,0.8c0,0,0,0,0,0c-0.3,0-3.3,0-6.8,0H202c-2.4,0-4.3-2-4.3-4.3v-9.3c0-2.3,1.8-4.2,4.1-4.3
			c0.2,0,1.4,0,2.9,0l10.6,0c2.4,0,4.4,2,4.4,4.4v9.3c0,1.1-0.4,2.1-1.1,2.8C218.5,246.9,218.4,247,218.3,247.1z M202.5,164.8v6.8
			c0,0,0,0.1,0,0.1c0,0,0,0.1,0,0.2c-0.1,2.5-2.2,4.4-4.7,4.4c-2.6,0-4.8-2.1-4.8-4.7v-3.5c0-0.6-0.4-1-1-1s-1,0.4-1,1v3.5
			c0,1.3-0.6,2.5-1.6,3.4c-0.9,0.8-2,1.2-3.2,1.2c-2.6,0-4.8-2.1-4.8-4.7v-3.5c0-0.6-0.4-1-1-1s-1,0.4-1,1v3.5
			c0,2.6-2.1,4.7-4.8,4.7c-2.6,0-4.8-2.1-4.8-4.7v-3.5c0-0.6-0.4-1-1-1s-1,0.4-1,1v3.5c0,2.6-2.1,4.7-4.8,4.7
			c-1.2,0-2.3-0.4-3.2-1.2c-1-0.9-1.5-2.1-1.5-3.4v-3.5c0-0.6-0.4-1-1-1s-1,0.4-1,1v3.5c0,2.6-2.1,4.7-4.8,4.7
			c-2.5,0-4.6-1.9-4.7-4.4c0,0,0-0.1,0-0.1c0,0,0-0.1,0-0.1v-6.8v-1.6l27.8-19.7l27.8,19.7V164.8z M120.1,164.5
			c3.8,2.1,8,3.2,12.3,3.2c4.4,0,8.6-1.1,12.4-3.2v0.3v6.8c0,0.1,0,0.2,0,0.2c0,0,0,0,0,0.1c0,2.4-2,4.4-4.3,4.4h-8.1
			c-4.2,0-7.8,0-8.2,0c0,0,0,0,0,0c-2.3-0.1-4.1-2-4.1-4.3V164.5z M129.7,234.7c0-2.4,2-4.4,4.3-4.4l10.6,0c1.6,0,2.7,0,2.9,0
			c2.3,0.1,4.1,2,4.1,4.3v9.3c0,2.4-2,4.3-4.4,4.3h-6.8c-3.4,0-6.5,0-6.8,0c0,0,0,0,0,0c-1.1-0.1-2.1-0.5-2.9-1.4c0,0,0,0,0,0
			c-0.8-0.8-1.2-1.8-1.2-3V234.7z M225.1,176.2C225.1,176.2,225.1,176.2,225.1,176.2c-0.3,0-3.9,0-8.2,0h-8.1c-2.4,0-4.3-2-4.3-4.4
			c0,0,0,0,0-0.1c0-0.1,0-0.2,0-0.2v-6.8v-0.3c3.8,2.1,8,3.2,12.4,3.2c4.3,0,8.5-1.1,12.3-3.2v7.4
			C229.2,174.2,227.4,176.1,225.1,176.2z M296.6,86.8c-8.5-19.3-21.4-36.6-37.5-50.1c15.3-14.2,35.1-21.9,56-21.9
			c8.7,0,17.3,1.4,25.5,4C338.9,47.4,322.2,73.4,296.6,86.8z M8.7,18.7c8.2-2.7,16.8-4,25.5-4c20.9,0,40.7,7.8,56,21.9
			c-16.1,13.5-29,30.8-37.5,50.1C27.2,73.4,10.4,47.5,8.7,18.7z M45.2,119.5l0.1-0.7c1.6-9.9,4.4-19.8,8.4-29.3
			c3.7,1.9,7.7,3.5,11.7,4.7c0.1,0,0.2,0,0.3,0c0.4,0,0.8-0.2,0.9-0.6c0,0,0,0,0,0c0,0,0,0,0,0c0,0,0-0.1,0-0.1
			c0-0.1,0.1-0.1,0.1-0.2c1-21,9.9-40.6,25-55.3l52.9,47.5c0,0,0,0,0,0c0,0,0,0,0,0c0.1,0,0.1,0.1,0.2,0.1c0,0,0.1,0,0.1,0.1
			c0.1,0,0.2,0.1,0.3,0.1c0,0,0,0,0,0c0,0,0,0,0,0c0.1,0,0.3,0,0.4-0.1c0,0,0.1-0.1,0.1-0.1c0.1,0,0.2-0.1,0.2-0.2c0,0,0,0,0,0
			c0,0,0,0,0,0c0.8-1,2.1-2.5,3.6-4.3c1-1.2,2.2-2.6,3.4-4.1c0,0,0,0,0,0c0,0,0,0,0,0c4.4-5.3,9.6-11.6,13.6-16.2
			c0.4-0.4,0.3-1.1-0.1-1.4c-0.4-0.4-1.1-0.3-1.4,0.1c-3.7,4.4-8.6,10.3-12.9,15.4l-21.9-19.6c-0.4-0.4-1-0.3-1.4,0.1
			c-0.4,0.4-0.3,1,0.1,1.4L151,76.4c-1,1.2-1.9,2.3-2.8,3.4c-1.2,1.4-2.2,2.6-2.9,3.5L92.5,35.9c0,0-0.1,0-0.1-0.1
			c-11.3-10.7-25-17.9-39.9-21.1h18.3c6.9,0,13.7,0.8,20.3,2.5c6.4,1.6,12.6,4,18.4,7.1c0.1,0.1,0.3,0.1,0.5,0.1
			c0.2,0,0.4,0,0.5-0.1c0.3-0.2,0.5-0.5,0.5-0.9v-8.7h23.1c7.2,0,14.2,0.9,21.1,2.7c6.6,1.7,13,4.3,19,7.7c0.1,0.1,0.3,0.1,0.5,0.1
			s0.3,0,0.5-0.1c12.2-6.8,26.1-10.4,40.1-10.4h23.1v8.7c0,0.4,0.2,0.7,0.5,0.9c0.2,0.1,0.3,0.1,0.5,0.1c0.2,0,0.3,0,0.5-0.1
			c5.8-3.1,12-5.5,18.4-7.1c6.6-1.7,13.4-2.5,20.3-2.5h18.3c-14.9,3.3-28.7,10.5-40,21.2c0,0,0,0,0,0c0,0,0,0,0,0c0,0,0,0,0,0
			c0,0,0,0,0,0c0,0,0,0,0,0.1l-52.6,47.2c-0.8-0.9-1.8-2.2-3-3.6c-0.9-1-1.8-2.1-2.8-3.3l21.9-19.7c0.4-0.4,0.4-1,0.1-1.4
			c-0.4-0.4-1-0.4-1.4-0.1l-21.9,19.6c-4.2-5.1-9.2-11-12.9-15.4c-0.4-0.4-1-0.5-1.4-0.1c-0.4,0.4-0.5,1-0.1,1.4
			c3.9,4.6,9.2,10.9,13.6,16.2c0,0,0,0,0,0c0,0,0,0,0,0c1.2,1.4,2.3,2.8,3.4,4c1.5,1.8,2.8,3.4,3.6,4.4c0,0,0,0,0,0c0,0,0,0,0,0
			c0.1,0.1,0.1,0.1,0.2,0.2c0,0,0.1,0.1,0.1,0.1c0.1,0.1,0.3,0.1,0.4,0.1c0,0,0,0,0,0c0,0,0,0,0,0c0.1,0,0.2,0,0.3-0.1
			c0,0,0.1,0,0.1-0.1c0.1,0,0.1-0.1,0.2-0.1c0,0,0,0,0,0c0,0,0,0,0,0L257.6,38c15.1,14.7,24,34.2,25,55.2c0,0.1,0,0.2,0.1,0.2
			c0,0,0,0.1,0,0.1c0,0,0,0,0,0c0,0,0,0,0,0c0.2,0.4,0.5,0.6,0.9,0.6c0.1,0,0.2,0,0.3,0c4-1.3,7.9-2.9,11.7-4.7
			c4,9.5,6.8,19.4,8.4,29.3c0,0,0,0.1,0,0.1l0.1,0.8l-63.1,14.4c-3.4-10.3-13.2-17.4-24.2-17.4h-15.5c-0.1-0.2-0.1-0.5-0.2-0.7
			c0-6.6-1.6-13.4-4.4-19.6c1.7,1.7,3.6,3.3,5.7,4.8c7.5,5.1,16.4,7.9,25.2,7.9c12.1,0,23.1-4.7,32.4-14.1c0.4-0.4,0.4-1,0-1.4
			s-1-0.4-1.4,0c-9,9-19.4,13.5-31,13.5c-8.4,0-16.9-2.7-24.1-7.5c-4.7-3.2-8.2-7.4-11.9-11.8c-0.5-0.6-0.9-1.1-1.4-1.7c0,0,0,0,0,0
			c-0.1-0.2-0.3-0.4-0.4-0.6l-0.1-0.2c-0.2-0.2-0.4-0.3-0.7-0.4c-0.1,0-0.2,0-0.3,0c0,0-0.1,0-0.1,0c-0.1,0-0.3,0.1-0.4,0.2
			c-0.4,0.4-0.5,1-0.1,1.4c0.2,0.2,0.4,0.5,0.6,0.7c0,0,0,0,0,0c5.6,6.8,9.3,15.7,10.2,24.7c-1.9-2.1-4.6-3.4-7.6-3.4h-16.8h-16.8
			c-3,0-5.7,1.3-7.6,3.4c0.9-8.9,4.5-17.8,10.2-24.6l0,0c0.2-0.2,0.4-0.5,0.6-0.7c0.4-0.4,0.3-1-0.1-1.4c-0.2-0.2-0.5-0.3-0.7-0.2
			c-0.3,0-0.5,0.1-0.7,0.3c-0.2,0.3-0.5,0.5-0.6,0.7c0,0,0,0,0,0l-1.4,1.7c-3.7,4.4-7.2,8.6-11.9,11.8c-7.2,4.8-15.7,7.5-24.1,7.5
			c-11.6,0-22-4.6-31-13.5c-0.4-0.4-1-0.4-1.4,0c-0.4,0.4-0.4,1,0,1.4c9.4,9.4,20.3,14.1,32.4,14.1c8.7,0,17.7-2.8,25.2-7.9
			c2.1-1.4,4-3,5.7-4.8c-2.8,6.2-4.4,13-4.4,19.6c-0.1,0.2-0.1,0.5-0.2,0.7h-15.5c-10.9,0-20.7,7.1-24.2,17.4l-63.1-14.4
			C45.2,119.6,45.2,119.6,45.2,119.5z M111.7,156.9c1.7,2.4,3.9,4.6,6.4,6.3v8.6c0,1.7,0.7,3.2,1.7,4.4H88h-5.1L111.7,156.9z
			 M88,178.2c3.9,0,8.3,10.3,8.3,25.1c0,14.8-4.4,25.1-8.3,25.1H69.9c4-4.3,6.3-14.8,6.3-25.1c0-10.3-2.3-20.8-6.3-25.1H88z
			 M30.7,205.5c2.7-0.8,5.5-1.2,8.3-1.2c0.6,0,1-0.4,1-1s-0.4-1-1-1c-2.8,0-5.6,0.4-8.3,1.1c0,0,0-0.1,0-0.1
			c0-14.8,4.4-25.1,8.3-25.1c3.9,0,8.3,10.3,8.3,25.1c0,14.8-4.4,25.1-8.3,25.1C35.2,228.4,31.1,219.2,30.7,205.5z M60.1,251.7
			c-3.6-5.4-6.7-12.7-9.1-21.4h14.9h1.5C62.1,236.8,60.4,245,60.1,251.7z M106.4,281.8c-6-8.8-10.8-23.4-12.6-38.1
			c0-0.4-0.3-0.7-0.6-0.8c-0.3-0.1-0.7-0.1-1,0.2c-4.9,4.1-8.2,11.6-8.8,19.7c-6.2-8.2-11.2-16.9-12.6-32.4H88h41.5
			c-1.1,1.1-1.8,2.7-1.8,4.4v9.3c0,1.6,0.6,3.2,1.7,4.3c0,0,0,0,0.1,0c0,0,0,0,0,0c0.4,0.5,0.9,0.9,1.4,1.4
			C116.9,253.9,107.3,266.6,106.4,281.8z M257.2,243.1c-0.3-0.2-0.7-0.3-1-0.2c-0.3,0.1-0.6,0.4-0.6,0.8
			c-1.8,14.7-6.6,29.3-12.6,38.1c-1-15.2-10.6-27.9-24.5-32c0,0,0,0-0.1,0c0.2-0.2,0.5-0.4,0.7-0.6c1.6-1.2,2.6-3.1,2.6-5.1v-9.3
			c0-1.7-0.7-3.2-1.8-4.4h41.5h17.3c-1.4,15.4-6.4,24.1-12.6,32.4C265.4,254.6,262.1,247.1,257.2,243.1z M289.3,251.7
			c-0.4-6.7-2.1-15-7.3-21.4h1.5h14.9C296,239,292.9,246.3,289.3,251.7z M261.3,176.2h-31.9c1.1-1.1,1.7-2.7,1.7-4.4v-8.6
			c2.5-1.7,4.7-3.9,6.5-6.3l28.8,19.3H261.3z"/>
		<g>
			<path d="M253.2,56.7c0.4-0.4,0.4-1,0.1-1.4c-0.4-0.4-1-0.4-1.4-0.1l-41.5,37.2c-0.4,0.4-0.4,1-0.1,1.4c0.2,0.2,0.5,0.3,0.7,0.3
				c0.2,0,0.5-0.1,0.7-0.3l12-10.8c-0.4,5,0.6,10.1,3.1,13.6c0.2,0.3,0.5,0.4,0.8,0.4h0.1c0.3,0,0.6-0.2,0.8-0.4
				c3.5-4.9,4.1-13.2,1.8-19.5l-0.8,0.7c0,0,0,0,0,0L253.2,56.7z"/>
			<path d="M97.6,55.2c-0.4-0.4-1-0.3-1.4,0.1c-0.4,0.4-0.3,1,0.1,1.4l23.6,21.1c0,0,0,0,0,0l-0.8-0.7c-2.4,6.3-1.8,14.7,1.8,19.6
				c0.2,0.3,0.6,0.4,0.9,0.4s0.6-0.2,0.8-0.4c2.5-3.5,3.5-8.7,3.1-13.7l12.1,10.9c0.2,0.2,0.4,0.3,0.7,0.3c0.3,0,0.5-0.1,0.7-0.3
				c0.4-0.4,0.3-1-0.1-1.4L97.6,55.2z"/>
		</g>
	</g>
</g>
</svg>
