
<svg version="1.1" id="Capa_1" xmlns="http://www.w3.org/2000/svg" xmlns:xlink="http://www.w3.org/1999/xlink" x="0px" y="0px"
	 viewBox="0 0 322.6 328.6" style="enable-background:new 0 0 322.6 328.6;" xml:space="preserve">
<style type="text/css">
	.st0{fill:#CD2E25;}
	.st1{fill:#7E3D26;}
</style>
<g>
	<path class="st0" d="M54.1,328.6c-8.3,0-19.6-6.4-30.2-17c-6.4-6.4-11.6-13.5-14.4-19.8c-5-11.1-1.6-17,0.9-19.4L24.7,258
		c-4.6-2.7-8.8-6-12.6-9.8C-4,232-4,205.8,12,189.7c6.3-6.3,14.3-10.4,23-11.7c1.3-8.6,5.3-16.6,11.5-22.9
		c6.3-6.4,14.4-10.4,23-11.7c1.3-8.6,5.3-16.6,11.5-22.8c1.8-1.8,3.8-3.5,5.9-4.9l-37-37l0,0l-0.4-0.4l0,0
		c-13.8-14.3-15.1-36.6-4-52.5c-3.1-2.7-6.3-5.2-9.7-7.4c-0.4-0.3-0.8-0.6-1.2-1c-0.1-0.1-0.3-0.3-0.3-0.3c-0.2-0.3-0.4-0.5-0.6-0.8
		l-0.3-0.4l-0.4-1l-0.4-0.9l-0.1-0.5c-0.1-0.3-0.1-0.5-0.1-0.8c0-0.4,0-0.9,0-1.3l0-0.1c0-0.4,0.1-0.7,0.2-1.1
		c0.1-0.3,0.2-0.5,0.3-0.8L33,8.7l0.5-0.8L34,7.1l0.4-0.4C34.7,6.4,35,6.2,35.3,6l0.1-0.1l0.2-0.1c0.4-0.3,0.9-0.6,1.4-0.8
		C44.9,1.7,53.3,0,61.8,0c7,0,13.9,1.1,20.5,3.3c9.6,3.2,18.5,8.7,25.6,16l0.1,0.1l0.2,0.2L185.6,97l41.8-41.8
		c1.6-1.6,4.4-3.5,9-3.5c7.6,0,17.8,5.4,27.6,14.5c4.9-1.8,10-2.8,15.2-2.8c11.5,0,22.4,4.5,30.7,12.8c16.9,16.9,16.9,44.3,0.2,61.3
		c-1.7,1.8-4.3,4.7-6.4,7.2c3.3,0.3,7.3,0.5,9.7,0.6c4,0.2,7.2,3.5,7.2,7.5s-3.1,7.3-7.2,7.5c-2.5,0.1-6.4,0.3-9.7,0.6
		c2.1,2.6,4.8,5.5,6.5,7.4c2.7,3,2.6,7.5-0.3,10.3c-1.4,1.4-3.3,2.2-5.3,2.2c-1.9,0-3.7-0.7-5-2c-1.8-1.7-4.8-4.3-7.4-6.5
		c-0.3,3.3-0.5,7.3-0.6,9.7c-0.2,4-3.5,7.2-7.5,7.2s-7.3-3.1-7.5-7.2c-0.1-2.5-0.3-6.4-0.6-9.7c-2.6,2.1-5.5,4.8-7.4,6.5
		c-1.4,1.3-3.2,1.9-5,1.9c-1.2,0-2.3-0.3-3.3-0.7c3.4,13.7-0.2,28.8-10.8,39.4c-7.7,7.7-18.4,12.2-29.4,12.2c-2.9,0-5.7-0.3-8.5-0.9
		c-2.8,3.8-5.9,7.5-9.2,10.8c-5.4,5.4-11.5,10.1-18.1,14c-3.9,6.6-8.6,12.7-14,18.1c-0.8,0.8-3.3,3.2-3.7,3.4
		c-16.7,14.9-38.1,23.2-60.6,23.2c-5.6,0-11.2-0.5-16.7-1.6l-26.3,26.3C61.5,326.7,58.6,328.6,54.1,328.6z"/>
	<path class="st1" d="M281.3,152.9c0.2-0.3,0.3-0.6,0.4-0.9c0.1-0.4,0.3-0.7,0.4-1.1c0.4-0.1,0.7-0.2,1.1-0.4
		c0.3-0.1,0.6-0.3,0.9-0.4c0.3,0.2,0.6,0.3,0.9,0.4c0.4,0.1,0.7,0.3,1.1,0.4c0.1,0.4,0.2,0.7,0.4,1.1c0.1,0.3,0.3,0.6,0.4,0.9
		c-0.2,0.3-0.3,0.6-0.4,0.9c-0.1,0.4-0.3,0.7-0.4,1.1c-0.4,0.1-0.7,0.2-1.1,0.4c-0.3,0.1-0.6,0.3-0.9,0.4c-0.3-0.2-0.6-0.3-0.9-0.4
		c-0.3-0.1-0.7-0.3-1.1-0.4c-0.1-0.4-0.2-0.7-0.4-1.1C281.6,153.5,281.5,153.2,281.3,152.9z M264.6,160.9c-0.1,0.1-0.1,0.2-0.2,0.2
		l-0.1-0.3C264.4,160.9,264.5,160.9,264.6,160.9z"/>
	<path d="M313.1,151.9c-10.4-0.5-17.9-1-18.8-3.2c-0.9-2.2,4-7.9,11-15.6c14.4-14.4,14.3-37.8,0-52.2C294,69.5,276.9,66.8,262.7,74
		c-0.2-0.2-0.4-0.4-0.6-0.6c-12.2-12.2-25.4-18.2-30-13.6l-21.7,21.7l-17.8,17.8l-6.8,6.8l-82.1-82.1c0,0,0,0,0,0c0,0,0,0,0,0
		c0,0,0,0,0,0c0,0,0,0,0,0C97,17.4,89,12.4,80.3,9.5C66.9,5.1,52.4,5.6,39.5,11c-0.1,0-0.1,0.1-0.1,0.1c0,0,0,0-0.1,0
		c-0.1,0.1-0.2,0.1-0.2,0.2c0,0,0,0,0,0c0,0,0,0,0,0c0,0.1-0.1,0.2-0.1,0.2c0,0.1,0,0.1,0,0.2c0,0.1,0,0.1,0,0.2c0,0.1,0,0.2,0,0.2
		c0,0,0,0,0,0.1c0,0,0,0,0,0.1c0,0.1,0.1,0.2,0.2,0.2c0,0,0,0,0.1,0.1c0,0,0.1,0.1,0.1,0.1c5.4,3.4,10.4,7.5,14.8,12.1
		c0.1,0.1,0.2,0.2,0.3,0.2c-13.1,13.4-13.2,35.2-0.1,48.7c0,0,0,0,0,0c0,0,0,0,0,0l0.4,0.4l43.1,43.1c-4.5,1.8-8.6,4.5-12.1,7.9
		c-6.5,6.5-10.1,15.2-10.1,24.3c-9.2,0.1-17.9,3.7-24.5,10.3c-6.5,6.5-10.1,15.1-10.1,24.3c-9.2,0.1-17.8,3.7-24.4,10.3c0,0,0,0,0,0
		c0,0,0,0,0,0c0,0,0,0,0,0C3.1,207.9,3.1,230,16.7,243.6c5.5,5.5,11.9,9.7,18.9,12.6l-20.8,20.8c-4.6,4.6,1.3,17.8,13.6,30
		c9.4,9.4,19.4,15.1,25.6,15.1c1.8,0,3.3-0.5,4.4-1.6l21.8-21.8l7-7c6.3,1.4,12.6,2.1,18.8,2.1c20.7,0,41-7.6,56.6-21.8
		c0.4-0.3,2.1-2,3-2.8c5.5-5.5,10.1-11.6,13.9-18.3c6.7-3.8,12.9-8.4,18.3-13.9c4-4,7.7-8.5,10.8-13.2c0.1-0.2,0.1-0.3,0.1-0.5
		c3.7,1.3,7.6,1.9,11.4,1.9c9.1,0,18.1-3.6,24.7-10.2c0,0,0,0,0,0s0,0,0,0c0,0,0,0,0,0c13.6-13.6,13.6-35.7,0-49.3l-15.8-15.8
		l6.9-6.9l17.8-17.8l21.7-21.7c4.9-4.9-2.1-17.8-11.5-27.9c13.4-6.4,29.2-3.8,39.8,6.8c13.6,13.6,13.6,35.8,0,49.4
		c-7.7,7-13.4,11.9-15.6,11c-2.2-0.9-2.7-8.4-3.2-18.8c0-0.5-0.5-1-1-1c-0.5,0-1,0.4-1,1c-0.5,10.4-1,17.9-3.2,18.8
		c-2.2,0.9-7.9-4-15.6-11c-0.4-0.4-1-0.3-1.4,0c-0.4,0.4-0.4,1,0,1.4c7,7.7,11.9,13.4,11,15.6c-0.9,2.2-8.4,2.7-18.8,3.2
		c-0.5,0-1,0.5-1,1c0,0.5,0.4,1,1,1c10.4,0.5,17.9,1,18.8,3.2c0.9,2.2-4,7.9-11,15.6c-0.4,0.4-0.3,1,0,1.4c0.4,0.4,1,0.4,1.4,0
		c7.7-7,13.4-11.9,15.6-11c2.2,0.9,2.7,8.4,3.2,18.8c0,0.5,0.5,1,1,1s1-0.4,1-1c0.5-10.4,1-17.9,3.2-18.8c2.2-0.9,7.9,4,15.6,11
		c0.4,0.4,1,0.3,1.4,0c0.4-0.4,0.4-1,0-1.4c-7-7.8-11.9-13.4-11-15.6c0.9-2.2,8.4-2.7,18.8-3.2c0.5,0,1-0.5,1-1
		C314.1,152.3,313.7,151.9,313.1,151.9z M196.7,213.2c-5.5-5.5-9.6-12-12.4-19.2c0,0,0,0,0,0c-5-13-4.9-27.7,0.2-40.6
		c3.2,4.9,6.9,9.5,11,13.7c0,0,0,0.1,0.1,0.1c0,0,0.1,0,0.1,0.1c8.2,8.2,17.9,14.5,28.6,18.7c-1.1,6.8-4.3,13-9.2,17.9
		C210,208.8,203.5,212.1,196.7,213.2z M78.9,297.3c-3.3,3.3-15-1.4-27.2-13.6C40,272.1,35.3,260.8,37.8,257
		c6.4,2.3,13.3,3.6,20.1,3.6c1.4,0,2.7-0.1,4.1-0.2c1.8,2.3,3.9,4.6,6.1,6.9c9.4,9.4,19.4,15.1,25.6,15.1c0,0,0,0,0,0L78.9,297.3z
		 M133.8,174.4c4.2,4.2,8.8,7.9,13.7,11.1c-12,4.7-25.2,5.2-37.6,1.3c-8.3-2.6-16-7.3-22.3-13.5c1-6.8,4.4-13.3,9.4-18.3
		c5-5,11.1-8.1,17.9-9.3C119.2,156.5,125.6,166.1,133.8,174.4z M99.2,209c4.2,4.2,8.8,8,13.7,11.1c-12,4.7-25.2,5.2-37.6,1.3
		c-8.3-2.6-16.1-7.3-22.3-13.5c1-6.8,4.4-13.3,9.4-18.3c5-5,11.1-8.1,17.9-9.3C84.6,191.1,91,200.7,99.2,209z M42,12.1
		c12-4.5,25.3-4.8,37.6-0.7c3.6,1.2,7.1,2.8,10.4,4.7c-11.6-3.7-24.7-1.1-34.2,7.6c0-0.1-0.1-0.2-0.2-0.3
		C51.5,19.2,46.9,15.4,42,12.1z M103.8,73c-0.4-0.4-1-0.4-1.4,0c-12.8,12.4-33.5,12.3-46.2-0.3l-0.4-0.4
		c-12.5-12.8-12.3-33.5,0.3-46.2l0.4-0.4c12.7-12.4,32.8-12.5,45.6-0.3l82.1,82.1l-38.9,38.9c-0.4-4.3-1.6-8.6-3.5-12.4
		c3.3-1.1,6.4-2.6,9.2-4.6c0.5-0.3,0.6-0.9,0.2-1.4c-0.3-0.5-0.9-0.6-1.4-0.2c-3,2.1-6.3,3.7-9.8,4.7c-11.7,3.4-24.3,0.1-32.7-8.7
		c0,0,0,0,0,0c0,0,0,0,0,0L64.4,80.9c4.7,2.3,9.9,3.4,15.1,3.4c8.8,0,17.6-3.3,24.3-9.8C104.2,74.1,104.2,73.4,103.8,73z
		 M86.5,127.2l5.8,5.8c0.2,0.2,0.5,0.3,0.7,0.3s0.5-0.1,0.7-0.3c3.4-3.4,7.5-6,12-7.7c0,0,0,0,0,0c0,0,0,0,0,0c0.1,0,0.1,0,0.2-0.1
		c6.7,6.8,15.7,10.5,24.9,10.5c3,0,6-0.4,8.9-1.2c2.2,4.4,3.5,9.2,3.6,14.2c0,1.4,0,2.7-0.1,4.1c0,0,0,0,0,0c0,0,0,0,0,0.1
		c-0.7,7.2-3.8,13.9-8.8,19.2c-7.9-8.1-13.9-17.5-17.9-28c-0.2-0.4-0.6-0.7-1.1-0.6c-7.5,1-14.4,4.5-19.8,9.9c-5,5-8.4,11.3-9.7,18
		c-3.6-4.1-6.1-8.9-7.4-14.2c0-0.1,0-0.3-0.1-0.4c-0.5-2.2-0.8-4.4-0.8-6.6l0-0.2c0-0.1,0-0.3,0-0.5
		C77.6,141.3,80.8,133.3,86.5,127.2z M51.9,161.8l5.8,5.8c0.2,0.2,0.5,0.3,0.7,0.3s0.5-0.1,0.7-0.3c4.9-4.9,10.9-8,17.6-9.1
		c1.5,6,4.6,11.4,9.1,15.8c6.4,6.4,14.2,11.2,22.7,14c-0.9,6.9-3.9,13.3-8.7,18.4c-7.9-8.1-13.9-17.5-18-28
		c-0.2-0.4-0.6-0.7-1.1-0.6c-7.5,1-14.4,4.5-19.8,9.9c-5,5-8.4,11.3-9.7,18c-3.6-4-6.1-8.8-7.3-14c0-0.1,0-0.3,0-0.4
		c0-0.1-0.1-0.1-0.1-0.2c-0.5-2.2-0.8-4.3-0.8-6.5c0-0.2,0-0.4,0-0.6C43.1,175.9,46.2,167.9,51.9,161.8z M17.4,196.4l5.8,5.8
		c0.2,0.2,0.5,0.3,0.7,0.3s0.5-0.1,0.7-0.3c4.8-4.8,10.9-8,17.6-9.1c1.5,6,4.6,11.4,9.1,15.9c6.4,6.4,14.2,11.2,22.7,14
		c-0.9,6.9-3.9,13.4-8.7,18.4c-7.9-8.1-13.9-17.5-18-28c-0.2-0.4-0.6-0.7-1.1-0.6c-7.5,1-14.4,4.5-19.8,9.9c-5,5-8.4,11.3-9.7,18
		C5.6,228.1,5.8,208.8,17.4,196.4z M27.9,224.1c5-5,11.1-8.1,17.9-9.2c4.2,10.8,10.6,20.4,18.8,28.7c4.2,4.2,8.8,7.9,13.7,11.1
		c-5.1,2-10.5,3.3-16,3.7c-8.3,0.7-16.8-0.5-24.6-3.5c-7.2-2.8-13.7-6.9-19.3-12.4C19.5,235.7,22.8,229.2,27.9,224.1z M196.5,235.6
		c-5.4,5.4-11.5,10-18.1,13.7c-8.6,4.8-17.9,8-27.6,9.5c0,0-0.1,0-0.1,0c-0.1,0-0.1,0-0.2,0.1c-0.1,0-0.1,0.1-0.2,0.1
		c0,0-0.1,0-0.1,0.1c0,0,0,0,0,0.1c0,0.1-0.1,0.1-0.1,0.2c0,0.1-0.1,0.1-0.1,0.2c0,0.1,0,0.1,0,0.2c0,0.1,0,0.1,0,0.2c0,0,0,0,0,0.1
		c0,0,0,0.1,0,0.1c0,0.1,0,0.1,0.1,0.2c0,0.1,0.1,0.1,0.1,0.2c0,0,0,0.1,0.1,0.1l10.6,10.6c-19.5,17.4-46.2,24.5-71.9,19l9.2-9.2
		c0,0,0,0,0,0L183,196c2.9,7,7.1,13.3,12.5,18.8c0,0.1,0.1,0.1,0.1,0.2c3.3,3.3,7.2,5.9,11.5,7.6c0,0-0.1,0-0.1,0.1
		C203.9,227.3,200.4,231.7,196.5,235.6z M237,160.5c12.8,12.8,12.8,33.7,0,46.5c-0.4,0.4-0.4,1,0,1.4l5.8,5.8
		c-9.1,8.6-22.4,11.3-34.2,6.9c-3.8-1.4-7.2-3.5-10.2-6.2c6.7-1.3,13-4.7,18-9.7c5.4-5.4,8.9-12.3,9.9-19.8c0.1-0.5-0.2-0.9-0.6-1.1
		c-10.5-4-19.9-10-28-17.9c6.4-6,14.6-9.1,23.3-8.9c2.2,0,4.4,0.3,6.6,0.8c0.5,0.1,1.1-0.2,1.2-0.8s-0.2-1.1-0.8-1.2
		c-1.6-0.4-3.2-0.6-4.7-0.7l4.3-4.3L237,160.5z M234.6,141.5c-3.3,3.3-15-1.4-27.2-13.6c-12.2-12.2-16.8-23.9-13.5-27.2l14.9-14.9
		c0,6.2,5.7,16.2,15.1,25.6c9.4,9.4,19.4,15.1,25.6,15.1c0,0,0,0,0,0L234.6,141.5z M274.2,102c-3.3,3.3-15-1.4-27.2-13.6
		c-12.2-12.2-16.8-23.9-13.5-27.2c0.7-0.7,1.8-1.1,3.1-1.1c5.8,0,16.2,6.7,24.1,14.6c0.1,0.1,0.1,0.1,0.2,0.2
		c-2.8,1.6-5.4,3.6-7.7,5.9c-0.4,0.4-0.4,1,0,1.4s1,0.4,1.4,0c2.3-2.3,4.9-4.2,7.8-5.8C271.1,85.9,278,98.2,274.2,102z"/>
</g>
</svg>
