<svg version="1.1" id="Capa_1" xmlns="http://www.w3.org/2000/svg" xmlns:xlink="http://www.w3.org/1999/xlink" x="0px" y="0px"
	 viewBox="0 0 244.3 192.3" style="enable-background:new 0 0 244.3 192.3;" xml:space="preserve">
<style type="text/css">
	.st0{fill:#CD2E25;}
</style>
<g>
	<path class="st0" d="M235.7,64c-0.5,0-1,0-1.7-0.1c0.4-0.4,0.7-0.8,1-1.2c5.9-6,9.2-13.9,9.2-22.3C244.3,32,241,24,235,18
		c-6-6-14-9.3-22.5-9.3c-3,0-5.9,0.4-8.7,1.2C196.8,3.6,189.7,0,184.2,0c-3.9,0-6.4,1.7-7.8,3.1L122.4,57L95.8,30.3l-0.4-0.5
		L95,29.5L83.7,18.2L83.6,18l-0.2-0.2l-0.4-0.5l-0.3-0.2L68.1,2.6L68,2.5C66.5,1.3,64.2,0,60.7,0c-2.6,0-5.4,0.7-8.4,2.2
		c-3.5,1.6-7.2,4.2-10.8,7.4C38.3,8.5,35,8,31.8,8c-8.5,0-16.4,3.3-22.4,9.3c-6,6-9.3,14-9.3,22.5c0,8.4,3.3,16.3,9.2,22.3
		c0.3,0.3,0.7,0.7,1,1.2c-0.6,0-1.2,0.1-1.7,0.1c-4,0.2-7.1,3.5-7.1,7.5c0,4,3.1,7.3,7.2,7.5c0.5,0,1,0,1.6,0.1
		c-0.4,0.5-0.8,0.9-1.1,1.3c-2.7,3-2.6,7.5,0.2,10.3c1.4,1.4,3.3,2.2,5.3,2.2c1.9,0,3.6-0.7,5-1.9c0.4-0.3,0.8-0.7,1.3-1.1
		c0,0.6,0.1,1.2,0.1,1.7c0.2,4,3.5,7.2,7.5,7.2s7.3-3.1,7.5-7.2c0-0.5,0-1,0.1-1.7c0.5,0.4,0.9,0.8,1.3,1.1c1.4,1.2,3.2,1.9,5,1.9
		c2,0,3.9-0.8,5.3-2.2c2.8-2.8,2.9-7.4,0.2-10.3c-0.3-0.4-0.7-0.8-1.1-1.2c0.6,0,1.2-0.1,1.6-0.1c4-0.2,7.2-3.5,7.2-7.5
		c0-1.2-0.3-2.3-0.8-3.3l28.5,28.5l-54,54c-7.7,7.7,0.2,21,9.2,30c2.9,2.9,13,12.3,22.1,12.3c3.1,0,5.8-1.1,7.8-3.1l54-54l39.2,39.2
		l14.8,14.8c1.4,1.4,3.9,3.1,7.8,3.1c9.1,0,19.2-9.4,22.1-12.3c9-9,16.8-22.3,9.2-30l-14.8-14.8l-39.2-39.2l27.9-27.9
		c-0.5,1-0.7,2.1-0.7,3.3c0,4,3.1,7.3,7.2,7.5c0.5,0,1,0,1.6,0.1c-0.4,0.5-0.8,0.9-1.1,1.3c-2.7,3-2.6,7.5,0.3,10.3
		c1.4,1.4,3.3,2.2,5.3,2.2c1.9,0,3.7-0.7,5-1.9c0.4-0.3,0.8-0.7,1.3-1.1c0,0.6,0.1,1.2,0.1,1.7c0.2,4,3.5,7.2,7.5,7.2
		s7.3-3.1,7.5-7.2c0-0.5,0-1,0.1-1.7c0.5,0.4,0.9,0.8,1.2,1.1c1.4,1.3,3.2,2,5.1,2c2,0,3.9-0.8,5.3-2.2c2.8-2.8,2.9-7.4,0.2-10.3
		c-0.3-0.4-0.7-0.8-1.1-1.3c0.6,0,1.2-0.1,1.7-0.1c4-0.2,7.2-3.5,7.2-7.5C242.9,67.5,239.8,64.2,235.7,64z"/>
	<g>
		<g>
			<path d="M43.1,85.5c0.4-0.4,0.4-1,0-1.4c-3.6-3.9-8-8.8-7.4-10.2c0.6-1.4,7.2-1.7,12.4-2c0.5,0,1-0.5,1-1s-0.4-1-1-1
				c-5.3-0.2-11.8-0.5-12.4-2c-0.6-1.4,3.8-6.3,7.4-10.2c0.4-0.4,0.3-1,0-1.4c-0.4-0.4-1-0.4-1.4,0c-3.9,3.6-8.8,8-10.2,7.4
				c-1.4-0.6-1.7-7.2-2-12.4c0-0.5-0.5-1-1-1s-1,0.4-1,1c-0.2,5.3-0.5,11.8-2,12.4c-1.4,0.6-6.3-3.8-10.2-7.4
				c-4.4-4.4-6.8-10.3-6.8-16.5c0-6.2,2.4-12.1,6.8-16.5c7-7,17.3-8.8,26.2-4.7c-6.4,7-10.9,15.5-7.5,19L90.4,94
				c0.2,0.2,0.4,0.3,0.7,0.3s0.5-0.1,0.7-0.3l28.5-28.5c0.4-0.4,0.4-1,0-1.4L90.9,34.6c0,0,0,0,0,0s0,0,0,0L78.7,22.4c0,0,0,0,0,0
				c0,0,0,0,0,0L64,7.7l0,0l0,0l0,0c0,0,0,0,0,0c-1.7-1.7-4.8-1.5-8.9,0.4c-3.8,1.8-8,4.9-11.9,8.8c-0.1,0.1-0.2,0.2-0.3,0.3
				c-9.7-4.8-21.3-2.9-29,4.8c-4.8,4.8-7.4,11.1-7.4,17.9c0,6.7,2.6,13.1,7.4,17.9c0,0,0,0,0,0c3.6,3.9,8,8.8,7.4,10.2
				c-0.6,1.4-7.2,1.7-12.4,2c-0.5,0-1,0.5-1,1s0.4,1,1,1c5.3,0.2,11.8,0.5,12.4,2c0.6,1.4-3.8,6.3-7.4,10.2c-0.4,0.4-0.3,1,0,1.4
				c0.4,0.4,1,0.4,1.4,0c3.9-3.6,8.8-8,10.2-7.4c1.4,0.6,1.7,7.2,2,12.4c0,0.5,0.5,1,1,1s1-0.4,1-1c0.2-5.3,0.5-11.8,2-12.4
				c1.4-0.6,6.3,3.8,10.2,7.4C42.1,85.9,42.7,85.9,43.1,85.5z M89.4,35.9c2,2.1-1.3,10-9.2,17.9c-7.9,7.9-15.8,11.2-17.9,9.2
				c0,0,0,0,0,0l-9.6-9.6c1.4-0.1,3.1-0.6,5-1.5c3.8-1.8,8-4.9,11.9-8.8c5.4-5.4,9.9-12.1,10.3-16.8L89.4,35.9z M55.9,9.9
				c1.9-0.9,3.6-1.4,4.8-1.4c0.8,0,1.4,0.2,1.8,0.6c2.1,2.1-1.2,10-9.2,17.9c-3.7,3.7-7.7,6.7-11.3,8.4c-3.2,1.5-5.6,1.8-6.6,0.8
				c0,0,0,0,0,0c-2-1.9,0.8-9,7.9-16.6c1.8,1,3.5,2.3,5,3.8c0.4,0.4,1,0.4,1.4,0s0.4-1,0-1.4c-1.5-1.5-3.2-2.8-4.9-3.8
				C48.5,14.5,52.4,11.5,55.9,9.9z"/>
			<path d="M196.2,139.9l-12.1-12.1l-29.6-29.6c-0.4-0.4-1-0.4-1.4,0l-28.5,28.5c-0.4,0.4-0.4,1,0,1.4l29.6,29.6c0,0,0,0,0,0
				l12.1,12.1l14.8,14.8c0.8,0.8,1.9,1.2,3.3,1.2c4.7,0,11.9-4.7,17.5-10.4c7.3-7.3,12.9-17,9.2-20.8L196.2,139.9z M163.1,157.4
				c3.8-1.8,8-4.9,11.9-8.8c3.9-3.9,7-8.1,8.8-11.9c0.9-1.9,1.4-3.5,1.5-5l9.5,9.5c1,1,0.7,3.5-0.8,6.6c-1.7,3.6-4.7,7.6-8.4,11.3
				c-3.7,3.7-7.7,6.7-11.3,8.4c-3.2,1.5-5.6,1.8-6.6,0.8l-9.5-9.5C159.6,158.8,161.2,158.3,163.1,157.4z"/>
			<path d="M235.5,70.5c-5.3-0.2-11.8-0.5-12.4-2c-0.6-1.4,3.8-6.3,7.4-10.2c0,0,0,0,0,0c4.8-4.8,7.4-11.1,7.4-17.9
				c0-6.8-2.6-13.1-7.4-17.9c-7.4-7.4-18.7-9.5-28.2-5.2c-0.2-0.2-0.3-0.3-0.5-0.5c-6.3-6.3-13.2-10.4-17.5-10.4c0,0,0,0,0,0
				c-1.4,0-2.5,0.4-3.2,1.2c0,0,0,0,0,0c0,0,0,0,0,0l-26.9,26.9L48.7,139.9l0,0l-14.8,14.8c-3.8,3.8,1.9,13.5,9.2,20.8
				c5.7,5.7,12.9,10.4,17.5,10.4c1.3,0,2.4-0.4,3.2-1.2l14.8-14.8l12.1-12.1L210.9,37.6c3.4-3.4-1-11.8-7.2-18.7
				c8.6-3.5,18.7-1.6,25.3,5.1c4.4,4.4,6.8,10.3,6.8,16.5c0,6.2-2.4,12.1-6.8,16.5c-3.9,3.6-8.8,8-10.2,7.4c-1.4-0.6-1.7-7.2-2-12.4
				c0-0.5-0.5-1-1-1s-1,0.4-1,1c-0.2,5.3-0.5,11.8-2,12.4c-1.4,0.6-6.3-3.8-10.2-7.4c-0.4-0.4-1-0.3-1.4,0c-0.4,0.4-0.4,1,0,1.4
				c3.6,3.9,8,8.8,7.4,10.2c-0.6,1.4-7.2,1.7-12.4,2c-0.5,0-1,0.5-1,1c0,0.5,0.4,1,1,1c5.3,0.2,11.8,0.5,12.4,2
				c0.6,1.4-3.8,6.3-7.4,10.2c-0.4,0.4-0.3,1,0,1.4c0.4,0.4,1,0.4,1.4,0c3.9-3.6,8.8-8,10.2-7.4c1.4,0.6,1.7,7.2,2,12.4
				c0,0.5,0.5,1,1,1s1-0.4,1-1c0.2-5.3,0.5-11.8,2-12.4c1.4-0.6,6.3,3.8,10.2,7.4c0.4,0.4,1,0.3,1.4,0c0.4-0.4,0.4-1,0-1.4
				c-3.6-3.9-8-8.8-7.4-10.2c0.6-1.4,7.2-1.7,12.4-2c0.5,0,1-0.5,1-1C236.4,71,236,70.5,235.5,70.5z M182.7,63
				c-2.1,2.1-10-1.2-17.9-9.2c-7.9-7.9-11.2-15.8-9.2-17.9l9.6-9.6c0.4,4.4,4.4,10.9,10.3,16.8c5.4,5.4,12.1,9.9,16.8,10.3L182.7,63
				z M77.2,168.4c-2.1,2.1-10-1.2-18-9.2c-8-8-11.2-15.9-9.2-17.9l9.5-9.5c0.5,4.7,5,11.4,10.3,16.8c5.4,5.4,12.1,9.9,16.8,10.3
				L77.2,168.4z M209.5,36.2c-2.1,2.1-10-1.2-18-9.2c-5.8-5.8-9.8-12.4-9.8-16.1c0-0.8,0.2-1.4,0.6-1.8c0.4-0.4,1-0.6,1.8-0.6
				c0,0,0,0,0,0c3.7,0,10.4,4,16.1,9.8c0,0,0,0,0,0c-2.1,1.1-4,2.6-5.7,4.3c-0.4,0.4-0.4,1,0,1.4s1,0.4,1.4,0
				c1.7-1.7,3.6-3.1,5.7-4.2C208.7,27.3,211.4,34.3,209.5,36.2z"/>
		</g>
	</g>
</g>
</svg>
