<svg version="1.1" id="Capa_1" xmlns="http://www.w3.org/2000/svg" xmlns:xlink="http://www.w3.org/1999/xlink" x="0px" y="0px"
	 viewBox="0 0 322.6 276.8" style="enable-background:new 0 0 322.6 276.8;" xml:space="preserve">
<style type="text/css">
	.st0{fill:#CD2E25;}
</style>
<g>
	<path class="st0" d="M313.4,93.5c-2.4-0.1-6.4-0.3-9.7-0.6c2.1-2.5,4.7-5.4,6.4-7.2c16.8-16.9,16.7-44.4-0.1-61.3
		c-8.2-8.2-19.1-12.8-30.6-12.8c-5.2,0-10.3,0.9-15.2,2.8l0,0c0,0,0,0,0,0c-17-15.9-30.5-17.2-36.6-11.1c0,0,0,0,0,0l-21.7,21.7
		L187.8,43c0,0,0,0,0,0l-2.2,2.2L174.4,34c-7.8-7.8-18.2-12.1-29.3-12.1c-11.1,0-21.4,4.3-29.3,12.1c0,0,0,0,0,0c0,0,0,0,0,0
		c-6.3,6.3-10.3,14.3-11.6,22.9c-8.7,1.3-16.7,5.4-23,11.7c0,0,0,0,0,0c0,0,0,0,0,0c0,0,0,0,0,0C74.9,75,71,82.9,69.6,91.5
		c-8.7,1.3-16.7,5.4-23,11.7c0,0,0,0,0,0c0,0,0,0,0,0c0,0,0,0,0,0c-6.2,6.3-10.2,14.2-11.5,22.9c-8.6,1.3-16.6,5.3-23,11.7
		c0,0,0,0,0,0c0,0,0,0,0,0c0,0,0,0,0,0C-4,154-4,180.2,12.1,196.3c0,0,0,0,0,0s0,0,0,0s0,0,0,0c0,0,0,0,0,0c3.8,3.8,8,7.1,12.6,9.8
		l-14.4,14.4c-8.9,8.9,0.4,26.1,13.6,39.2c10.7,10.7,22,17,30.2,17c4.6,0,7.4-1.9,9-3.5l21.8-21.8c0,0,0,0,0,0l4.5-4.5
		c5.5,1,11.1,1.6,16.7,1.6c22.4,0,43.9-8.2,60.5-23.1c0.4-0.2,0.7-0.5,1-0.8c0.1-0.1,0.2-0.2,0.3-0.4c0.8-0.7,1.6-1.5,2.4-2.3
		c5.5-5.5,10.2-11.6,14.1-18.1c6.6-3.9,12.7-8.6,18.1-14c3.4-3.4,6.5-7,9.2-10.8c2.8,0.6,5.7,0.9,8.5,0.9c10.9,0,21.6-4.4,29.3-12.1
		c0,0,0,0,0,0c0,0,0,0,0,0c0,0,0,0,0,0c10.3-10.3,14-24.8,11.1-38.2l-0.3-1.3c1,0.5,2.1,0.7,3.3,0.7c1.9,0,3.7-0.7,5-1.9
		c1.8-1.7,4.8-4.3,7.4-6.5c0.3,3.3,0.5,7.3,0.6,9.7c0.2,4,3.5,7.2,7.5,7.2c4,0,7.3-3.1,7.5-7.2c0.1-2.5,0.3-6.4,0.6-9.7
		c2.6,2.1,5.5,4.8,7.4,6.5c1.4,1.2,3.2,1.9,5,1.9h0c2,0,3.9-0.8,5.3-2.2c2.8-2.8,2.9-7.4,0.3-10.3c-1.7-1.8-4.3-4.8-6.5-7.4
		c3.3-0.3,7.3-0.5,9.7-0.6c4-0.2,7.2-3.5,7.2-7.5S317.5,93.7,313.4,93.5z"/>
	<path d="M313.2,100c-10.4-0.5-17.9-1-18.8-3.2c-0.9-2.2,4-7.9,11-15.6c14.4-14.4,14.4-37.8,0-52.2C294,17.7,276.9,15,262.7,22.2
		c-0.2-0.2-0.4-0.4-0.6-0.6C249.8,9.3,236.6,3.4,232,8l-21.7,21.7l-17.9,17.9l-6.8,6.8l-15.8-15.8c-6.6-6.6-15.4-10.2-24.7-10.2
		c-9.3,0-18.1,3.6-24.7,10.2c-6.5,6.5-10.1,15.2-10.2,24.4c-9.3,0.1-18,3.7-24.5,10.3c0,0,0,0,0,0s0,0,0,0c0,0,0,0,0,0
		c-6.4,6.5-10,15.1-10.1,24.3c-9.3,0.1-17.9,3.7-24.5,10.3c-6.5,6.5-10,15.1-10.1,24.3c-9.2,0.1-17.8,3.7-24.4,10.3c0,0,0,0,0,0
		c0,0,0,0,0,0c0,0,0,0,0,0C3.1,156,3.1,178.1,16.7,191.7c5.5,5.5,11.9,9.7,18.9,12.6l-20.8,20.8c-4.6,4.6,1.3,17.8,13.6,30
		c9.4,9.4,19.4,15.1,25.6,15.1c1.8,0,3.3-0.5,4.4-1.6l21.8-21.8l7-7c6.3,1.4,12.6,2.1,18.8,2.1c20.7,0,41-7.6,56.6-21.9
		c0.1-0.1,0.2-0.1,0.3-0.2c0,0,0.1-0.1,0.1-0.1c0.9-0.8,1.8-1.6,2.6-2.5c5.5-5.5,10.2-11.6,13.9-18.3c6.7-3.7,12.8-8.4,18.3-13.9
		c4.1-4.1,7.7-8.5,10.8-13.2c0.1-0.2,0.1-0.4,0.1-0.5c3.7,1.3,7.6,1.9,11.4,1.9c9.1,0,18.1-3.6,24.8-10.2c0,0,0,0,0,0s0,0,0,0
		c0,0,0,0,0,0c13.6-13.6,13.6-35.7,0-49.3l-6.6-6.6c0,0,0,0,0,0c0,0,0,0,0,0l-9.2-9.2l6.8-6.8l17.9-17.9l21.7-21.7
		c4.3-4.3-0.6-16.2-11.5-27.9c13.4-6.4,29.2-3.8,39.8,6.8c13.6,13.6,13.6,35.8,0,49.4c-7.7,7-13.4,11.9-15.6,11
		c-2.2-0.9-2.7-8.4-3.2-18.8c0-0.5-0.5-1-1-1s-1,0.4-1,1c-0.5,10.4-1,17.9-3.2,18.8c-2.2,0.9-7.9-4-15.6-11c-0.4-0.4-1-0.3-1.4,0
		c-0.4,0.4-0.4,1,0,1.4c7,7.8,11.9,13.4,11,15.6c-0.9,2.2-8.4,2.7-18.8,3.2c-0.5,0-1,0.5-1,1c0,0.5,0.4,1,1,1
		c10.4,0.5,17.9,1,18.8,3.2c0.9,2.2-4,7.9-11,15.6c-0.4,0.4-0.3,1,0,1.4c0.4,0.4,1,0.4,1.4,0c7.7-7,13.4-11.9,15.6-11
		c2.2,0.9,2.7,8.4,3.2,18.8c0,0.5,0.5,1,1,1c0.5,0,1-0.4,1-1c0.5-10.4,1-17.9,3.2-18.8c2.2-0.9,7.9,4,15.6,11c0.4,0.4,1,0.3,1.4,0
		c0.4-0.4,0.4-1,0-1.4c-7-7.7-11.9-13.4-11-15.6c0.9-2.2,8.4-2.7,18.8-3.2c0.5,0,1-0.5,1-1S313.7,100.1,313.2,100z M195.6,115.1
		c0,0,0.1,0.1,0.1,0.1c0,0,0.1,0,0.1,0.1c8.2,8.2,17.8,14.5,28.5,18.7c-1.1,6.8-4.3,13-9.3,17.9c-5.1,5.1-11.6,8.4-18.3,9.4
		c-5.5-5.6-9.6-12-12.4-19.3c-5-13-4.9-27.7,0.2-40.6C187.7,106.3,191.4,110.9,195.6,115.1z M110,134.9c-8.5-2.7-16-7.2-22.4-13.5
		c1-6.8,4.4-13.3,9.4-18.3c4.9-4.9,11.1-8.1,17.9-9.2c4.2,10.8,10.6,20.4,18.8,28.7c4.2,4.2,8.8,7.9,13.7,11.1
		C135.6,138.4,122.3,138.8,110,134.9z M113,168.3c-11.9,4.7-25.2,5.2-37.5,1.3c0,0,0,0,0,0c0,0-0.1,0-0.1,0
		c-8.3-2.6-16-7.3-22.3-13.5c1-6.8,4.4-13.3,9.4-18.3c5-5,11.1-8.1,17.9-9.2c4.2,10.8,10.6,20.4,18.8,28.7
		C103.4,161.3,108,165,113,168.3z M144.6,100.3c-8.3-2.6-16-7.3-22.3-13.5c1-6.8,4.4-13.3,9.4-18.3c5-5,11.1-8.1,17.9-9.3
		c4.3,10.8,10.6,20.4,18.8,28.6c4.2,4.2,8.8,7.9,13.7,11.1C170.2,103.8,156.9,104.2,144.6,100.3z M121.2,40.7l5.8,5.8
		c0.4,0.4,1,0.4,1.4,0c6.2-6.2,14.5-9.6,23.3-9.6c8.8,0,17.1,3.4,23.3,9.6c0,0,0,0,0,0l9.2,9.2l-4.3,4.3c-0.1-1.5-0.4-3-0.7-4.4
		c-0.1-0.5-0.7-0.9-1.2-0.8c-0.5,0.1-0.9,0.7-0.8,1.2c0.5,2,0.7,4.1,0.8,6.3c0.2,8.8-2.9,17-8.9,23.4c-7.9-8.1-13.9-17.5-18-28
		c-0.2-0.4-0.6-0.7-1.1-0.6c-7.5,1-14.4,4.5-19.8,9.9c-5,5-8.4,11.3-9.7,17.9c-3.6-4.1-6.2-9-7.4-14.3c-0.5-2.2-0.8-4.5-0.9-6.8
		l0-0.7C112.3,54.8,115.4,46.8,121.2,40.7z M86.5,75.4l5.8,5.8c0.2,0.2,0.4,0.3,0.7,0.3s0.5-0.1,0.7-0.3c4.8-4.8,10.9-8,17.7-9.1
		c1.6,6,4.7,11.4,9.1,15.8c6.4,6.4,14.2,11.2,22.7,14c-0.9,6.9-3.9,13.3-8.7,18.4c-7.9-8.1-13.9-17.5-18-28
		c-0.2-0.4-0.6-0.7-1.1-0.6c-7.5,1.1-14.4,4.5-19.8,9.9c-5,5-8.4,11.3-9.7,18c-3.6-4-6.1-8.9-7.4-14.1c0-0.1,0-0.3-0.1-0.4
		c-0.5-2.2-0.8-4.4-0.8-6.7c0-0.2,0-0.4,0-0.6C77.7,89.5,80.8,81.5,86.5,75.4z M51.9,110l5.8,5.8c0.2,0.2,0.5,0.3,0.7,0.3
		s0.5-0.1,0.7-0.3c4.8-4.8,10.9-8,17.6-9.1c1.5,6,4.7,11.4,9.1,15.8c6.5,6.5,14.1,11.2,22.7,14c-0.9,6.9-3.9,13.3-8.7,18.4
		c-7.9-8.1-13.9-17.5-18-28c-0.2-0.4-0.6-0.7-1.1-0.6c-7.5,1-14.4,4.5-19.8,9.9c-5,5-8.4,11.3-9.7,18c-3.6-4-6.1-8.8-7.3-14.1
		c0,0,0-0.1,0-0.1c0-0.2-0.1-0.4-0.2-0.5c-0.5-2.2-0.7-4.3-0.8-6.5c0-0.2,0-0.4,0-0.6C43.1,124,46.2,116.1,51.9,110z M17.4,144.5
		l5.8,5.8c0.2,0.2,0.5,0.3,0.7,0.3s0.5-0.1,0.7-0.3c4.8-4.8,10.9-8,17.6-9.1c1.5,6,4.7,11.4,9.1,15.9c6.4,6.4,14.2,11.2,22.7,14
		c-0.9,7-3.8,13.3-8.7,18.4c-7.9-8.1-13.9-17.5-18-28c-0.2-0.4-0.6-0.7-1.1-0.6c-7.5,1-14.4,4.5-19.8,9.9c-5,5-8.4,11.3-9.7,18
		C5.6,176.2,5.8,157,17.4,144.5z M18.5,190.7c1-6.8,4.4-13.3,9.4-18.3c5-5,11.1-8.1,17.9-9.3c4.3,10.8,10.6,20.4,18.8,28.6
		c4.2,4.2,8.8,7.9,13.7,11.1c-5.1,2-10.5,3.3-16,3.7c-8.3,0.7-16.8-0.5-24.6-3.5C30.5,200.3,24,196.1,18.5,190.7z M78.9,245.5
		c-1.7,1.7-5.4,1.3-10.4-1.1c-5.3-2.5-11.3-7-16.8-12.5c-5.6-5.6-10-11.5-12.5-16.8c-2.1-4.5-2.6-8-1.4-9.9c6.4,2.3,13.2,3.6,20,3.6
		c1.4,0,2.8-0.1,4.2-0.2c1.9,2.4,4,4.7,6.2,6.9c5.7,5.7,11.9,10.3,17.4,12.9c3.2,1.5,5.9,2.2,8.2,2.2c0,0,0,0,0,0L78.9,245.5z
		 M207,170.9c-3,4.6-6.6,8.9-10.5,12.9c-5.4,5.4-11.5,10-18.1,13.7c-8.6,4.8-17.8,8-27.6,9.5c0,0-0.1,0-0.1,0c-0.1,0-0.1,0-0.2,0.1
		c-0.1,0-0.1,0.1-0.2,0.1c0,0-0.1,0-0.1,0.1c0,0,0,0,0,0.1c0,0.1-0.1,0.1-0.1,0.2c0,0.1-0.1,0.1-0.1,0.2c0,0.1,0,0.1,0,0.2
		c0,0.1,0,0.1,0,0.2c0,0,0,0,0,0.1c0,0,0,0.1,0,0.1c0,0.1,0,0.1,0.1,0.2c0,0.1,0.1,0.1,0.1,0.2c0,0,0,0.1,0.1,0.1l10.6,10.6
		c-19.5,17.4-46.2,24.5-71.9,19l9.2-9.2l84.9-84.9c2.9,7,7.1,13.3,12.5,18.8c0,0.1,0.1,0.2,0.1,0.2C198.9,166.5,202.8,169,207,170.9
		C207.1,170.8,207,170.8,207,170.9z M237,108.6c12.8,12.8,12.8,33.7,0,46.5c-0.4,0.4-0.4,1,0,1.4l5.8,5.8
		c-9.1,8.6-22.4,11.3-34.2,6.9c-3.8-1.4-7.2-3.5-10.2-6.2c6.7-1.3,13-4.7,18-9.7c5.5-5.5,8.9-12.3,9.9-19.8c0.1-0.5-0.2-0.9-0.6-1.1
		c-10.5-4-19.9-10.1-28-18c6.4-6,14.6-9.1,23.3-8.9c2.2,0,4.4,0.3,6.6,0.8c0.5,0.1,1.1-0.2,1.2-0.8c0.1-0.5-0.2-1.1-0.8-1.2
		c-1.6-0.4-3.1-0.6-4.7-0.7l4.3-4.3L237,108.6z M234.6,89.7c-3.3,3.3-15-1.4-27.2-13.6C195.2,64,190.6,52.3,193.9,49l14.9-14.9
		c0,2.3,0.7,5,2.2,8.2c2.6,5.5,7.2,11.7,12.9,17.4c9.4,9.4,19.4,15.1,25.6,15.1c0,0,0,0,0,0L234.6,89.7z M274.2,50.1
		c-1.7,1.7-5.4,1.3-10.4-1.1c-5.3-2.5-11.3-7-16.8-12.5c-12.2-12.2-16.9-23.9-13.6-27.2c0.7-0.7,1.7-1,3.1-1
		c5.1,0,14.5,4.9,24.1,14.6c0.1,0.1,0.1,0.1,0.2,0.2c-2.8,1.6-5.4,3.6-7.7,5.9c-0.4,0.4-0.4,1,0,1.4s1,0.4,1.4,0
		c2.3-2.3,4.9-4.3,7.7-5.8C271.1,34,278,46.4,274.2,50.1z"/>
</g>
</svg>
