<?xml version="1.0" encoding="UTF-8"?>
<svg xmlns="http://www.w3.org/2000/svg" xmlns:xlink="http://www.w3.org/1999/xlink" width="px" height="px" viewBox="0 0 392 392" version="1.1">
<g id="surface1">
<path style=" stroke:none;fill-rule:nonzero;fill:rgb(81.960785%,18.039216%,14.117648%);fill-opacity:1;" d="M 376.597656 272.292969 C 226.457031 204.449219 227.191406 200.308594 392 196.003906 C 227.191406 191.699219 226.464844 187.554688 376.597656 119.710938 C 223.289062 180.054688 220.878906 176.769531 334.59375 57.410156 C 215.234375 171.128906 211.949219 168.71875 272.296875 15.410156 C 204.445312 165.539062 200.304688 164.8125 196 0 C 191.695312 164.8125 187.554688 165.539062 119.710938 15.402344 C 180.054688 168.710938 176.765625 171.125 57.410156 57.40625 C 171.125 176.769531 168.714844 180.050781 15.410156 119.707031 C 165.535156 187.550781 164.808594 191.699219 0 196.003906 C 164.808594 200.308594 165.535156 204.449219 15.402344 272.292969 C 168.710938 211.949219 171.121094 215.234375 57.40625 334.59375 C 176.765625 220.875 180.050781 223.289062 119.703125 376.597656 C 187.546875 226.457031 191.691406 227.1875 195.996094 392 C 200.300781 227.1875 204.441406 226.460938 272.285156 376.597656 C 211.941406 223.289062 215.226562 220.875 334.585938 334.59375 C 220.875 215.234375 223.289062 211.949219 376.597656 272.292969 "/>
</g>
</svg>
