<svg xmlns="http://www.w3.org/2000/svg" width="784" height="784" fill="none" xmlns:v="https://vecta.io/nano"><path fill="#cc8a00" d="M753.193 544.587C452.917 408.898 454.381 400.616 784 392.005c-329.619-8.61-331.073-16.893-30.807-152.582-306.613 120.69-311.435 114.117-84.004-124.6C430.465 342.257 423.902 337.435 544.59 30.817 408.893 331.077 400.61 329.623 392 0c-8.61 329.623-16.893 331.077-152.58 30.807 120.688 306.618 114.115 311.44-124.599 84.006 227.432 238.727 222.609 245.289-84.004 124.6C331.072 375.102 329.619 383.395 0 392.005c329.619 8.611 331.072 16.893 30.807 152.582 306.613-120.69 311.435-114.117 84.004 124.6 238.724-227.434 245.287-222.612 124.599 84.006C375.097 452.913 383.379 454.377 391.99 784c8.61-329.623 16.893-331.077 152.58-30.807-120.688-306.618-114.115-311.44 124.598-84.006-227.421-238.717-222.588-245.29 84.025-124.6"/></svg>