<?xml version="1.0" encoding="UTF-8"?>
<svg xmlns="http://www.w3.org/2000/svg" xmlns:xlink="http://www.w3.org/1999/xlink" width="px" height="px" viewBox="0 0 216 125" version="1.1">
<g id="surface1">
<path style=" stroke:none;fill-rule:nonzero;fill:rgb(0%,0%,0%);fill-opacity:1;" d="M 204.808594 66.730469 C 211.839844 64.886719 216.535156 58.261719 215.953125 51.015625 C 215.371094 43.769531 209.671875 37.984375 202.4375 37.289062 C 210.082031 34.339844 213.960938 25.816406 211.164062 18.113281 C 208.980469 12.195312 203.347656 8.257812 197.039062 8.25 L 176.539062 8.25 C 174.070312 8.253906 171.609375 8.503906 169.191406 9 C 166.390625 2.484375 159.410156 -1.179688 152.457031 0.21875 C 145.503906 1.613281 140.480469 7.6875 140.414062 14.78125 C 140.394531 14.832031 140.382812 14.890625 140.382812 14.945312 L 140.382812 22.753906 L 126.773438 22.753906 C 126.566406 18.378906 123.773438 14.542969 119.671875 13.007812 C 115.566406 11.472656 110.941406 12.527344 107.914062 15.695312 C 104.886719 12.511719 100.253906 11.445312 96.140625 12.984375 C 92.027344 14.523438 89.230469 18.367188 89.039062 22.753906 L 75.585938 22.753906 L 75.585938 14.945312 C 75.585938 14.890625 75.574219 14.835938 75.558594 14.785156 C 75.445312 8.632812 71.609375 3.160156 65.863281 0.960938 C 65.789062 0.914062 65.707031 0.886719 65.621094 0.875 C 58.1875 -1.792969 49.957031 1.757812 46.800781 9 C 44.386719 8.503906 41.929688 8.25 39.460938 8.25 L 18.960938 8.25 C 12.675781 8.257812 7.050781 12.167969 4.859375 18.058594 L 4.859375 18.101562 C 3.636719 21.4375 3.636719 25.097656 4.859375 28.433594 C 6.351562 32.492188 9.511719 35.714844 13.539062 37.296875 C 6.308594 38 0.621094 43.78125 0.0390625 51.023438 C -0.542969 58.261719 4.148438 64.878906 11.171875 66.730469 C 4.207031 68.558594 -0.476562 75.074219 0.0117188 82.257812 C 0.5 89.441406 6.023438 95.261719 13.171875 96.128906 C 6.589844 98.878906 2.855469 105.886719 4.242188 112.886719 C 5.628906 119.882812 11.753906 124.9375 18.886719 124.96875 C 18.9375 124.988281 18.988281 124.996094 19.042969 125 L 39.460938 125 C 50.859375 124.980469 61.582031 119.613281 68.425781 110.5 L 89.039062 110.5 C 89.234375 114.882812 92.023438 118.726562 96.128906 120.265625 C 100.234375 121.808594 104.867188 120.753906 107.898438 117.585938 C 110.929688 120.765625 115.566406 121.828125 119.675781 120.285156 C 123.789062 118.738281 126.582031 114.886719 126.773438 110.5 L 147.5625 110.5 C 154.410156 119.609375 165.140625 124.980469 176.539062 125 L 196.933594 125 C 196.984375 124.996094 197.035156 124.988281 197.082031 124.96875 C 204.21875 124.941406 210.347656 119.890625 211.738281 112.890625 C 213.125 105.890625 209.390625 98.882812 202.808594 96.128906 C 209.953125 95.261719 215.476562 89.441406 215.96875 82.257812 C 216.457031 75.074219 211.773438 68.558594 204.808594 66.730469 Z M 213.996094 47.230469 C 213.339844 48.945312 212.351562 50.515625 211.085938 51.851562 C 210.898438 52.050781 210.898438 52.367188 211.085938 52.570312 C 212.351562 53.90625 213.339844 55.476562 213.996094 57.195312 C 211.925781 62.5625 206.78125 66.117188 201.027344 66.152344 C 195.273438 66.191406 190.085938 62.703125 187.941406 57.363281 L 199.507812 62.800781 C 199.578125 62.832031 199.65625 62.847656 199.734375 62.851562 C 199.871094 62.851562 200.007812 62.792969 200.101562 62.691406 C 205.792969 56.863281 205.792969 47.558594 200.101562 41.730469 C 199.945312 41.574219 199.710938 41.527344 199.507812 41.621094 L 187.941406 47.074219 C 189.773438 42.507812 193.855469 39.230469 198.707031 38.429688 L 199.207031 38.359375 C 199.785156 38.285156 200.367188 38.25 200.953125 38.25 C 206.742188 38.273438 211.921875 41.847656 213.996094 47.25 Z M 183.253906 113.628906 L 175.417969 109.949219 L 195.609375 100.449219 C 200.542969 105.808594 200.542969 114.054688 195.609375 119.414062 Z M 107.914062 115.941406 C 106.730469 114.363281 106.042969 112.46875 105.9375 110.5 L 109.890625 110.5 C 109.789062 112.46875 109.097656 114.363281 107.914062 115.941406 Z M 100.46875 109.441406 L 100.46875 95.96875 L 104.871094 95.96875 L 104.871094 109.429688 Z M 20.390625 119.441406 C 15.445312 114.085938 15.445312 105.828125 20.390625 100.476562 L 40.574219 109.976562 Z M 40.453125 23.269531 L 20.273438 32.769531 C 15.328125 27.414062 15.328125 19.160156 20.273438 13.804688 Z M 28.734375 48.550781 L 36.566406 52.230469 L 28.78125 55.890625 C 28.707031 55.902344 28.636719 55.9375 28.578125 55.984375 L 16.382812 61.714844 C 11.445312 56.355469 11.445312 48.105469 16.382812 42.746094 Z M 28.734375 77.550781 L 36.566406 81.230469 L 16.382812 90.730469 C 11.449219 85.371094 11.449219 77.125 16.382812 71.765625 Z M 43.878906 109.425781 C 38.234375 109.425781 32.996094 99.925781 30.492188 85.234375 L 37.992188 81.699219 C 38.195312 81.628906 38.328125 81.441406 38.328125 81.226562 C 38.328125 81.015625 38.195312 80.824219 37.992188 80.753906 L 29.425781 76.730469 C 29.117188 73.160156 28.96875 69.84375 28.96875 66.605469 C 28.96875 63.238281 29.101562 59.921875 29.367188 56.75 L 38.039062 52.703125 C 38.226562 52.613281 38.347656 52.417969 38.335938 52.203125 C 38.34375 52 38.222656 51.816406 38.039062 51.734375 L 30.453125 48.203125 C 32.953125 33.363281 38.199219 23.800781 43.878906 23.800781 L 48.378906 23.800781 C 49.394531 25.203125 50.644531 26.421875 52.078125 27.398438 C 46.773438 34.734375 43.359375 50 43.359375 66.609375 C 43.359375 87.84375 48.574219 105.109375 55.746094 109.429688 Z M 107.914062 17.316406 C 109.105469 18.886719 109.800781 20.78125 109.914062 22.753906 L 105.9375 22.753906 C 106.039062 20.785156 106.726562 18.890625 107.914062 17.316406 Z M 115.164062 23.816406 L 115.164062 37.234375 L 110.957031 37.234375 L 110.957031 23.800781 Z M 60.378906 94.929688 C 56.722656 94.925781 53.761719 91.964844 53.757812 88.308594 L 53.757812 44.894531 C 53.761719 41.242188 56.722656 38.28125 60.378906 38.273438 L 155.617188 38.273438 C 159.269531 38.28125 162.230469 41.242188 162.238281 44.894531 L 162.238281 88.308594 C 162.230469 91.964844 159.269531 94.925781 155.617188 94.929688 Z M 155.40625 36.53125 L 145.90625 16.34375 C 151.261719 11.398438 159.519531 11.398438 164.871094 16.34375 Z M 109.90625 23.800781 L 109.90625 37.234375 L 105.90625 37.234375 L 105.90625 23.800781 Z M 104.871094 37.234375 L 100.46875 37.234375 L 100.46875 23.800781 L 104.871094 23.800781 Z M 64.273438 28.683594 L 60.585938 36.523438 L 56.914062 28.703125 L 51.101562 16.34375 C 56.464844 11.390625 64.738281 11.390625 70.101562 16.34375 Z M 105.914062 109.429688 L 105.914062 95.96875 L 109.914062 95.96875 L 109.914062 109.429688 Z M 110.957031 95.96875 L 115.164062 95.96875 L 115.164062 109.429688 L 110.957031 109.429688 Z M 172.640625 66.609375 C 172.640625 50.019531 169.234375 34.746094 163.921875 27.40625 C 165.355469 26.429688 166.601562 25.207031 167.613281 23.800781 L 172.113281 23.800781 C 177.796875 23.800781 183.039062 33.363281 185.539062 48.203125 L 177.984375 51.761719 C 177.796875 51.839844 177.679688 52.027344 177.683594 52.230469 C 177.671875 52.441406 177.792969 52.636719 177.984375 52.730469 L 186.597656 56.78125 C 186.867188 60.003906 187.007812 63.320312 187.007812 66.636719 C 187.007812 69.835938 186.851562 73.136719 186.542969 76.765625 L 177.984375 80.765625 C 177.78125 80.835938 177.644531 81.023438 177.644531 81.238281 C 177.644531 81.449219 177.78125 81.640625 177.984375 81.710938 L 185.507812 85.246094 C 183.007812 99.953125 177.757812 109.433594 172.117188 109.433594 L 160.246094 109.433594 C 167.421875 105.109375 172.640625 87.84375 172.640625 66.609375 Z M 195.71875 13.789062 C 200.671875 19.140625 200.671875 27.402344 195.71875 32.753906 L 183.371094 26.949219 L 175.539062 23.269531 Z M 187.453125 56 C 187.375 55.929688 187.277344 55.882812 187.171875 55.871094 L 179.425781 52.230469 L 199.613281 42.730469 C 204.550781 48.089844 204.550781 56.339844 199.613281 61.699219 Z M 187.257812 84.910156 L 179.433594 81.234375 L 199.613281 71.734375 C 204.558594 77.089844 204.558594 85.34375 199.613281 90.699219 Z M 210.109375 18.285156 C 209.449219 20.003906 208.460938 21.578125 207.191406 22.914062 C 207.097656 23.007812 207.042969 23.136719 207.042969 23.273438 C 207.042969 23.40625 207.097656 23.535156 207.191406 23.628906 C 208.460938 24.964844 209.449219 26.535156 210.109375 28.253906 C 208.304688 33.003906 204.066406 36.394531 199.039062 37.109375 L 198.539062 37.171875 C 198.039062 37.222656 197.539062 37.25 197.039062 37.25 C 191.3125 37.226562 186.171875 33.738281 184.039062 28.425781 L 195.601562 33.859375 C 195.671875 33.894531 195.746094 33.910156 195.824219 33.910156 C 195.964844 33.914062 196.101562 33.855469 196.199219 33.75 C 201.886719 27.921875 201.886719 18.617188 196.199219 12.789062 C 196.046875 12.625 195.800781 12.582031 195.601562 12.683594 L 184.039062 18.121094 C 186.175781 12.777344 191.367188 9.285156 197.125 9.324219 C 202.878906 9.359375 208.027344 12.914062 210.097656 18.285156 Z M 191.539062 9.289062 C 187.316406 10.941406 184.070312 14.417969 182.71875 18.746094 L 174.191406 22.746094 L 168.3125 22.746094 C 170.617188 18.898438 171.082031 14.226562 169.585938 10 C 171.875 9.535156 174.203125 9.296875 176.539062 9.289062 Z M 141.425781 15.144531 C 141.441406 15.105469 141.449219 15.0625 141.453125 15.019531 L 141.453125 14.945312 C 141.496094 9.191406 145.054688 4.046875 150.421875 1.96875 C 152.136719 2.625 153.703125 3.609375 155.039062 4.871094 C 155.132812 4.964844 155.261719 5.019531 155.394531 5.019531 C 155.53125 5.019531 155.660156 4.964844 155.753906 4.871094 C 157.089844 3.605469 158.664062 2.613281 160.382812 1.949219 C 164.390625 3.480469 167.476562 6.765625 168.753906 10.859375 C 170.03125 14.957031 169.359375 19.414062 166.933594 22.949219 C 165.875 24.492188 164.515625 25.804688 162.933594 26.804688 C 162.175781 27.28125 161.375 27.683594 160.539062 28 L 165.992188 16.449219 C 166.085938 16.25 166.042969 16.011719 165.886719 15.855469 C 160.058594 10.160156 150.75 10.160156 144.921875 15.855469 C 144.765625 16.011719 144.722656 16.25 144.816406 16.449219 L 150.246094 28 C 147.703125 26.980469 145.507812 25.242188 143.933594 23 L 143.902344 22.96875 C 143.878906 22.941406 143.851562 22.917969 143.824219 22.894531 L 143.746094 22.839844 L 143.65625 22.804688 L 141.425781 22.804688 Z M 115.832031 13.355469 C 121.101562 13.367188 125.445312 17.492188 125.726562 22.753906 L 110.933594 22.753906 C 110.828125 20.476562 110.011719 18.289062 108.601562 16.5 C 110.472656 14.496094 113.089844 13.355469 115.832031 13.355469 Z M 99.996094 13.355469 C 102.738281 13.355469 105.355469 14.496094 107.222656 16.5 C 105.816406 18.289062 105 20.476562 104.890625 22.75 L 90.097656 22.75 C 90.382812 17.488281 94.726562 13.363281 99.996094 13.355469 Z M 55.582031 1.960938 C 57.3125 2.609375 58.890625 3.601562 60.234375 4.871094 C 60.328125 4.96875 60.457031 5.023438 60.59375 5.023438 C 60.726562 5.023438 60.859375 4.96875 60.953125 4.871094 C 62.277344 3.613281 63.835938 2.628906 65.539062 1.964844 C 70.925781 4.035156 74.496094 9.195312 74.539062 14.964844 L 74.539062 15 C 74.539062 15.042969 74.550781 15.085938 74.5625 15.125 L 74.5625 22.753906 L 72.328125 22.753906 L 72.242188 22.789062 C 72.214844 22.804688 72.1875 22.824219 72.164062 22.84375 C 72.132812 22.867188 72.105469 22.890625 72.082031 22.921875 L 72.039062 23 C 70.46875 25.246094 68.273438 26.984375 65.726562 28 L 71.164062 16.449219 C 71.261719 16.25 71.21875 16.007812 71.050781 15.855469 C 65.222656 10.160156 55.914062 10.160156 50.085938 15.855469 C 49.921875 16.007812 49.875 16.25 49.976562 16.449219 L 55.4375 28.023438 C 54.621094 27.703125 53.832031 27.304688 53.09375 26.835938 C 51.519531 25.84375 50.15625 24.550781 49.09375 23.023438 L 49.0625 22.976562 C 46.40625 19.125 45.84375 14.207031 47.5625 9.859375 C 47.578125 9.835938 47.589844 9.8125 47.597656 9.785156 C 49.058594 6.179688 51.949219 3.347656 55.582031 1.960938 Z M 39.460938 9.289062 C 41.792969 9.296875 44.117188 9.535156 46.402344 10 C 44.902344 14.226562 45.371094 18.90625 47.683594 22.75 L 41.796875 22.75 L 33.296875 18.75 C 31.941406 14.417969 28.691406 10.9375 24.460938 9.289062 Z M 5.886719 28.289062 C 6.539062 26.566406 7.527344 24.992188 8.796875 23.65625 C 8.894531 23.5625 8.949219 23.433594 8.949219 23.296875 C 8.949219 23.164062 8.894531 23.035156 8.796875 22.941406 C 7.53125 21.605469 6.546875 20.03125 5.890625 18.308594 C 7.964844 12.941406 13.109375 9.390625 18.863281 9.355469 C 24.617188 9.316406 29.808594 12.804688 31.949219 18.144531 L 20.378906 12.683594 C 20.179688 12.582031 19.933594 12.625 19.78125 12.789062 C 14.089844 18.617188 14.089844 27.921875 19.78125 33.75 C 19.933594 33.917969 20.179688 33.964844 20.382812 33.859375 L 31.941406 28.425781 C 29.804688 33.734375 24.667969 37.222656 18.941406 37.25 C 18.226562 37.25 17.515625 37.199219 16.808594 37.09375 L 16.335938 37 C 11.582031 36.082031 7.632812 32.78125 5.886719 28.265625 Z M 2.003906 57.210938 C 2.660156 55.492188 3.648438 53.921875 4.914062 52.589844 C 5.101562 52.386719 5.101562 52.070312 4.914062 51.871094 C 3.648438 50.535156 2.65625 48.964844 1.996094 47.25 C 4.078125 41.839844 9.265625 38.265625 15.0625 38.25 C 15.484375 38.25 15.835938 38.25 16.203125 38.300781 C 16.351562 38.300781 16.503906 38.324219 16.652344 38.339844 C 21.769531 38.921875 26.148438 42.28125 28.039062 47.074219 L 16.484375 41.640625 C 16.28125 41.546875 16.042969 41.59375 15.886719 41.75 C 10.214844 47.585938 10.214844 56.875 15.886719 62.710938 C 15.984375 62.8125 16.121094 62.871094 16.261719 62.871094 C 16.339844 62.867188 16.414062 62.851562 16.484375 62.820312 L 28.039062 57.386719 C 25.914062 62.746094 20.71875 66.25 14.957031 66.210938 C 9.191406 66.171875 4.042969 62.597656 1.992188 57.210938 Z M 2.003906 86.210938 C 2.660156 84.492188 3.648438 82.921875 4.914062 81.585938 C 5.007812 81.492188 5.0625 81.363281 5.0625 81.226562 C 5.0625 81.09375 5.007812 80.964844 4.914062 80.871094 C 3.648438 79.535156 2.65625 77.960938 1.996094 76.246094 C 4.074219 70.886719 9.214844 67.34375 14.960938 67.308594 C 20.707031 67.269531 25.890625 70.75 28.039062 76.078125 L 16.484375 70.644531 C 16.28125 70.542969 16.039062 70.589844 15.886719 70.753906 C 10.214844 76.589844 10.214844 85.878906 15.886719 91.714844 C 15.988281 91.8125 16.121094 91.871094 16.261719 91.871094 C 16.339844 91.871094 16.414062 91.851562 16.484375 91.820312 L 28.039062 86.390625 C 26.183594 91.039062 21.992188 94.347656 17.039062 95.066406 C 16.921875 95.066406 16.800781 95.105469 16.671875 95.113281 C 16.128906 95.183594 15.582031 95.214844 15.03125 95.214844 C 9.246094 95.195312 4.070312 91.621094 2.003906 86.214844 Z M 6.003906 114.933594 C 6.65625 113.214844 7.644531 111.640625 8.914062 110.304688 C 9.007812 110.210938 9.0625 110.082031 9.0625 109.949219 C 9.0625 109.8125 9.007812 109.683594 8.914062 109.589844 C 7.644531 108.253906 6.65625 106.675781 6.003906 104.953125 C 7.789062 100.296875 11.921875 96.941406 16.847656 96.148438 L 17.234375 96.09375 C 23.589844 95.238281 29.710938 98.832031 32.0625 104.800781 L 20.496094 99.363281 C 20.296875 99.269531 20.054688 99.3125 19.898438 99.46875 C 14.207031 105.296875 14.207031 114.601562 19.898438 120.429688 C 19.996094 120.53125 20.132812 120.589844 20.273438 120.589844 C 20.351562 120.589844 20.425781 120.574219 20.496094 120.539062 L 32.066406 115.101562 C 29.929688 120.445312 24.738281 123.933594 18.984375 123.898438 C 13.226562 123.863281 8.078125 120.308594 6.007812 114.941406 Z M 39.457031 123.933594 L 24.457031 123.933594 C 28.707031 122.296875 31.988281 118.832031 33.390625 114.5 L 41.917969 110.5 L 67.117188 110.5 C 60.441406 118.980469 50.253906 123.9375 39.460938 123.953125 Z M 99.992188 119.878906 C 94.730469 119.871094 90.386719 115.757812 90.097656 110.5 L 104.890625 110.5 C 105 112.78125 105.8125 114.976562 107.222656 116.773438 C 105.351562 118.773438 102.734375 119.902344 99.996094 119.898438 Z M 115.828125 119.878906 C 113.085938 119.875 110.46875 118.734375 108.597656 116.730469 C 110.003906 114.945312 110.820312 112.769531 110.933594 110.5 L 125.726562 110.5 C 125.449219 115.765625 121.105469 119.894531 115.832031 119.898438 Z M 148.871094 110.5 L 174.074219 110.5 L 182.609375 114.5 C 184.007812 118.835938 187.289062 122.3125 191.539062 123.953125 L 176.539062 123.953125 C 165.742188 123.9375 155.550781 118.980469 148.871094 110.5 Z M 209.988281 105 C 209.328125 106.71875 208.335938 108.289062 207.074219 109.625 C 206.976562 109.71875 206.921875 109.847656 206.921875 109.984375 C 206.921875 110.117188 206.976562 110.246094 207.074219 110.339844 C 208.339844 111.675781 209.328125 113.246094 209.988281 114.964844 C 207.914062 120.332031 202.769531 123.886719 197.019531 123.921875 C 191.265625 123.960938 186.074219 120.476562 183.933594 115.136719 L 195.503906 120.570312 C 195.570312 120.601562 195.644531 120.621094 195.722656 120.621094 C 195.863281 120.621094 196 120.5625 196.097656 120.460938 C 201.769531 114.625 201.769531 105.335938 196.097656 99.5 C 195.945312 99.335938 195.703125 99.292969 195.503906 99.394531 L 183.933594 104.800781 C 186.320312 98.859375 192.417969 95.28125 198.765625 96.09375 C 198.902344 96.121094 199.03125 96.136719 199.152344 96.148438 C 204.078125 96.949219 208.207031 100.308594 209.988281 104.96875 Z M 200.9375 95.246094 C 200.382812 95.246094 199.832031 95.210938 199.28125 95.144531 C 199.164062 95.144531 199.046875 95.113281 198.90625 95.089844 C 193.96875 94.359375 189.789062 91.054688 187.941406 86.414062 L 199.507812 91.851562 C 199.707031 91.953125 199.949219 91.910156 200.101562 91.746094 C 205.792969 85.917969 205.792969 76.613281 200.101562 70.785156 C 199.953125 70.617188 199.707031 70.574219 199.507812 70.675781 L 187.9375 76.078125 C 190.078125 70.738281 195.269531 67.246094 201.027344 67.285156 C 206.78125 67.324219 211.925781 70.878906 213.996094 76.25 C 213.339844 77.96875 212.351562 79.539062 211.085938 80.875 C 210.992188 80.96875 210.9375 81.097656 210.9375 81.234375 C 210.9375 81.367188 210.992188 81.496094 211.085938 81.589844 C 212.351562 82.925781 213.339844 84.5 213.996094 86.214844 C 211.921875 91.625 206.730469 95.199219 200.9375 95.214844 Z M 200.9375 95.246094 "/>
</g>
</svg>
