<svg id="Capa_1" data-name="Capa 1" xmlns="http://www.w3.org/2000/svg" viewBox="0 0 431.85 250"><path d="M409.54,133.46a30,30,0,0,0-4.74-58.88,30.09,30.09,0,0,0,17.45-38.35s0,0,0,0a.08.08,0,0,0,0,0h0A30.15,30.15,0,0,0,394,16.5H353A73.64,73.64,0,0,0,338.31,18a30,30,0,0,0-57.56,11.56,1.2,1.2,0,0,0-.06.33V45.51H253.47a21.91,21.91,0,0,0-37.72-14.12A21.9,21.9,0,0,0,178,45.51h-26.9V29.89a1.13,1.13,0,0,0-.06-.32A30.19,30.19,0,0,0,131.65,1.92a1.15,1.15,0,0,0-.48-.17A30,30,0,0,0,93.53,18,72.92,72.92,0,0,0,78.85,16.5h-41A30.14,30.14,0,0,0,9.64,36.12h0l0,.08a30.1,30.1,0,0,0,0,20.67A30.28,30.28,0,0,0,27,74.59a30,30,0,0,0-4.73,58.87,30,30,0,0,0,4,58.8,30,30,0,0,0,11.43,57.68,1.07,1.07,0,0,0,.31.06H78.85A72.6,72.6,0,0,0,136.78,221H178a21.91,21.91,0,0,0,37.72,14.17A21.91,21.91,0,0,0,253.47,221h41.58A72.66,72.66,0,0,0,353,250h40.79a1.07,1.07,0,0,0,.3-.06,30,30,0,0,0,11.45-57.68,30,30,0,0,0,4-58.8Zm18.38-39a28,28,0,0,1-5.82,9.24,1.05,1.05,0,0,0,0,1.44,28,28,0,0,1,5.82,9.25,28,28,0,0,1-52.11.34l23.13,10.87a1.22,1.22,0,0,0,.45.1,1,1,0,0,0,.74-.32,30,30,0,0,0,0-41.92,1.06,1.06,0,0,0-1.19-.22L375.81,94.15a28.12,28.12,0,0,1,21.53-17.29l1-.14a26.69,26.69,0,0,1,3.49-.22A28.06,28.06,0,0,1,427.92,94.5ZM366.43,227.26l-15.67-7.36,40.38-19a28,28,0,0,1,0,37.93Zm-150.68,4.62A19.87,19.87,0,0,1,211.8,221h7.91A19.84,19.84,0,0,1,215.75,231.88Zm-14.89-13V191.94h8.81v26.92Zm-160.15,20a27.95,27.95,0,0,1,0-37.93l40.36,19ZM80.83,46.54l-40.36,19a27.95,27.95,0,0,1,0-37.93ZM57.39,97.1l15.67,7.36-15.57,7.32a.91.91,0,0,0-.41.19L32.69,123.43a28,28,0,0,1,0-37.94Zm0,58,15.67,7.36-40.37,19a28,28,0,0,1,0-37.93Zm30.29,63.75c-11.29,0-21.76-19-26.77-48.38l15-7.07a1,1,0,0,0,0-1.89l-17.13-8.05c-.62-7.14-.92-13.77-.92-20.25,0-6.73.27-13.37.8-19.71L76,105.41a1.06,1.06,0,0,0,.6-1,1,1,0,0,0-.6-.94L60.83,96.41c5-29.68,15.49-48.81,26.85-48.81h9a30.13,30.13,0,0,0,7.4,7.2C93.47,69.47,86.64,100,86.64,133.22c0,42.47,10.43,77,24.78,85.64ZM215.75,34.63a19.83,19.83,0,0,1,4,10.88H211.8A19.82,19.82,0,0,1,215.75,34.63Zm14.5,13V74.47h-8.41V47.6ZM120.68,189.86a13.26,13.26,0,0,1-13.24-13.24V89.79a13.26,13.26,0,0,1,13.24-13.24H311.16A13.26,13.26,0,0,1,324.4,89.79v86.83a13.26,13.26,0,0,1-13.24,13.24ZM310.74,73.06l-19-40.37a27.95,27.95,0,0,1,37.93,0Zm-91-25.46V74.47h-8V47.6ZM209.67,74.47h-8.81V47.6h8.81Zm-81.2-17.1L121.1,73.05l-7.35-15.64a.54.54,0,0,0-.07-.13L102.13,32.69a28,28,0,0,1,38,0Zm83.28,161.49V191.94h8v26.92Zm10.09-26.92h8.41v26.92h-8.41Zm123.37-58.72c0-33.18-6.82-63.73-17.44-78.41a29.56,29.56,0,0,0,7.38-7.21h9C355.52,47.6,366,66.73,371,96.41l-15.11,7.11a1,1,0,0,0-.6.94,1.06,1.06,0,0,0,.6,1l17.23,8.1c.54,6.45.82,13.08.82,19.71,0,6.4-.31,13-.93,20.26l-17.12,8a1,1,0,0,0,0,1.89l15.05,7.07c-5,29.42-15.5,48.38-26.78,48.38H320.42C334.77,210.22,345.21,175.69,345.21,133.22ZM391.36,27.58a27.92,27.92,0,0,1,0,37.93L366.67,53.9h0L351,46.54ZM374.83,112a1,1,0,0,0-.56-.26l-15.49-7.28,40.37-19a28,28,0,0,1,0,37.94Zm-.39,57.82-15.65-7.35,40.36-19a27.95,27.95,0,0,1,0,37.93Zm45.7-133.25a27.92,27.92,0,0,1-5.83,9.26,1,1,0,0,0,0,1.43,27.93,27.93,0,0,1,5.83,9.25A27.88,27.88,0,0,1,398,74.22l-1,.12a29.62,29.62,0,0,1-3,.16,28.15,28.15,0,0,1-26-17.65l23.13,10.87a1,1,0,0,0,.44.1,1,1,0,0,0,.75-.32,30,30,0,0,0,0-41.92,1,1,0,0,0-1.19-.21L368,36.24a28,28,0,0,1,52.12.33ZM383,18.58a29.9,29.9,0,0,0-17.64,18.91l-17.05,8H336.55A30.08,30.08,0,0,0,339.1,20,71.06,71.06,0,0,1,353,18.58ZM282.78,30.29a1,1,0,0,0,.05-.25v-.15A28.06,28.06,0,0,1,300.77,3.94,27.91,27.91,0,0,1,310,9.74a1,1,0,0,0,1.43,0,28.29,28.29,0,0,1,9.26-5.84,28,28,0,0,1,13.1,42l0,0a27.47,27.47,0,0,1-8,7.71A26.82,26.82,0,0,1,321,56L331.91,32.9a1.05,1.05,0,0,0-.21-1.19,30,30,0,0,0-41.93,0,1.05,1.05,0,0,0-.21,1.19L300.42,56a28.26,28.26,0,0,1-12.63-10l-.06-.06a1.14,1.14,0,0,0-.16-.15l-.15-.11-.18-.07-.22,0-.08,0h-4.16Zm-51.19-3.58a19.86,19.86,0,0,1,19.79,18.8H221.79A21.84,21.84,0,0,0,217.13,33,19.78,19.78,0,0,1,231.59,26.71Zm-31.67,0A19.77,19.77,0,0,1,214.37,33a21.94,21.94,0,0,0-4.66,12.5H180.12A19.86,19.86,0,0,1,199.92,26.71ZM111.09,3.92a27.76,27.76,0,0,1,9.3,5.82,1,1,0,0,0,1.44,0A28.22,28.22,0,0,1,131,3.93a28.08,28.08,0,0,1,18,26V30a1.11,1.11,0,0,0,.05.25V45.51h-4.17l-.08,0-.22,0-.17.07a.91.91,0,0,0-.16.11,1.14,1.14,0,0,0-.16.15L144,46a28.1,28.1,0,0,1-12.62,10l10.87-23.1a1,1,0,0,0-.22-1.19,30,30,0,0,0-41.93,0,1,1,0,0,0-.22,1.19L110.8,56.05a27.2,27.2,0,0,1-4.69-2.38,27.81,27.81,0,0,1-8-7.62l-.06-.1a28.05,28.05,0,0,1-3-26.23,1,1,0,0,0,.07-.15A28,28,0,0,1,111.09,3.92ZM78.85,18.58A70.88,70.88,0,0,1,92.73,20,30,30,0,0,0,95.29,45.5H83.52l-17-8A29.89,29.89,0,0,0,48.85,18.58Zm-67.15,38a27.67,27.67,0,0,1,5.82-9.27,1,1,0,0,0,0-1.43,27.86,27.86,0,0,1-5.81-9.26,28,28,0,0,1,52.11-.33L40.68,25.37a1,1,0,0,0-1.19.21,30,30,0,0,0,0,41.92,1,1,0,0,0,1.2.22L63.81,56.85a28.16,28.16,0,0,1-26,17.65,29.11,29.11,0,0,1-4.27-.31L32.6,74A28.11,28.11,0,0,1,11.7,56.53ZM3.93,114.42a27.87,27.87,0,0,1,5.82-9.24,1.05,1.05,0,0,0,0-1.44A28.05,28.05,0,0,1,3.92,94.5a28.07,28.07,0,0,1,26.13-18c.84,0,1.55,0,2.28.1.3,0,.6.05.9.08A27.87,27.87,0,0,1,56,94.15L32.89,83.28a1.06,1.06,0,0,0-1.19.22,30.07,30.07,0,0,0,0,41.92,1,1,0,0,0,.75.32,1.13,1.13,0,0,0,.44-.1L56,114.77a27.94,27.94,0,0,1-52.09-.35Zm0,58a28,28,0,0,1,5.82-9.25,1,1,0,0,0,0-1.43,28.1,28.1,0,0,1-5.83-9.25A28,28,0,0,1,56,152.16L32.89,141.29a1,1,0,0,0-1.19.22,30.07,30.07,0,0,0,0,41.92,1.06,1.06,0,0,0,.75.31,1,1,0,0,0,.44-.1L56,172.78a28,28,0,0,1-22,17.35c-.23,0-.47.08-.73.1a26.27,26.27,0,0,1-3.28.2A28,28,0,0,1,3.93,172.43Zm8,57.45a27.73,27.73,0,0,1,5.82-9.26,1,1,0,0,0,0-1.43,27.87,27.87,0,0,1-5.82-9.27A28,28,0,0,1,33.62,192.3l.77-.11h0A27.87,27.87,0,0,1,64.05,209.6L40.92,198.73a1.05,1.05,0,0,0-1.2.21,30,30,0,0,0,0,41.92,1.06,1.06,0,0,0,.75.32,1,1,0,0,0,.45-.1L64.06,230.2a28,28,0,0,1-52.12-.32Zm66.91,18h-30A30.21,30.21,0,0,0,66.71,229l17.05-8h50.4A70.54,70.54,0,0,1,78.85,247.91Zm121.07-8.11A19.85,19.85,0,0,1,180.12,221h29.59a22,22,0,0,0,4.66,12.55A19.77,19.77,0,0,1,199.92,239.8Zm31.67,0a19.8,19.8,0,0,1-14.46-6.3A21.85,21.85,0,0,0,221.79,221h29.59A19.84,19.84,0,0,1,231.59,239.8ZM297.67,221h50.4l17.07,8A30.22,30.22,0,0,0,383,247.91H353A70.59,70.59,0,0,1,297.67,221Zm122.23-11a28.2,28.2,0,0,1-5.83,9.25,1,1,0,0,0,0,1.43,28,28,0,0,1,5.83,9.25,28,28,0,0,1-52.11.34l23.14,10.87a1,1,0,0,0,.44.1,1,1,0,0,0,.75-.32,30.07,30.07,0,0,0,0-41.92,1,1,0,0,0-1.19-.21L367.79,209.6a28.12,28.12,0,0,1,29.67-17.41h0c.27.05.53.08.77.11A28,28,0,0,1,419.9,209.94Zm-18.1-19.51a27.13,27.13,0,0,1-3.31-.2c-.24,0-.47-.06-.75-.11a28,28,0,0,1-21.93-17.35l23.13,10.87a1,1,0,0,0,1.19-.21,30,30,0,0,0,0-41.92,1,1,0,0,0-1.19-.22L375.8,152.16a28,28,0,0,1,52.12.34,28,28,0,0,1-5.82,9.25,1,1,0,0,0,0,1.43,28.17,28.17,0,0,1,5.82,9.25A28.06,28.06,0,0,1,401.8,190.43Z"/></svg>