<svg xmlns="http://www.w3.org/2000/svg" viewBox="0 0 151.32 250" xmlns:v="https://vecta.io/nano"><path d="M151.25 29.74a30.35 30.35 0 0 0-19.64-27.85h-.1a30.18 30.18 0 0 0-38 16.1 73 73 0 0 0-14.53-1.48H38A30.31 30.31 0 0 0 9.6 36.28a30.19 30.19 0 0 0 16.73 38.28 30.18 30.18 0 0 0-4.66 58.89 30.19 30.19 0 0 0 4 58.81 30.21 30.21 0 0 0 12.23 57.68 1.6 1.6 0 0 0 .31.06h40.72a72.68 72.68 0 0 0 58.33-29.52 1.26 1.26 0 1 0-2-1.49 70.18 70.18 0 0 1-56.3 28.49H50.1A30.38 30.38 0 0 0 67 228.94l17.15-8.06a1.26 1.26 0 0 0 .72-1.14 1.27 1.27 0 0 0-.72-1.15L67 210.53a30.45 30.45 0 0 0-24.24-20.65A30.23 30.23 0 0 0 59 171.6l17.16-8.06a1.26 1.26 0 0 0 0-2.28L59 153.19a30.38 30.38 0 0 0-20.26-19.74A30.39 30.39 0 0 0 59 113.7l17.17-8.06a1.26 1.26 0 0 0 0-2.28L59 95.29a30.09 30.09 0 0 0-17.14-18.68 30.42 30.42 0 0 0 24.88-20.72l16.9-8h13A30.37 30.37 0 0 0 111.92 59l8 17.14a1.28 1.28 0 0 0 1.15.73 1.26 1.26 0 0 0 1.14-.73L130.33 59a30.33 30.33 0 0 0 15.57-11.59 1.26 1.26 0 0 0-2.08-1.41 27.8 27.8 0 0 1-12 9.72l10.6-22.54a1.26 1.26 0 0 0-.27-1.44 30.21 30.21 0 0 0-42.16 0 1.25 1.25 0 0 0-.26 1.44l10.61 22.59A27.73 27.73 0 0 1 95.3 20a.8.8 0 0 0 .08-.16 27.67 27.67 0 0 1 15.79-15.48 27.8 27.8 0 0 1 9.07 5.74 1.25 1.25 0 0 0 .87.35 1.23 1.23 0 0 0 .86-.34 27.3 27.3 0 0 1 9.1-5.71 27.82 27.82 0 0 1 17.68 25.65v.16a1.2 1.2 0 0 0 .05.25v16.08a1.26 1.26 0 1 0 2.52 0V30.05a1 1 0 0 0-.07-.31m-30.14-4.07a27.55 27.55 0 0 1 18.68 7.24L128.26 57.4l-7.15 15.23L114 57.44a1 1 0 0 0-.08-.15l-11.48-24.38a27.52 27.52 0 0 1 18.67-7.24M40.91 238.4a27.68 27.68 0 0 1 0-37.33l39.72 18.67ZM63.72 209l-22.56-10.6a1.25 1.25 0 0 0-1.44.26 30.2 30.2 0 0 0 0 42.15 1.25 1.25 0 0 0 .9.38 1.3 1.3 0 0 0 .54-.12l22.57-10.6a27.68 27.68 0 0 1-51.34-.76 27.5 27.5 0 0 1 5.72-9.11 1.26 1.26 0 0 0 0-1.73 27.5 27.5 0 0 1-5.73-9.11 27.72 27.72 0 0 1 21.44-17.36l.76-.11A27.9 27.9 0 0 1 63.72 209M32.9 181.07a27.72 27.72 0 0 1 0-37.34l24.52 11.52 15.22 7.15Zm22.82-29.41-22.57-10.6a1.26 1.26 0 0 0-1.44.26 30.24 30.24 0 0 0 0 42.16 1.25 1.25 0 0 0 .9.38 1.3 1.3 0 0 0 .54-.12l22.57-10.61a27.75 27.75 0 0 1-21.54 16.67l-.72.1a26 26 0 0 1-3.25.19 27.79 27.79 0 0 1-25.83-17.73 27.7 27.7 0 0 1 5.73-9.09 1.27 1.27 0 0 0 0-1.74 27.8 27.8 0 0 1-5.73-9.09 27.68 27.68 0 0 1 51.34-.78m-22.82-28.5a27.71 27.71 0 0 1 0-37.33l24.52 11.52 15.22 7.15Zm22.82-29.4-22.57-10.6a1.25 1.25 0 0 0-1.44.26 30.22 30.22 0 0 0 0 42.15 1.26 1.26 0 0 0 .9.39 1.3 1.3 0 0 0 .54-.12l22.57-10.61a27.67 27.67 0 0 1-51.34-.77 27.9 27.9 0 0 1 5.73-9.1 1.26 1.26 0 0 0 0-1.73 27.8 27.8 0 0 1-5.73-9.09 27.79 27.79 0 0 1 25.83-17.73 27 27 0 0 1 3.15.18 27.55 27.55 0 0 1 22.36 16.77M38 74.37a28 28 0 0 1-4.22-.31 27.71 27.71 0 0 1-21.61-17.4 27.5 27.5 0 0 1 5.73-9.11 1.27 1.27 0 0 0 0-1.74 27.5 27.5 0 0 1-5.72-9.1A27.68 27.68 0 0 1 63.5 36L40.92 25.34a1.28 1.28 0 0 0-1.44.26 30.21 30.21 0 0 0 0 42.16 1.25 1.25 0 0 0 .9.38 1.3 1.3 0 0 0 .54-.12l22.56-10.6A27.87 27.87 0 0 1 38 74.37m2.7-9a27.69 27.69 0 0 1 0-37.34l39.7 18.65Zm54.24-19.95h-11.3l-16.88-7.94A30 30 0 0 0 50.11 19h28.82a70.5 70.5 0 0 1 13.6 1.35 30 30 0 0 0 2.41 25.08Z"/></svg>