<?xml version="1.0" encoding="UTF-8"?>
<svg xmlns="http://www.w3.org/2000/svg" xmlns:xlink="http://www.w3.org/1999/xlink" width="px" height="px" viewBox="0 0 76 125" version="1.1">
<g id="surface1">
<path style=" stroke:none;fill-rule:nonzero;fill:rgb(0%,0%,0%);fill-opacity:1;" d="M 75.964844 14.972656 C 75.851562 8.769531 71.941406 3.261719 66.101562 1.074219 L 66.050781 1.074219 C 58.550781 -1.660156 50.203125 1.851562 46.964844 9.109375 C 44.5625 8.621094 42.117188 8.371094 39.667969 8.371094 L 19.085938 8.371094 C 12.722656 8.375 7.035156 12.308594 4.820312 18.234375 C 2.019531 25.808594 5.726562 34.230469 13.222656 37.332031 C 6.109375 38.242188 0.613281 43.976562 0.046875 51.082031 C -0.519531 58.183594 4.003906 64.707031 10.882812 66.714844 C 4.066406 68.710938 -0.445312 75.144531 0.0390625 82.1875 C 0.519531 89.234375 5.863281 95 12.894531 96.058594 C 6.433594 98.996094 2.886719 105.988281 4.363281 112.890625 C 5.835938 119.796875 11.933594 124.757812 19.035156 124.835938 C 19.085938 124.851562 19.136719 124.863281 19.191406 124.867188 L 39.640625 124.867188 C 51.203125 124.84375 62.074219 119.378906 68.9375 110.140625 C 69.113281 109.964844 69.167969 109.703125 69.082031 109.472656 C 68.996094 109.242188 68.78125 109.085938 68.535156 109.066406 C 68.285156 109.050781 68.050781 109.179688 67.933594 109.394531 C 61.304688 118.3125 50.816406 123.585938 39.65625 123.609375 L 25.164062 123.609375 C 29.199219 121.886719 32.292969 118.515625 33.652344 114.359375 L 42.265625 110.339844 C 42.484375 110.234375 42.625 110.011719 42.625 109.769531 C 42.625 109.523438 42.484375 109.300781 42.265625 109.195312 L 33.652344 105.175781 C 31.867188 99.738281 27.164062 95.757812 21.476562 94.871094 C 25.367188 93.109375 28.328125 89.796875 29.632812 85.75 L 38.25 81.730469 C 38.472656 81.625 38.613281 81.402344 38.613281 81.160156 C 38.613281 80.917969 38.472656 80.695312 38.25 80.589844 L 29.632812 76.566406 C 28.078125 71.816406 24.273438 68.132812 19.457031 66.714844 C 24.273438 65.296875 28.082031 61.609375 29.632812 56.863281 L 38.257812 52.839844 C 38.476562 52.738281 38.621094 52.515625 38.621094 52.273438 C 38.621094 52.027344 38.476562 51.804688 38.257812 51.703125 L 29.632812 47.675781 C 28.285156 43.460938 25.136719 40.050781 21.023438 38.355469 C 26.84375 37.582031 31.699219 33.5625 33.519531 28.019531 L 42.007812 24.027344 L 48.539062 24.027344 C 50.4375 26.636719 53.125 28.578125 56.210938 29.570312 L 60.230469 38.121094 C 60.335938 38.34375 60.558594 38.484375 60.808594 38.484375 C 61.054688 38.484375 61.277344 38.34375 61.378906 38.121094 L 65.457031 29.570312 C 68.632812 28.546875 71.378906 26.511719 73.277344 23.785156 C 73.441406 23.5 73.359375 23.136719 73.082031 22.953125 C 72.808594 22.769531 72.4375 22.824219 72.234375 23.082031 C 70.726562 25.234375 68.636719 26.914062 66.207031 27.933594 L 71.53125 16.6875 C 71.644531 16.445312 71.589844 16.15625 71.394531 15.96875 C 65.503906 10.265625 56.109375 10.265625 50.21875 15.96875 C 50.023438 16.15625 49.972656 16.445312 50.089844 16.6875 L 55.417969 27.957031 C 48.433594 25.042969 45.074219 17.109375 47.863281 10.109375 C 47.878906 10.085938 47.894531 10.058594 47.90625 10.03125 C 49.351562 6.472656 52.226562 3.675781 55.835938 2.308594 C 57.527344 2.960938 59.074219 3.933594 60.390625 5.171875 C 60.507812 5.285156 60.664062 5.347656 60.828125 5.347656 C 60.988281 5.347656 61.144531 5.285156 61.257812 5.175781 C 62.578125 3.933594 64.132812 2.96875 65.828125 2.328125 C 71.140625 4.394531 74.65625 9.457031 74.710938 15.125 L 74.710938 15.207031 C 74.714844 15.246094 74.722656 15.289062 74.734375 15.328125 L 74.734375 23.351562 C 74.734375 23.699219 75.019531 23.980469 75.367188 23.980469 C 75.714844 23.980469 76 23.699219 76 23.351562 L 76 15.125 C 75.996094 15.074219 75.984375 15.019531 75.964844 14.972656 M 60.828125 12.941406 C 64.300781 12.933594 67.648438 14.222656 70.210938 16.550781 L 64.417969 28.769531 L 60.828125 36.371094 L 57.257812 28.792969 C 57.246094 28.765625 57.230469 28.742188 57.214844 28.714844 L 51.449219 16.550781 C 54.007812 14.222656 57.355469 12.933594 60.828125 12.941406 M 20.546875 119.082031 C 15.699219 113.804688 15.699219 105.730469 20.546875 100.453125 L 40.496094 109.769531 Z M 32.003906 104.410156 L 20.671875 99.121094 C 20.429688 99.007812 20.136719 99.058594 19.949219 99.253906 C 14.210938 105.101562 14.210938 114.429688 19.949219 120.28125 C 20.066406 120.402344 20.230469 120.472656 20.402344 120.472656 C 20.496094 120.472656 20.585938 120.453125 20.671875 120.414062 L 32.007812 115.125 C 29.808594 120.316406 24.65625 123.664062 18.988281 123.582031 C 13.316406 123.496094 8.265625 120 6.222656 114.746094 C 6.871094 113.054688 7.847656 111.511719 9.09375 110.199219 C 9.324219 109.957031 9.324219 109.578125 9.09375 109.335938 C 7.84375 108.023438 6.867188 106.480469 6.21875 104.789062 C 8.003906 100.207031 12.101562 96.910156 16.984375 96.128906 L 17.367188 96.074219 C 23.574219 95.296875 29.542969 98.699219 32.003906 104.410156 M 16.523438 90.476562 C 11.683594 85.195312 11.683594 77.125 16.523438 71.84375 L 28.839844 77.59375 L 36.484375 81.160156 Z M 27.984375 75.800781 L 16.648438 70.511719 C 16.40625 70.398438 16.113281 70.449219 15.925781 70.644531 C 10.195312 76.5 10.195312 85.820312 15.925781 91.679688 C 16.042969 91.800781 16.207031 91.867188 16.378906 91.867188 C 16.472656 91.867188 16.5625 91.847656 16.648438 91.808594 L 27.984375 86.515625 C 26.089844 90.976562 21.988281 94.128906 17.167969 94.832031 L 16.804688 94.882812 C 16.261719 94.945312 15.71875 94.976562 15.171875 94.976562 C 9.429688 94.960938 4.28125 91.449219 2.199219 86.128906 C 2.851562 84.445312 3.828125 82.90625 5.078125 81.59375 C 5.308594 81.351562 5.308594 80.96875 5.078125 80.726562 C 3.832031 79.414062 2.851562 77.875 2.199219 76.191406 C 4.238281 70.933594 9.289062 67.433594 14.960938 67.351562 C 20.632812 67.265625 25.785156 70.609375 27.984375 75.800781 M 16.523438 61.582031 C 11.683594 56.304688 11.683594 48.234375 16.523438 42.957031 L 28.839844 48.703125 L 36.484375 52.273438 Z M 27.984375 46.914062 L 16.648438 41.625 C 16.40625 41.507812 16.113281 41.558594 15.925781 41.753906 C 10.191406 47.605469 10.191406 56.929688 15.925781 62.785156 C 16.042969 62.90625 16.207031 62.976562 16.378906 62.980469 C 16.472656 62.980469 16.5625 62.957031 16.648438 62.917969 L 27.984375 57.625 C 25.789062 62.824219 20.636719 66.171875 14.960938 66.089844 C 9.289062 66.003906 4.238281 62.5 2.199219 57.242188 C 2.855469 55.554688 3.832031 54.015625 5.078125 52.699219 C 5.308594 52.457031 5.308594 52.078125 5.078125 51.835938 C 3.832031 50.527344 2.851562 48.984375 2.199219 47.300781 C 4.28125 41.980469 9.429688 38.472656 15.171875 38.457031 C 15.703125 38.457031 16.230469 38.484375 16.753906 38.546875 C 21.75 39.101562 26.050781 42.304688 27.984375 46.914062 M 19.085938 37.238281 C 18.375 37.238281 17.667969 37.1875 16.964844 37.082031 C 12.046875 36.328125 7.90625 33.015625 6.113281 28.402344 C 6.761719 26.714844 7.738281 25.167969 8.988281 23.855469 C 9.222656 23.613281 9.222656 23.234375 8.988281 22.988281 C 7.742188 21.675781 6.765625 20.136719 6.117188 18.449219 C 8.167969 13.199219 13.21875 9.714844 18.886719 9.636719 C 24.550781 9.558594 29.695312 12.90625 31.894531 18.09375 L 20.550781 12.773438 C 20.308594 12.664062 20.019531 12.714844 19.828125 12.90625 C 14.089844 18.757812 14.089844 28.085938 19.828125 33.941406 C 19.945312 34.0625 20.109375 34.128906 20.28125 34.128906 C 20.375 34.128906 20.46875 34.109375 20.550781 34.070312 L 31.882812 28.78125 C 29.695312 33.882812 24.667969 37.207031 19.085938 37.238281 M 20.441406 32.75 C 15.59375 27.472656 15.59375 19.394531 20.441406 14.117188 L 40.378906 23.421875 Z M 47.683594 22.792969 L 42.007812 22.792969 L 33.53125 18.832031 C 32.21875 14.703125 29.167969 11.339844 25.167969 9.613281 L 39.640625 9.613281 C 41.9375 9.617188 44.222656 9.84375 46.472656 10.285156 C 45.007812 14.429688 45.449219 19.007812 47.683594 22.800781 Z M 47.683594 22.792969 "/>
</g>
</svg>
