<svg xmlns="http://www.w3.org/2000/svg" viewBox="0 0 322.54 269.12" xmlns:v="https://vecta.io/nano"><path d="M-795.33-1279.87h4703.81v2768.84H-795.33z" fill="none" stroke="#cd2e25" stroke-miterlimit="10" stroke-width="10"/><path d="M288.51 262.89a7.5 7.5 0 0 1-5.3 2.2 49.5 49.5 0 0 1-17.41-3.18 7.5 7.5 0 0 1-1.08 3.6 7.6 7.6 0 0 1-1.1 1.42 7.52 7.52 0 0 1-5.29 2.19 48.9 48.9 0 0 1-34.78-14.4l-.66-.66-15.39-15.38a96.5 96.5 0 0 1-53.07 7.5 95.47 95.47 0 0 1-81.28-84.73l-46.94-47.67a41.65 41.65 0 0 1-8.7-45.07l-.25-.26a76 76 0 0 0-13.73-11A7.7 7.7 0 0 1 2 56.14 7.3 7.3 0 0 1 .6 54a7.51 7.51 0 0 1 4-9.85 64.7 64.7 0 0 1 45.28-2l3.33 1.21a41.27 41.27 0 0 1 32 12.27l18.85 19.15 1.34-1.4a41.36 41.36 0 0 1 19.69-11 41.22 41.22 0 0 1 30.67-30.67 41.26 41.26 0 0 1 69.34-19.64l35.15 35.15a8 8 0 0 1 .78-.94l.76-.75.63-.32a7 7 0 0 1 1.27-.63l.72-.28.64-.08h.13l.64-.16 1.05.07a5.8 5.8 0 0 1 1.24.21 7 7 0 0 1 1.26.42h.09a7.3 7.3 0 0 1 1.15.67 7 7 0 0 1 1.08.89c26.93 27.34 34.49 69.73 19.41 106.74l17 17a48.78 48.78 0 0 1 14.39 34.75 7.48 7.48 0 0 1-2.19 5.3 7.54 7.54 0 0 1-5 2.19 49.3 49.3 0 0 1 3.17 17.4 7.52 7.52 0 0 1-2.19 5.31 8 8 0 0 1-1.46 1.13 7.49 7.49 0 0 1-7.27.24 35.44 35.44 0 0 0-21.14-3.38 35 35 0 0 0 3.47 21.17 7.5 7.5 0 0 1-1.37 8.73z" fill="#cd2e25"/><path d="M267 50.89s-.08 0-.12-.08a.7.7 0 0 0-.18-.12 2 2 0 0 0-.21-.06h-.14a.6.6 0 0 0-.23 0 1 1 0 0 0-.15 0l-.15.09a.7.7 0 0 0-.18.12.5.5 0 0 0-.06.1 1 1 0 0 0-.15.22v.07a1 1 0 0 0-.07.26 32.3 32.3 0 0 1-1.52 8.51L220.5 16.67a34.78 34.78 0 0 0-59.15 20.71 34.71 34.71 0 0 0-30.66 30.67 34.52 34.52 0 0 0-25.95 16.71L80.56 60.22A34.78 34.78 0 0 0 52.19 50l-4.33-1.63a58.26 58.26 0 0 0-40.75 1.75 1 1 0 0 0-.53 1.31.9.9 0 0 0 .2.3 1 1 0 0 0 .2.17 82.6 82.6 0 0 1 14.91 12l3.4 3.68a35 35 0 0 0 5.55 41.65l48.56 49.28a89 89 0 0 0 129.41 72.28l19.3 19.27a.3.3 0 0 0 0 .07 42.4 42.4 0 0 0 30.16 12.49 1 1 0 0 0 .86-.48 1 1 0 0 0 0-1A41 41 0 0 1 255 248a42.3 42.3 0 0 0 28.18 10.63 1 1 0 0 0 .7-.29.8.8 0 0 0 .15-.18 1 1 0 0 0 0-1 41.4 41.4 0 0 1-3.18-29.64 42 42 0 0 1 29.63 3.17 1 1 0 0 0 1.46-.89 42.38 42.38 0 0 0-10.62-28.17 41.3 41.3 0 0 1 13.19 4.17 1 1 0 0 0 1.46-.89 42.37 42.37 0 0 0-12.48-30.15l-20.18-20.17c16.4-35.59 9.88-77.16-16.31-103.7m-219.8-.62a56 56 0 0 1 22.28 13.62 33 33 0 0 1-9.57 18.27 32.56 32.56 0 0 1-18 9.12 83.4 83.4 0 0 0-14.64-24.47 78 78 0 0 0-3.88-4.23A84.6 84.6 0 0 0 9.66 51.25a56.12 56.12 0 0 1 37.58-.98zm234.06 104a1 1 0 0 0 .17 1.15l20.67 20.67a40.34 40.34 0 0 1 11.9 27.17 43.5 43.5 0 0 0-15.12-3.94 1 1 0 0 0-.79 1.71A40.33 40.33 0 0 1 310 228.16a43.37 43.37 0 0 0-30.15-2.45 1 1 0 0 0-.69.69 43.47 43.47 0 0 0 2.45 30.15 40.34 40.34 0 0 1-27.13-11.88 1 1 0 0 0-1.7.79 43.2 43.2 0 0 0 3.94 15.14 40.45 40.45 0 0 1-27.09-11.83v-.06L209.82 229a1 1 0 0 0-.75-.4h-.18a.9.9 0 0 0-.33.11 87.8 87.8 0 0 1-52.91 9 86.95 86.95 0 0 1-74-77l37.25 37.89a1 1 0 1 0 1.42-1.41L81.1 157.38a2 2 0 0 0-.14-.14l-48.69-49.42a33 33 0 0 1-5.61-38.61 81.7 81.7 0 0 1 13.69 23.52 1 1 0 0 0 1.06.64 34.54 34.54 0 0 0 19.91-9.79c.06-.06.13-.12.19-.19a35.14 35.14 0 0 0 10-19.7 1 1 0 0 0-.28-.85 58.2 58.2 0 0 0-15.12-11A32.91 32.91 0 0 1 79 108l-.18.17a1 1 0 0 0 1.4 1.42 33 33 0 0 1 46.36.17l.18.18 28.47 28.89a.6.6 0 0 0 .17.11.6.6 0 0 0 .16.11h.13a1 1 0 0 0 .25 0h.37a1 1 0 0 0 .21-.14.7.7 0 0 0 .11-.07s.06-.1.1-.15a1 1 0 0 0 .12-.18A34.4 34.4 0 0 0 159 130a32.18 32.18 0 0 1 7.79 20.22 1 1 0 0 0 1 1 1.06 1.06 0 0 0 .69-.29 1 1 0 0 0 .29-.73 34.26 34.26 0 0 0-9.85-23.2 1 1 0 0 0-1.71.65 32.6 32.6 0 0 1-1.72 8.68l-27.34-27.75-.18-.18-16.2-16.44A32.76 32.76 0 0 1 163.38 85l23.06 23.06a1.3 1.3 0 0 0 .17.11.5.5 0 0 0 .16.1h.12a.8.8 0 0 0 .26 0 1.4 1.4 0 0 0 .2 0h.18a1 1 0 0 0 .24-.17s.05 0 .08-.05l.11-.16c0-.06.08-.11.11-.17a34.6 34.6 0 0 0 2.16-8.5 32.4 32.4 0 0 1 7.8 20.23 1 1 0 0 0 1 1 1 1 0 0 0 .98-1.03 34.32 34.32 0 0 0-9.89-23.22 1 1 0 0 0-1.71.64 32.1 32.1 0 0 1-1.71 8.7L159.17 78a34.9 34.9 0 0 0-19.7-9.84A32.76 32.76 0 0 1 194 54.37l23.32 23.31a1 1 0 0 0 1.41 0 1 1 0 0 0 .26-.36 34.4 34.4 0 0 0 2.16-8.5A32.22 32.22 0 0 1 229 89a1 1 0 0 0 1 1 1 1 0 0 0 .97-1.03 34.23 34.23 0 0 0-9.87-23.16 1 1 0 0 0-1.71.65 32.5 32.5 0 0 1-1.75 8.78l-27.8-27.91a34.84 34.84 0 0 0-19.71-9.83 32.76 32.76 0 0 1 54.58-13.8l38.83 38.84c0 .05.11.07.16.11l.17.11a1 1 0 0 0 .34.06h.1a1 1 0 0 0 .25 0h.1a1.3 1.3 0 0 0 .29-.19 1 1 0 0 0 .21-.32 30.7 30.7 0 0 0 2-8.3c24.4 26.05 30.14 66.09 14.14 100.31z"/></svg>