<svg xmlns="http://www.w3.org/2000/svg" viewBox="0 0 332.52 269.12" xmlns:v="https://vecta.io/nano"><path d="M-1236.03-1278.91h4703.81v2768.84h-4703.81z" fill="none" stroke="#cd2e25" stroke-miterlimit="10" stroke-width="10"/><path d="M298.49 262.89a7.53 7.53 0 0 1-5.3 2.2 49.3 49.3 0 0 1-17.42-3.19 7.5 7.5 0 0 1-1.08 3.63 8.5 8.5 0 0 1-1.1 1.4 7.42 7.42 0 0 1-5.31 2.19 48.88 48.88 0 0 1-34.76-14.4l-.67-.67-15.41-15.4A95.45 95.45 0 0 1 83.17 162l-21.76-3.37A41.18 41.18 0 0 1 38.58 147l-12.3-12.29a41.57 41.57 0 0 1-8.93-45.24l-.11-.11a76 76 0 0 0-13.71-11 6.8 6.8 0 0 1-1.32-1A7.4 7.4 0 0 1 .6 74.93a7.51 7.51 0 0 1 3.94-9.83 64.66 64.66 0 0 1 45.33-2l3 1a41.28 41.28 0 0 1 32 12l2.4 2.63 21.45 3.33a40.5 40.5 0 0 1 6.69-8.76 41.4 41.4 0 0 1 19.71-11 41.17 41.17 0 0 1 30.58-30.54 41.26 41.26 0 0 1 69.35-19.69l35.15 35.15a7 7 0 0 1 .78-.93l.71-.72.57-.29.15-.09a6.3 6.3 0 0 1 1.22-.61 7 7 0 0 1 1.32-.35l.33-.06.35-.08h1a6.6 6.6 0 0 1 1.4.22 7 7 0 0 1 2.5 1.13 6.6 6.6 0 0 1 1.08.89c26.93 27.34 34.49 69.72 19.42 106.73l17.07 17.06a48.86 48.86 0 0 1 14.39 34.74 7.43 7.43 0 0 1-2.2 5.31 7.6 7.6 0 0 1-1.44 1.13 7.4 7.4 0 0 1-3.57 1.06 49.3 49.3 0 0 1 3.17 17.41 7.5 7.5 0 0 1-10.93 6.66 35.56 35.56 0 0 0-21.14-3.43 35 35 0 0 0 3.47 21.17 7.55 7.55 0 0 1-.28 7.35 7.4 7.4 0 0 1-1.08 1.37" fill="#cd2e25"/><path d="M277 50.89s-.08 0-.12-.08a.7.7 0 0 0-.18-.12.6.6 0 0 0-.21-.06h-.14a.6.6 0 0 0-.23 0 .8.8 0 0 0-.16 0l-.14.08a.8.8 0 0 0-.19.13 1 1 0 0 1-.08.12 2 2 0 0 0-.11.18.6.6 0 0 0-.06.22v.13A32.8 32.8 0 0 1 273.8 60l-43.35-43.33a34.77 34.77 0 0 0-59.14 20.71A34.7 34.7 0 0 0 140.65 68a34.94 34.94 0 0 0-20.72 10 34.4 34.4 0 0 0-7.55 11.33l-28.71-4.46a33.4 33.4 0 0 0-3.47-4.06 34.74 34.74 0 0 0-28.33-10l-4-1.47a58.2 58.2 0 0 0-40.76 1.73 1 1 0 0 0-.53 1.31 1.1 1.1 0 0 0 .22.33l.18.14a82.5 82.5 0 0 1 14.91 12l3.25 3.5a34.89 34.89 0 0 0 5.74 41.8l12.3 12.3a34.7 34.7 0 0 0 19.22 9.79l26.82 4.15a88.95 88.95 0 0 0 129.53 74.39l19.33 19.32a42.44 42.44 0 0 0 30.16 12.49 1 1 0 0 0 .9-1.45A41.7 41.7 0 0 1 265 248a42.37 42.37 0 0 0 28.17 10.64 1 1 0 0 0 .71-.3.9.9 0 0 0 .14-.18 1 1 0 0 0 0-1 41.5 41.5 0 0 1-3.18-29.64 42 42 0 0 1 29.63 3.17 1 1 0 0 0 1.46-.88 42.3 42.3 0 0 0-10.62-28.18 41.3 41.3 0 0 1 13.2 4.17 1 1 0 0 0 1 0 1 1 0 0 0 .48-.85 42.37 42.37 0 0 0-12.49-30.15l-20.19-20.19C309.66 119 303.14 77.43 277 50.89M47.24 71.21c1.5.49 2.85 1 4.1 1.51a55.6 55.6 0 0 1 18.14 12.12 33.08 33.08 0 0 1-9.57 18.27 32.6 32.6 0 0 1-18 9.11 84.1 84.1 0 0 0-14.6-24.43l-.12-.14-.05-.06c-1.08-1.28-2.3-2.6-3.83-4.16A84.6 84.6 0 0 0 9.66 72.19a56.24 56.24 0 0 1 37.58-.98m244 83.13a.8.8 0 0 0-.05.21 1 1 0 0 0 0 .17.4.4 0 0 0 0 .18 1 1 0 0 0 0 .19.7.7 0 0 0 .09.14 1 1 0 0 0 .12.19l20.68 20.67A40.36 40.36 0 0 1 324 203.26a43.2 43.2 0 0 0-15.12-3.93 1 1 0 0 0-.79 1.7A40.3 40.3 0 0 1 320 228.16a44 44 0 0 0-30.14-2.44 1 1 0 0 0-.69.69 43.4 43.4 0 0 0 2.44 30.14 40.33 40.33 0 0 1-27.12-11.88 1 1 0 0 0-1.71.79 43.9 43.9 0 0 0 3.94 15.14 40.4 40.4 0 0 1-27.1-11.85l-19.72-19.67a1 1 0 0 0-1.2-.51l-.15.06h-.05a87 87 0 0 1-127.24-72l9.28 1.45 29 40.56a1 1 0 0 0 1.4.23l.12-.11a1 1 0 0 0 .11-1.28l-29.23-40.91a.92.92 0 0 0-.65-.4l-10.9-1.69-27.61-4.28a32.75 32.75 0 0 1-18.19-9.2l-12.3-12.29A32.91 32.91 0 0 1 26.51 90a81.9 81.9 0 0 1 13.84 23.7 1 1 0 0 0 1.06.64 34.58 34.58 0 0 0 19.91-9.78c.06-.07.13-.13.2-.2a35.2 35.2 0 0 0 10-19.69 1 1 0 0 0-.28-.85 57.8 57.8 0 0 0-15.43-11.2 32.75 32.75 0 0 1 23 9.63 34 34 0 0 1 3.52 4.17 33 33 0 0 1 4.62 29 .8.8 0 0 0-.05.3 1 1 0 0 0 0 .15.7.7 0 0 0 .07.24.1.1 0 0 0 .05.08 1.4 1.4 0 0 0 .13.2h.06a1 1 0 0 0 .84.2l.21-.09.09-.06a.8.8 0 0 0 .15-.09 1.2 1.2 0 0 0 .22-.37v-.12a33.07 33.07 0 0 1 36.51-22.52 32.64 32.64 0 0 1 21.47 13.16 1 1 0 0 0 .31.27.87.87 0 0 0 .15.47l20.48 29.62a1 1 0 0 0 .11.1 1 1 0 0 0 .18.17h.05a.9.9 0 0 0 .31.12h.19a.7.7 0 0 0 .2 0 .8.8 0 0 0 .32-.14.7.7 0 0 0 .13-.11l.08-.1.06-.07a34 34 0 0 0 3.68-8 32.3 32.3 0 0 1 4 21.31 1 1 0 0 0 1.69.87 1 1 0 0 0 .28-.55 34.24 34.24 0 0 0-5.48-24.63 1 1 0 0 0-1.8.32 32 32 0 0 1-3.27 8.24L149 106.13a1.3 1.3 0 0 0-.32-.29 1 1 0 0 0-.18-.49 34.65 34.65 0 0 0-22.77-14l-3.33-.52a32.74 32.74 0 0 1 51-5.83l23.06 23.06a13 13 0 0 1 .33.21h.09a1 1 0 0 0 .29 0 .7.7 0 0 0 .2 0 1 1 0 0 0 .18 0 1 1 0 0 0 .25-.17l.07-.05s.06-.1.1-.15a2 2 0 0 0 .12-.18 34.6 34.6 0 0 0 2.16-8.5 32.1 32.1 0 0 1 7.86 20.11 1 1 0 1 0 2-.05 34.2 34.2 0 0 0-10-23.1A1 1 0 0 0 199 96a1 1 0 0 0-.65.88 32.1 32.1 0 0 1-1.71 8.7l-27.15-27.21a1 1 0 0 0-.23-.37l-.07-.07a35 35 0 0 0-19.75-9.81A32.76 32.76 0 0 1 204 54.37l23.31 23.31.18.11a.7.7 0 0 0 .15.1h.11a.8.8 0 0 0 .27 0 1 1 0 0 0 .18 0h.19a1.3 1.3 0 0 0 .24-.16s.06 0 .08-.06a1 1 0 0 0 .11-.15 1 1 0 0 0 .11-.18 34.2 34.2 0 0 0 2.15-8.49A32 32 0 0 1 239 89a1 1 0 0 0 1 1 1 1 0 0 0 .97-1.03A34.14 34.14 0 0 0 231 65.81a1 1 0 0 0-1.71.65 32.8 32.8 0 0 1-1.71 8.68l-27.79-27.81a34.9 34.9 0 0 0-19.7-9.83 32.75 32.75 0 0 1 54.57-13.8l38.84 38.84a1 1 0 0 0 .18.12 1 1 0 0 0 .48.16h.1a1 1 0 0 0 .25 0h.1a1.3 1.3 0 0 0 .29-.19 1 1 0 0 0 .21-.32 30.7 30.7 0 0 0 2-8.3c24.41 26.05 30.14 66.1 14.13 100.33"/></svg>