<?xml version="1.0" encoding="UTF-8"?>
<svg xmlns="http://www.w3.org/2000/svg" xmlns:xlink="http://www.w3.org/1999/xlink" width="px" height="px" viewBox="0 0 265 155" version="1.1">
<g id="surface1">
<path style=" stroke:none;fill-rule:nonzero;fill:rgb(0%,0%,0%);fill-opacity:1;" d="M 17.855469 154.90625 C 18.003906 154.90625 18.207031 154.957031 18.355469 154.957031 L 34.464844 154.957031 C 43.941406 154.957031 52.871094 150.707031 58.957031 143.460938 L 206.09375 143.460938 C 212.179688 150.707031 221.109375 154.90625 230.585938 154.957031 L 246.695312 154.957031 C 246.84375 154.957031 247.042969 154.957031 247.195312 154.90625 C 255.574219 154.605469 262.15625 147.558594 261.859375 139.164062 C 261.808594 137.617188 261.507812 136.015625 260.960938 134.566406 C 260.960938 134.566406 260.960938 134.519531 260.960938 134.519531 L 260.960938 134.46875 C 260.3125 132.71875 259.363281 131.121094 258.167969 129.71875 C 260.910156 127.921875 263.003906 125.324219 264.152344 122.226562 L 264.152344 122.125 C 266.296875 116.226562 264.550781 109.632812 259.8125 105.535156 C 261.757812 103.835938 263.253906 101.6875 264.101562 99.289062 L 264.101562 99.1875 C 265.300781 95.839844 265.300781 92.140625 264.050781 88.792969 C 262.65625 84.996094 259.8125 81.949219 256.171875 80.25 L 257.96875 78.800781 C 258.214844 78.75 258.464844 78.699219 258.714844 78.597656 C 259.761719 78.199219 260.5625 77.398438 260.910156 76.402344 C 262.105469 73.101562 262.15625 69.453125 260.960938 66.105469 C 260.960938 66.105469 260.960938 66.054688 260.960938 66.054688 C 260.960938 66.007812 260.960938 66.007812 260.960938 66.007812 L 260.960938 65.957031 C 260.960938 65.90625 260.910156 65.90625 260.910156 65.855469 L 260.859375 65.757812 C 258.617188 59.859375 252.980469 56.011719 246.695312 55.960938 L 230.484375 55.960938 C 229.136719 55.960938 227.792969 56.0625 226.496094 56.210938 C 221.90625 49.214844 212.480469 47.316406 205.496094 51.914062 C 204.050781 52.863281 202.800781 54.0625 201.753906 55.414062 L 200.558594 55.664062 C 199.859375 52.265625 198.910156 48.964844 197.714844 45.71875 C 210.535156 37.871094 218.714844 24.230469 219.511719 9.1875 C 219.511719 9.136719 219.511719 9.136719 219.511719 9.089844 C 219.5625 8.339844 219.5625 7.589844 219.5625 6.839844 C 219.5625 4.792969 217.867188 3.09375 215.820312 3.09375 L 153.273438 3.09375 C 139.707031 -1.003906 125.242188 -1.003906 111.675781 3.09375 L 49.128906 3.09375 C 47.085938 3.09375 45.386719 4.792969 45.386719 6.839844 C 45.386719 7.589844 45.386719 8.390625 45.4375 9.1875 C 46.238281 24.230469 54.367188 37.921875 67.234375 45.71875 C 66.039062 48.964844 65.089844 52.265625 64.34375 55.613281 L 63.144531 55.363281 C 61.5 53.164062 59.253906 51.464844 56.710938 50.464844 C 56.511719 50.367188 56.261719 50.265625 56.0625 50.214844 C 49.527344 47.964844 42.296875 50.414062 38.503906 56.160156 C 37.160156 56.011719 35.8125 55.914062 34.464844 55.914062 L 18.253906 55.914062 C 11.871094 55.914062 6.183594 59.859375 3.988281 65.855469 L 3.988281 65.957031 C 2.09375 71.203125 3.242188 77.101562 6.984375 81.246094 C 1.046875 85.046875 -1.496094 92.492188 0.898438 99.136719 L 0.898438 99.238281 C 1.796875 101.636719 3.292969 103.785156 5.1875 105.484375 C 0.449219 109.582031 -1.296875 116.179688 0.847656 122.074219 L 0.847656 122.175781 C 1.996094 125.273438 4.089844 127.871094 6.832031 129.671875 C 1.347656 136.015625 1.996094 145.613281 8.28125 151.109375 C 10.921875 153.457031 14.265625 154.804688 17.855469 154.90625 Z M 17.855469 154.90625 "/>
<path style=" stroke:none;fill-rule:nonzero;fill:rgb(80.392158%,18.039216%,14.509805%);fill-opacity:1;" d="M 153.523438 66.855469 C 154.222656 66.855469 154.820312 66.304688 154.820312 65.558594 C 154.820312 64.808594 154.273438 64.257812 153.523438 64.257812 C 152.824219 64.257812 152.226562 64.808594 152.226562 65.558594 C 152.226562 66.257812 152.824219 66.804688 153.523438 66.855469 Z M 153.523438 66.855469 "/>
<path style=" stroke:none;fill-rule:nonzero;fill:rgb(80.392158%,18.039216%,14.509805%);fill-opacity:1;" d="M 111.476562 66.855469 C 112.175781 66.855469 112.773438 66.304688 112.773438 65.558594 C 112.773438 64.855469 112.226562 64.257812 111.476562 64.257812 C 110.777344 64.257812 110.179688 64.808594 110.179688 65.558594 C 110.179688 66.257812 110.726562 66.855469 111.476562 66.855469 Z M 111.476562 66.855469 "/>
<path style=" stroke:none;fill-rule:nonzero;fill:rgb(80.392158%,18.039216%,14.509805%);fill-opacity:1;" d="M 150.628906 47.117188 C 150.730469 47.117188 150.878906 47.066406 150.980469 47.015625 L 157.5625 41.121094 C 157.214844 43.667969 157.714844 46.367188 158.960938 48.117188 L 159.011719 48.117188 C 160.605469 45.867188 160.957031 42.019531 159.90625 39.023438 L 171.679688 28.476562 C 171.878906 28.328125 171.929688 27.976562 171.777344 27.777344 C 171.628906 27.578125 171.28125 27.527344 171.082031 27.679688 C 171.03125 27.679688 171.03125 27.726562 170.980469 27.726562 L 150.332031 46.316406 C 150.132812 46.515625 150.132812 46.816406 150.28125 47.015625 C 150.382812 47.015625 150.480469 47.117188 150.628906 47.117188 Z M 150.628906 47.117188 "/>
<path style=" stroke:none;fill-rule:nonzero;fill:rgb(80.392158%,18.039216%,14.509805%);fill-opacity:1;" d="M 105.140625 38.972656 C 104.09375 41.96875 104.445312 45.867188 106.039062 48.066406 L 106.089844 48.066406 C 107.335938 46.316406 107.835938 43.621094 107.488281 41.070312 L 114.070312 46.96875 C 114.269531 47.167969 114.570312 47.117188 114.769531 46.917969 C 114.96875 46.71875 114.917969 46.417969 114.71875 46.21875 L 94.019531 27.628906 C 93.820312 27.429688 93.519531 27.429688 93.320312 27.628906 C 93.121094 27.828125 93.121094 28.128906 93.320312 28.328125 C 93.320312 28.328125 93.371094 28.378906 93.371094 28.378906 Z M 105.140625 38.972656 "/>
<path style=" stroke:none;fill-rule:nonzero;fill:rgb(80.392158%,18.039216%,14.509805%);fill-opacity:1;" d="M 253.179688 105.535156 C 259.511719 103.683594 263.105469 97.039062 261.257812 90.691406 C 259.914062 86.144531 256.023438 82.796875 251.332031 82.199219 C 257.21875 79.699219 260.113281 73.050781 257.96875 67.054688 C 256.222656 62.359375 251.734375 59.261719 246.746094 59.210938 L 230.535156 59.210938 C 228.589844 59.210938 226.695312 59.410156 224.796875 59.808594 C 222.15625 53.761719 215.074219 51.066406 209.085938 53.714844 C 206.890625 54.664062 205.046875 56.3125 203.75 58.359375 L 198.0625 59.660156 L 198.015625 59.308594 L 198.015625 59.261719 C 197.214844 54.164062 195.769531 49.164062 193.773438 44.367188 C 206.992188 37.421875 215.570312 24.03125 216.371094 9.089844 C 216.417969 8.339844 216.417969 7.589844 216.417969 6.890625 C 216.417969 6.589844 216.21875 6.390625 215.921875 6.390625 L 152.824219 6.390625 C 139.609375 2.292969 125.390625 2.292969 112.175781 6.390625 L 49.128906 6.390625 C 48.832031 6.390625 48.628906 6.589844 48.628906 6.890625 C 48.628906 7.589844 48.628906 8.339844 48.679688 9.089844 C 49.480469 24.03125 58.058594 37.421875 71.273438 44.367188 C 69.230469 49.164062 67.832031 54.164062 66.984375 59.308594 L 66.9375 59.660156 C 66.9375 59.660156 66.9375 59.710938 66.9375 59.710938 L 61.25 58.410156 C 59.851562 56.160156 57.757812 54.464844 55.3125 53.511719 C 55.265625 53.464844 55.214844 53.464844 55.164062 53.464844 C 49.277344 51.316406 42.746094 54.113281 40.203125 59.859375 C 38.304688 59.460938 36.410156 59.261719 34.464844 59.261719 L 18.253906 59.261719 C 13.265625 59.261719 8.777344 62.410156 7.03125 67.105469 C 6.535156 68.40625 6.285156 69.804688 6.285156 71.203125 C 6.285156 76.050781 9.175781 80.398438 13.617188 82.246094 C 7.132812 83.046875 2.492188 89.042969 3.34375 95.589844 C 3.941406 100.289062 7.28125 104.183594 11.820312 105.535156 C 5.488281 107.382812 1.894531 114.03125 3.742188 120.375 C 5.039062 124.824219 8.828125 128.121094 13.417969 128.820312 C 7.433594 131.570312 4.789062 138.664062 7.53125 144.660156 C 9.476562 148.910156 13.667969 151.609375 18.304688 151.65625 C 18.355469 151.65625 18.40625 151.65625 18.40625 151.65625 L 34.515625 151.65625 C 43.542969 151.65625 52.023438 147.359375 57.410156 140.164062 L 207.691406 140.164062 C 213.128906 147.359375 221.605469 151.609375 230.585938 151.65625 L 246.695312 151.65625 C 246.746094 151.65625 246.792969 151.65625 246.792969 151.65625 C 253.378906 151.609375 258.664062 146.160156 258.617188 139.566406 C 258.566406 134.917969 255.871094 130.71875 251.632812 128.820312 C 258.167969 127.820312 262.65625 121.726562 261.65625 115.230469 C 260.910156 110.632812 257.617188 106.882812 253.179688 105.535156 Z M 260.011719 90.09375 C 259.511719 91.441406 258.714844 92.640625 257.769531 93.691406 C 257.566406 93.890625 257.566406 94.191406 257.769531 94.390625 C 258.765625 95.441406 259.511719 96.640625 260.011719 97.988281 C 257.816406 103.636719 251.484375 106.433594 245.847656 104.285156 C 243.054688 103.234375 240.859375 101.035156 239.710938 98.289062 L 248.640625 102.484375 C 248.691406 102.535156 248.789062 102.535156 248.839844 102.535156 C 248.988281 102.535156 249.089844 102.484375 249.1875 102.386719 C 253.679688 97.738281 253.679688 90.34375 249.1875 85.695312 C 249.039062 85.546875 248.789062 85.496094 248.640625 85.59375 L 239.710938 89.792969 C 241.207031 86.195312 244.550781 83.648438 248.441406 83.148438 C 248.890625 83.097656 249.339844 83.046875 249.789062 83.046875 C 254.328125 83.097656 258.367188 85.894531 260.011719 90.09375 Z M 239.0625 119.824219 L 233.027344 116.976562 L 248.738281 109.582031 C 252.53125 113.78125 252.53125 120.175781 248.738281 124.375 Z M 231.632812 116.527344 C 231.382812 116.628906 231.28125 116.925781 231.382812 117.175781 C 231.433594 117.277344 231.53125 117.378906 231.632812 117.425781 L 238.414062 120.625 C 239.460938 123.824219 241.757812 126.472656 244.847656 127.871094 C 240.359375 128.570312 236.667969 131.71875 235.273438 136.066406 L 228.589844 139.214844 L 36.410156 139.214844 L 29.726562 136.066406 C 28.332031 131.769531 24.640625 128.570312 20.152344 127.871094 C 23.191406 126.472656 25.539062 123.824219 26.585938 120.625 L 33.367188 117.425781 C 33.617188 117.328125 33.71875 117.027344 33.617188 116.777344 C 33.566406 116.679688 33.46875 116.578125 33.367188 116.527344 L 26.585938 113.328125 C 25.335938 109.582031 22.34375 106.632812 18.554688 105.535156 C 22.34375 104.386719 25.335938 101.488281 26.585938 97.738281 L 33.367188 94.539062 C 33.566406 94.441406 33.667969 94.289062 33.667969 94.089844 C 33.667969 93.890625 33.566406 93.742188 33.367188 93.640625 L 26.585938 90.441406 C 25.539062 87.09375 23.042969 84.394531 19.800781 83.046875 C 24.390625 82.445312 28.179688 79.25 29.628906 74.851562 L 36.3125 71.703125 L 41.449219 71.703125 C 42.945312 73.753906 45.089844 75.300781 47.484375 76.101562 L 50.675781 82.898438 C 50.777344 83.148438 51.074219 83.246094 51.324219 83.148438 C 51.425781 83.097656 51.523438 82.996094 51.574219 82.898438 L 54.765625 76.101562 C 57.160156 75.300781 59.253906 73.800781 60.75 71.753906 L 204.199219 71.753906 C 205.695312 73.800781 207.789062 75.300781 210.183594 76.101562 L 213.375 82.898438 C 213.476562 83.148438 213.777344 83.246094 214.023438 83.148438 C 214.125 83.097656 214.222656 82.996094 214.273438 82.898438 L 217.464844 76.101562 C 219.910156 75.300781 222.003906 73.800781 223.5 71.703125 L 228.640625 71.703125 L 235.324219 74.851562 C 236.769531 79.25 240.609375 82.445312 245.199219 83.046875 C 241.957031 84.394531 239.460938 87.09375 238.414062 90.441406 L 231.632812 93.640625 C 231.480469 93.742188 231.332031 93.890625 231.332031 94.089844 C 231.332031 94.289062 231.433594 94.441406 231.632812 94.539062 L 238.414062 97.738281 C 239.664062 101.488281 242.65625 104.433594 246.445312 105.535156 C 242.65625 106.683594 239.664062 109.582031 238.414062 113.378906 Z M 235.871094 142.511719 L 229.835938 139.664062 L 245.546875 132.269531 C 249.339844 136.464844 249.339844 142.863281 245.546875 147.0625 Z M 19.402344 147.0625 C 15.613281 142.863281 15.613281 136.464844 19.402344 132.269531 L 29.078125 136.816406 L 35.113281 139.664062 Z M 25.9375 114.179688 L 31.972656 116.976562 L 16.261719 124.375 C 12.46875 120.175781 12.46875 113.78125 16.261719 109.582031 Z M 25.9375 91.242188 L 31.972656 94.089844 L 16.261719 101.488281 C 12.46875 97.289062 12.46875 90.890625 16.261719 86.695312 Z M 28.929688 68.304688 L 35.015625 71.152344 L 19.300781 78.550781 C 15.511719 74.351562 15.511719 67.957031 19.300781 63.757812 Z M 53.96875 75.402344 L 51.125 81.449219 L 48.28125 75.449219 C 48.28125 75.449219 48.28125 75.402344 48.230469 75.402344 L 43.691406 65.707031 C 47.882812 61.910156 54.265625 61.910156 58.457031 65.707031 Z M 100.15625 67.804688 C 101.652344 62.808594 106.191406 59.359375 111.425781 59.359375 L 119.058594 59.359375 C 119.058594 59.410156 119.058594 59.410156 119.058594 59.460938 C 119.058594 60.308594 119.257812 61.109375 119.65625 61.859375 C 119.90625 62.359375 120.253906 62.757812 120.652344 63.15625 C 121.101562 63.558594 121.550781 63.90625 122 64.257812 L 123.894531 65.605469 L 124.695312 66.15625 C 125.792969 66.957031 126.890625 67.707031 128.035156 68.503906 L 129.332031 69.453125 L 129.382812 69.503906 L 131.078125 70.753906 L 118.210938 70.753906 C 117.960938 70.105469 117.261719 69.753906 116.5625 69.953125 C 116.214844 70.105469 115.914062 70.355469 115.765625 70.753906 L 107.136719 70.753906 C 106.886719 70.105469 106.191406 69.753906 105.492188 69.953125 C 105.140625 70.105469 104.84375 70.355469 104.691406 70.753906 L 99.707031 70.753906 C 99.753906 69.703125 99.90625 68.703125 100.15625 67.804688 Z M 124.09375 55.3125 L 140.855469 55.3125 C 142.648438 55.3125 144.246094 56.460938 144.746094 58.210938 C 144.792969 58.410156 144.84375 58.660156 144.894531 58.859375 C 144.894531 59.011719 144.945312 59.210938 144.945312 59.410156 C 144.945312 60.058594 144.792969 60.710938 144.496094 61.308594 C 144.347656 61.558594 144.195312 61.808594 143.996094 62.007812 C 143.097656 61.308594 142 60.960938 140.90625 60.960938 L 124.195312 60.960938 C 123.046875 60.960938 121.949219 61.308594 121.101562 62.007812 C 120.902344 61.808594 120.753906 61.558594 120.605469 61.308594 C 120.304688 60.710938 120.15625 60.058594 120.15625 59.410156 C 120.15625 59.261719 120.15625 59.058594 120.207031 58.910156 C 120.207031 58.910156 120.207031 58.910156 120.207031 58.859375 C 120.207031 58.609375 120.253906 58.410156 120.355469 58.210938 C 120.753906 56.511719 122.351562 55.363281 124.09375 55.3125 Z M 153.523438 59.308594 C 159.859375 59.261719 165.046875 64.308594 165.246094 70.605469 L 160.257812 70.605469 C 160.007812 69.953125 159.308594 69.605469 158.609375 69.804688 C 158.261719 69.953125 157.960938 70.203125 157.8125 70.605469 L 149.183594 70.605469 C 148.933594 69.953125 148.238281 69.605469 147.539062 69.804688 C 147.1875 69.953125 146.890625 70.203125 146.738281 70.605469 L 133.820312 70.605469 C 133.871094 70.554688 133.921875 70.503906 134.019531 70.453125 C 134.871094 69.855469 135.71875 69.253906 136.566406 68.65625 L 136.914062 68.40625 L 140.257812 66.054688 L 142.949219 64.15625 C 143.449219 63.808594 143.898438 63.457031 144.296875 63.058594 C 144.695312 62.707031 145.042969 62.257812 145.292969 61.757812 C 145.691406 61.007812 145.890625 60.210938 145.890625 59.359375 L 145.890625 59.261719 L 153.523438 59.261719 Z M 213.824219 81.398438 L 206.492188 65.707031 C 210.683594 61.910156 217.066406 61.910156 221.257812 65.707031 Z M 245.648438 63.757812 C 249.4375 67.957031 249.4375 74.351562 245.648438 78.550781 L 235.972656 74.003906 L 229.9375 71.152344 Z M 239.015625 96.890625 L 232.980469 94.039062 L 248.691406 86.644531 C 252.480469 90.84375 252.480469 97.238281 248.691406 101.4375 Z M 256.917969 67.207031 C 256.421875 68.554688 255.621094 69.753906 254.675781 70.804688 C 254.476562 71.003906 254.476562 71.304688 254.675781 71.503906 C 255.671875 72.554688 256.421875 73.753906 256.917969 75.101562 C 255.523438 78.800781 252.179688 81.449219 248.289062 81.996094 C 247.792969 82.046875 247.242188 82.097656 246.746094 82.097656 C 242.355469 82.097656 238.367188 79.449219 236.667969 75.402344 L 245.597656 79.597656 C 245.648438 79.648438 245.746094 79.648438 245.796875 79.648438 C 245.945312 79.648438 246.046875 79.597656 246.144531 79.5 C 250.636719 74.851562 250.636719 67.457031 246.144531 62.808594 C 245.996094 62.660156 245.746094 62.609375 245.597656 62.707031 L 236.667969 66.90625 C 239.0625 61.308594 245.496094 58.710938 251.085938 61.109375 C 253.726562 62.257812 255.871094 64.457031 256.917969 67.207031 Z M 241.90625 60.160156 C 238.765625 61.558594 236.371094 64.207031 235.324219 67.503906 L 228.640625 70.652344 L 224.148438 70.652344 C 225.894531 67.65625 226.246094 64.007812 225.097656 60.710938 C 226.84375 60.359375 228.6875 60.160156 230.484375 60.160156 Z M 205.195312 58.011719 C 206.394531 56.410156 208.039062 55.164062 209.933594 54.414062 C 211.28125 54.914062 212.480469 55.710938 213.527344 56.660156 C 213.726562 56.863281 214.023438 56.863281 214.222656 56.660156 C 215.273438 55.664062 216.46875 54.914062 217.816406 54.363281 C 223.453125 56.511719 226.296875 62.859375 224.148438 68.503906 C 223.851562 69.355469 223.402344 70.105469 222.902344 70.855469 C 221.707031 72.554688 220.058594 73.902344 218.113281 74.75 L 222.304688 65.804688 C 222.40625 65.605469 222.355469 65.355469 222.203125 65.257812 C 217.566406 60.757812 210.183594 60.757812 205.546875 65.257812 C 205.394531 65.40625 205.347656 65.65625 205.445312 65.804688 L 209.636719 74.75 C 207.742188 73.953125 206.09375 72.601562 204.898438 70.902344 C 204.898438 70.902344 204.898438 70.902344 204.847656 70.855469 C 204.847656 70.804688 204.796875 70.804688 204.796875 70.804688 C 204.796875 70.804688 204.746094 70.753906 204.746094 70.753906 L 204.648438 70.703125 C 204.597656 70.703125 204.597656 70.703125 204.546875 70.703125 L 202.953125 70.703125 L 202.953125 64.757812 C 202.953125 64.707031 202.953125 64.707031 202.953125 64.65625 L 202.953125 64.605469 C 202.953125 62.707031 203.449219 60.859375 204.398438 59.210938 M 201.90625 64.457031 C 201.90625 64.507812 201.90625 64.558594 201.90625 64.558594 L 201.90625 70.652344 L 166.292969 70.652344 C 166.242188 69.753906 166.140625 68.90625 165.941406 68.003906 L 197.765625 60.710938 L 197.816406 60.710938 L 203.152344 59.511719 C 202.355469 61.058594 201.953125 62.757812 201.90625 64.457031 Z M 193.324219 43.417969 C 189.085938 33.726562 182.703125 25.179688 174.621094 18.382812 C 185.542969 8.238281 201.105469 4.839844 215.320312 9.4375 C 214.375 23.78125 206.042969 36.671875 193.324219 43.417969 Z M 49.679688 9.4375 C 63.84375 4.839844 79.40625 8.238281 90.378906 18.382812 C 82.296875 25.179688 75.914062 33.773438 71.675781 43.417969 C 58.90625 36.722656 50.574219 23.78125 49.679688 9.4375 Z M 67.882812 59.761719 L 67.933594 59.410156 C 68.730469 54.363281 70.128906 49.464844 72.125 44.769531 C 74.019531 45.71875 75.964844 46.515625 77.957031 47.117188 C 78.007812 47.117188 78.058594 47.117188 78.109375 47.117188 C 78.308594 47.117188 78.507812 47.015625 78.558594 46.816406 C 78.558594 46.816406 78.558594 46.816406 78.558594 46.765625 C 78.558594 46.765625 78.558594 46.71875 78.558594 46.71875 C 78.558594 46.667969 78.605469 46.617188 78.605469 46.617188 C 79.105469 36.171875 83.546875 26.277344 91.078125 18.984375 L 117.460938 42.71875 C 117.511719 42.71875 117.511719 42.769531 117.5625 42.769531 C 117.5625 42.769531 117.613281 42.769531 117.613281 42.820312 C 117.660156 42.820312 117.710938 42.871094 117.761719 42.871094 C 117.8125 42.871094 117.910156 42.871094 117.960938 42.820312 C 117.960938 42.820312 118.011719 42.769531 118.011719 42.769531 C 118.058594 42.769531 118.109375 42.71875 118.109375 42.667969 L 120.003906 40.472656 C 120.503906 39.871094 121.101562 39.171875 121.703125 38.421875 C 123.894531 35.773438 126.488281 32.625 128.433594 30.328125 C 128.632812 30.125 128.585938 29.777344 128.386719 29.628906 C 128.1875 29.425781 127.835938 29.476562 127.6875 29.675781 C 125.839844 31.875 123.398438 34.824219 121.253906 37.371094 L 110.328125 27.578125 C 110.128906 27.378906 109.832031 27.378906 109.632812 27.628906 C 109.429688 27.828125 109.429688 28.128906 109.679688 28.328125 L 120.652344 38.171875 L 119.257812 39.820312 L 117.8125 41.570312 L 91.425781 17.882812 C 91.425781 17.882812 91.375 17.832031 91.375 17.832031 C 85.839844 12.585938 78.957031 8.890625 71.476562 7.289062 L 80.601562 7.289062 C 87.335938 7.289062 93.96875 8.9375 99.90625 12.085938 C 99.953125 12.136719 100.054688 12.136719 100.15625 12.136719 C 100.253906 12.136719 100.355469 12.136719 100.402344 12.085938 C 100.554688 11.988281 100.652344 11.835938 100.652344 11.636719 L 100.652344 7.289062 L 112.226562 7.289062 C 119.207031 7.289062 126.089844 9.039062 132.226562 12.488281 C 132.324219 12.535156 132.375 12.535156 132.476562 12.535156 C 132.574219 12.535156 132.625 12.535156 132.722656 12.488281 C 138.859375 9.089844 145.742188 7.289062 152.726562 7.289062 L 164.246094 7.289062 L 164.246094 11.636719 C 164.246094 11.9375 164.445312 12.136719 164.746094 12.136719 C 164.84375 12.136719 164.894531 12.136719 164.996094 12.085938 C 167.886719 10.539062 170.980469 9.339844 174.171875 8.539062 C 177.464844 7.6875 180.855469 7.289062 184.296875 7.289062 L 193.425781 7.289062 C 185.945312 8.9375 179.011719 12.585938 173.472656 17.882812 L 173.472656 18.035156 L 147.1875 41.671875 L 145.691406 39.921875 L 144.296875 38.273438 L 155.21875 28.425781 C 155.46875 28.277344 155.519531 27.976562 155.367188 27.726562 C 155.21875 27.476562 154.921875 27.429688 154.671875 27.578125 C 154.621094 27.578125 154.621094 27.628906 154.570312 27.679688 L 143.648438 37.472656 C 141.554688 34.925781 139.058594 31.976562 137.214844 29.777344 C 137.0625 29.578125 136.765625 29.476562 136.515625 29.675781 C 136.316406 29.828125 136.214844 30.125 136.414062 30.375 C 136.414062 30.375 136.464844 30.425781 136.464844 30.425781 C 138.410156 32.726562 141.054688 35.875 143.199219 38.523438 C 143.796875 39.222656 144.394531 39.921875 144.894531 40.570312 L 146.691406 42.71875 C 146.738281 42.769531 146.738281 42.769531 146.789062 42.820312 C 146.789062 42.820312 146.839844 42.871094 146.839844 42.871094 C 146.890625 42.917969 146.988281 42.917969 147.039062 42.917969 C 147.089844 42.917969 147.140625 42.917969 147.1875 42.871094 C 147.1875 42.871094 147.238281 42.871094 147.238281 42.820312 C 147.289062 42.820312 147.289062 42.769531 147.339844 42.769531 L 173.824219 19.03125 C 181.355469 26.277344 185.792969 36.171875 186.292969 46.617188 C 186.292969 46.667969 186.292969 46.71875 186.34375 46.71875 C 186.34375 46.71875 186.34375 46.765625 186.34375 46.765625 C 186.34375 46.765625 186.34375 46.765625 186.34375 46.816406 C 186.441406 47.015625 186.59375 47.117188 186.792969 47.117188 C 186.839844 47.117188 186.890625 47.117188 186.941406 47.117188 C 188.9375 46.46875 190.882812 45.667969 192.777344 44.769531 C 194.773438 49.464844 196.21875 54.363281 197.015625 59.410156 L 197.015625 59.460938 L 197.066406 59.859375 L 165.59375 67.054688 C 163.847656 61.859375 159.011719 58.359375 153.523438 58.359375 L 145.792969 58.359375 C 145.742188 58.261719 145.742188 58.109375 145.691406 58.011719 C 145.644531 54.613281 144.894531 51.316406 143.496094 48.265625 C 144.347656 49.164062 145.292969 49.964844 146.339844 50.664062 C 150.03125 53.164062 154.421875 54.511719 158.910156 54.5625 C 164.945312 54.5625 170.433594 52.164062 175.070312 47.515625 C 175.269531 47.316406 175.269531 47.015625 175.070312 46.816406 C 174.871094 46.617188 174.570312 46.617188 174.371094 46.816406 C 169.882812 51.316406 164.695312 53.5625 158.910156 53.5625 C 154.621094 53.511719 150.429688 52.214844 146.890625 49.816406 C 144.546875 48.214844 142.800781 46.167969 140.953125 43.917969 L 140.257812 43.070312 C 140.207031 42.96875 140.105469 42.871094 140.007812 42.769531 L 139.957031 42.71875 C 139.855469 42.621094 139.757812 42.570312 139.609375 42.570312 C 139.558594 42.570312 139.507812 42.570312 139.457031 42.570312 L 139.40625 42.570312 C 139.359375 42.570312 139.257812 42.621094 139.207031 42.667969 C 139.007812 42.871094 138.960938 43.167969 139.160156 43.371094 C 139.257812 43.46875 139.359375 43.621094 139.457031 43.71875 C 142.300781 47.265625 144.097656 51.566406 144.546875 56.0625 C 143.597656 54.960938 142.203125 54.363281 140.753906 54.363281 L 123.996094 54.363281 C 122.550781 54.363281 121.203125 54.960938 120.207031 56.011719 C 120.652344 51.515625 122.449219 47.21875 125.292969 43.667969 C 125.390625 43.570312 125.492188 43.417969 125.59375 43.320312 C 125.792969 43.121094 125.742188 42.820312 125.542969 42.621094 C 125.441406 42.519531 125.292969 42.46875 125.191406 42.519531 C 125.042969 42.519531 124.945312 42.570312 124.84375 42.667969 C 124.742188 42.820312 124.644531 42.917969 124.542969 43.070312 L 123.847656 43.917969 C 122 46.117188 120.253906 48.214844 117.910156 49.816406 C 114.371094 52.214844 110.179688 53.511719 105.890625 53.5625 C 100.105469 53.5625 94.917969 51.265625 90.429688 46.816406 C 90.230469 46.617188 89.929688 46.617188 89.730469 46.816406 C 89.53125 47.015625 89.53125 47.316406 89.730469 47.515625 C 94.417969 52.214844 99.855469 54.5625 105.890625 54.5625 C 110.378906 54.511719 114.769531 53.164062 118.460938 50.664062 C 119.457031 49.964844 120.453125 49.164062 121.300781 48.265625 C 119.90625 51.316406 119.15625 54.664062 119.109375 58.0625 C 119.058594 58.160156 119.058594 58.261719 119.007812 58.410156 L 111.277344 58.410156 C 105.789062 58.410156 100.953125 61.910156 99.207031 67.105469 L 67.734375 59.910156 C 67.933594 59.808594 67.933594 59.761719 67.882812 59.761719 Z M 67.234375 60.757812 L 99.105469 68.003906 C 98.90625 68.855469 98.757812 69.753906 98.757812 70.652344 L 63.09375 70.652344 L 63.09375 64.558594 C 63.09375 64.507812 63.09375 64.457031 63.09375 64.457031 C 63.046875 62.757812 62.644531 61.058594 61.949219 59.511719 Z M 60.601562 59.210938 C 61.550781 60.859375 62.046875 62.707031 62.046875 64.605469 L 62.046875 64.65625 C 62.046875 64.707031 62.046875 64.707031 62.046875 64.757812 L 62.046875 70.703125 L 60.453125 70.703125 C 60.402344 70.703125 60.402344 70.703125 60.351562 70.703125 L 60.253906 70.753906 C 60.203125 70.753906 60.203125 70.804688 60.152344 70.804688 C 60.101562 70.804688 60.101562 70.855469 60.050781 70.855469 L 60.003906 70.902344 C 58.804688 72.601562 57.160156 73.953125 55.265625 74.75 L 59.453125 65.804688 C 59.554688 65.605469 59.503906 65.355469 59.355469 65.257812 C 54.714844 60.757812 47.332031 60.757812 42.695312 65.257812 C 42.546875 65.40625 42.496094 65.65625 42.59375 65.804688 L 46.785156 74.800781 C 44.839844 74.003906 43.195312 72.652344 41.996094 70.902344 C 39.902344 67.90625 39.453125 64.007812 40.851562 60.609375 C 40.851562 60.609375 40.851562 60.558594 40.898438 60.558594 C 42.046875 57.761719 44.292969 55.511719 47.132812 54.464844 C 48.480469 54.960938 49.679688 55.761719 50.726562 56.710938 C 50.925781 56.910156 51.222656 56.910156 51.425781 56.710938 C 52.472656 55.710938 53.667969 54.960938 55.015625 54.414062 C 56.910156 55.164062 58.554688 56.410156 59.753906 58.011719 Z M 34.464844 60.160156 C 36.261719 60.160156 38.058594 60.359375 39.851562 60.710938 C 38.703125 64.007812 39.054688 67.65625 40.800781 70.652344 L 36.3125 70.652344 L 29.628906 67.503906 C 28.578125 64.207031 26.1875 61.558594 23.042969 60.160156 Z M 8.03125 75.101562 C 8.527344 73.753906 9.328125 72.554688 10.273438 71.503906 C 10.472656 71.304688 10.472656 71.003906 10.273438 70.804688 C 9.277344 69.753906 8.527344 68.554688 8.03125 67.207031 C 10.226562 61.558594 16.558594 58.761719 22.195312 60.910156 C 24.988281 61.957031 27.183594 64.15625 28.332031 66.90625 L 19.402344 62.707031 C 19.203125 62.609375 18.953125 62.660156 18.804688 62.808594 C 14.316406 67.457031 14.316406 74.851562 18.804688 79.5 C 18.902344 79.597656 19.003906 79.648438 19.152344 79.648438 C 19.203125 79.648438 19.300781 79.648438 19.351562 79.597656 L 28.28125 75.402344 C 25.9375 80.996094 19.550781 83.597656 13.964844 81.246094 C 11.273438 80.148438 9.128906 77.898438 8.03125 75.101562 Z M 4.988281 97.988281 C 5.488281 96.640625 6.285156 95.441406 7.28125 94.390625 C 7.480469 94.191406 7.480469 93.890625 7.28125 93.691406 C 6.285156 92.640625 5.535156 91.441406 4.988281 90.09375 C 6.632812 85.894531 10.671875 83.097656 15.210938 83.097656 C 15.613281 83.097656 16.0625 83.097656 16.460938 83.148438 C 20.398438 83.597656 23.792969 86.144531 25.289062 89.792969 L 16.359375 85.59375 C 16.160156 85.496094 15.910156 85.546875 15.8125 85.695312 C 11.320312 90.34375 11.320312 97.738281 15.8125 102.386719 C 15.910156 102.484375 16.011719 102.535156 16.160156 102.535156 C 16.210938 102.535156 16.308594 102.535156 16.359375 102.484375 L 25.289062 98.289062 C 22.945312 103.933594 16.507812 106.535156 10.972656 104.183594 C 8.230469 102.984375 6.035156 100.785156 4.988281 97.988281 Z M 4.988281 120.925781 C 5.488281 119.578125 6.285156 118.375 7.28125 117.328125 C 7.480469 117.128906 7.480469 116.828125 7.28125 116.628906 C 6.285156 115.578125 5.535156 114.378906 4.988281 113.03125 C 7.183594 107.382812 13.515625 104.585938 19.152344 106.734375 C 21.945312 107.78125 24.140625 109.980469 25.289062 112.730469 L 16.359375 108.53125 C 16.160156 108.433594 15.960938 108.484375 15.8125 108.632812 C 11.320312 113.28125 11.320312 120.675781 15.8125 125.324219 C 15.910156 125.421875 16.011719 125.472656 16.160156 125.472656 C 16.210938 125.472656 16.308594 125.472656 16.359375 125.421875 L 25.289062 121.226562 C 23.792969 124.773438 20.550781 127.273438 16.757812 127.820312 L 16.460938 127.871094 C 16.011719 127.921875 15.613281 127.972656 15.164062 127.921875 C 10.671875 127.972656 6.632812 125.171875 4.988281 120.925781 Z M 8.179688 143.664062 C 8.679688 142.3125 9.476562 141.113281 10.425781 140.066406 C 10.625 139.863281 10.625 139.566406 10.425781 139.363281 C 9.425781 138.316406 8.679688 137.117188 8.179688 135.765625 C 9.578125 132.121094 12.820312 129.519531 16.660156 128.871094 C 16.757812 128.871094 16.859375 128.871094 16.957031 128.820312 C 17.457031 128.769531 17.90625 128.722656 18.40625 128.722656 C 22.792969 128.769531 26.734375 131.417969 28.480469 135.46875 L 19.550781 131.269531 C 19.351562 131.167969 19.152344 131.21875 19.003906 131.371094 C 14.515625 136.015625 14.515625 143.414062 19.003906 148.058594 C 19.152344 148.210938 19.402344 148.261719 19.550781 148.160156 L 28.429688 143.960938 C 26.085938 149.558594 19.652344 152.15625 14.117188 149.808594 C 11.371094 148.660156 9.175781 146.460938 8.179688 143.664062 Z M 34.464844 150.660156 L 23.042969 150.660156 C 26.234375 149.308594 28.628906 146.609375 29.726562 143.3125 L 36.410156 140.164062 L 56.113281 140.164062 C 50.824219 146.8125 42.894531 150.660156 34.464844 150.660156 Z M 208.886719 140.164062 L 228.589844 140.164062 L 235.273438 143.3125 C 236.320312 146.609375 238.765625 149.308594 241.90625 150.660156 L 230.535156 150.660156 C 222.105469 150.660156 214.125 146.8125 208.886719 140.164062 Z M 256.871094 135.71875 C 256.371094 137.066406 255.574219 138.265625 254.625 139.316406 C 254.425781 139.515625 254.425781 139.816406 254.625 140.015625 C 255.621094 141.0625 256.371094 142.261719 256.871094 143.613281 C 254.675781 149.257812 248.339844 152.058594 242.703125 149.910156 C 239.910156 148.859375 237.71875 146.660156 236.570312 143.914062 L 245.496094 148.109375 C 245.699219 148.210938 245.898438 148.160156 246.046875 148.011719 C 250.535156 143.363281 250.535156 135.96875 246.046875 131.320312 C 245.898438 131.167969 245.648438 131.121094 245.496094 131.21875 L 236.570312 135.46875 C 238.316406 131.417969 242.253906 128.769531 246.644531 128.769531 C 247.144531 128.769531 247.644531 128.820312 248.089844 128.871094 L 248.390625 128.871094 C 252.230469 129.519531 255.421875 132.121094 256.871094 135.71875 Z M 249.789062 127.972656 C 249.339844 127.972656 248.9375 127.921875 248.492188 127.871094 L 248.191406 127.820312 C 244.402344 127.273438 241.207031 124.773438 239.710938 121.226562 L 248.640625 125.421875 C 248.839844 125.523438 249.039062 125.472656 249.1875 125.324219 C 253.679688 120.675781 253.679688 113.28125 249.1875 108.632812 C 249.039062 108.484375 248.789062 108.433594 248.640625 108.53125 L 239.710938 112.730469 C 242.054688 107.132812 248.492188 104.535156 254.027344 106.882812 C 256.769531 108.03125 258.914062 110.28125 260.011719 113.03125 C 259.511719 114.378906 258.714844 115.578125 257.769531 116.628906 C 257.566406 116.828125 257.566406 117.128906 257.769531 117.328125 C 258.765625 118.375 259.511719 119.578125 260.011719 120.925781 C 258.367188 125.171875 254.328125 127.972656 249.789062 127.972656 Z M 249.789062 127.972656 "/>
</g>
</svg>
