<?xml version="1.0" encoding="utf-8"?>
<!-- Generator: Adobe Illustrator 26.0.2, SVG Export Plug-In . SVG Version: 6.00 Build 0)  -->
<svg version="1.1" id="Capa_1" xmlns="http://www.w3.org/2000/svg" xmlns:xlink="http://www.w3.org/1999/xlink" x="0px" y="0px"
	 viewBox="0 0 531.3 310" style="enable-background:new 0 0 531.3 310;" xml:space="preserve">
<style type="text/css">
	.st0{fill:#CD2E25;}
</style>
<path d="M35.8,309.9c0.3,0,0.7,0.1,1,0.1h32.3c19,0,36.9-8.5,49.1-23h295c12.2,14.5,30.1,22.9,49.1,23h32.3c0.3,0,0.7,0,1-0.1
	c16.8-0.6,30-14.7,29.4-31.5c-0.1-3.1-0.7-6.3-1.8-9.2c0,0,0-0.1,0-0.1V269c-1.3-3.5-3.2-6.7-5.6-9.5c5.5-3.6,9.7-8.8,12-15v-0.1
	v-0.1c4.3-11.8,0.8-25-8.7-33.2c3.9-3.4,6.9-7.7,8.6-12.5v-0.1v-0.1c2.4-6.7,2.4-14.1-0.1-20.8c-2.8-7.6-8.5-13.7-15.8-17.1l3.6-2.9
	c0.5-0.1,1-0.2,1.5-0.4c2.1-0.8,3.7-2.4,4.4-4.4l0,0c2.4-6.6,2.5-13.9,0.1-20.6c0,0,0-0.1,0-0.1c0-0.1,0-0.1,0-0.1v-0.1
	c0-0.1-0.1-0.1-0.1-0.2l-0.1-0.2c-4.5-11.8-15.8-19.5-28.4-19.6h-32.5c-2.7,0-5.4,0.2-8,0.5c-9.2-14-28.1-17.8-42.1-8.6
	c-2.9,1.9-5.4,4.3-7.5,7l-2.4,0.5c-1.4-6.8-3.3-13.4-5.7-19.9c25.7-15.7,42.1-43,43.7-73.1c0-0.1,0-0.1,0-0.2l0,0
	c0.1-1.5,0.1-3,0.1-4.5c0-4.1-3.4-7.5-7.5-7.5H307.3c-27.2-8.2-56.2-8.2-83.4,0H98.5c-4.1,0-7.5,3.4-7.5,7.5c0,1.5,0,3.1,0.1,4.7
	c1.6,30.1,17.9,57.5,43.7,73.1c-2.4,6.5-4.3,13.1-5.8,19.8l-2.4-0.5c-3.3-4.4-7.8-7.8-12.9-9.8c-0.4-0.2-0.9-0.4-1.3-0.5
	c-13.1-4.5-27.6,0.4-35.2,11.9c-2.7-0.3-5.4-0.5-8.1-0.5H36.6c-12.8,0-24.2,7.9-28.6,19.9v0.1v0.1c-3.8,10.5-1.5,22.3,6,30.6
	c-11.9,7.6-17,22.5-12.2,35.8v0.1v0.1c1.8,4.8,4.8,9.1,8.6,12.5c-9.5,8.2-13,21.4-8.7,33.2v0.1v0.1c2.3,6.2,6.5,11.4,12,15
	c-11,12.7-9.7,31.9,2.9,42.9C21.9,307,28.6,309.7,35.8,309.9L35.8,309.9z"/>
<path class="st0" d="M307.8,133.7c1.4,0,2.6-1.1,2.6-2.6s-1.1-2.6-2.6-2.6c-1.4,0-2.6,1.1-2.6,2.6c0,0,0,0,0,0
	C305.2,132.5,306.4,133.6,307.8,133.7z"/>
<path class="st0" d="M223.5,133.7c1.4,0,2.6-1.1,2.6-2.6c0-1.4-1.1-2.6-2.6-2.6c-1.4,0-2.6,1.1-2.6,2.6c0,0,0,0,0,0
	C220.9,132.5,222,133.7,223.5,133.7z"/>
<path class="st0" d="M302,94.2c0.2,0,0.5-0.1,0.7-0.2l13.2-11.8c-0.7,5.1,0.3,10.5,2.8,14h0.1c3.2-4.5,3.9-12.2,1.8-18.2l23.6-21.1
	c0.4-0.3,0.5-1,0.2-1.4s-1-0.5-1.4-0.2c-0.1,0-0.1,0.1-0.2,0.1l-41.4,37.2c-0.4,0.4-0.4,1-0.1,1.4C301.5,94,301.7,94.2,302,94.2z"/>
<path class="st0" d="M210.8,77.9c-2.1,6-1.4,13.8,1.8,18.2h0.1c2.5-3.5,3.5-8.9,2.8-14l13.2,11.8c0.4,0.4,1,0.3,1.4-0.1
	c0.4-0.4,0.3-1-0.1-1.4l0,0l-41.5-37.2c-0.4-0.4-1-0.4-1.4,0c-0.4,0.4-0.4,1,0,1.4c0,0,0.1,0.1,0.1,0.1L210.8,77.9z"/>
<path class="st0" d="M507.6,211.1c12.7-3.7,19.9-17,16.2-29.7c-2.7-9.1-10.5-15.8-19.9-17c11.8-5,17.6-18.3,13.3-30.3l0,0l0,0l0,0
	c-3.5-9.4-12.5-15.6-22.5-15.7h-32.5c-3.9,0-7.7,0.4-11.5,1.2c-5.3-12.1-19.5-17.5-31.5-12.2c-4.4,1.9-8.1,5.2-10.7,9.3l-11.4,2.6
	l-0.1-0.7v-0.1c-1.6-10.2-4.5-20.2-8.5-29.8c26.5-13.9,43.7-40.7,45.3-70.6c0.1-1.5,0.1-3,0.1-4.4c0-0.6-0.4-1-1-1H306.4
	c-26.5-8.2-55-8.2-81.5,0H98.5c-0.6,0-1,0.4-1,1c0,1.4,0,2.9,0.1,4.4c1.6,29.9,18.8,56.7,45.3,70.6c-4.1,9.6-6.9,19.6-8.6,29.9
	l-0.1,0.7c0,0,0,0.1,0,0.1l-11.4-2.6c-2.8-4.5-7-7.9-11.9-9.8c-0.1-0.1-0.2-0.1-0.3-0.1c-11.8-4.3-24.9,1.3-30,12.8
	c-3.8-0.8-7.6-1.2-11.5-1.2H36.6c-10,0-19,6.3-22.5,15.7c-1,2.6-1.5,5.4-1.5,8.2c0,9.7,5.8,18.4,14.7,22.1
	C14.3,166.1,5,178.1,6.7,191.2c1.2,9.4,7.9,17.2,17,19.9c-12.7,3.7-19.9,17-16.2,29.7c2.6,8.9,10.2,15.5,19.4,16.9
	c-12,5.5-17.3,19.7-11.8,31.7c3.9,8.5,12.3,13.9,21.6,14c0.1,0,0.2,0,0.2,0h32.3c18.1,0,35.1-8.6,45.9-23h301.3
	c10.9,14.4,27.9,22.9,45.9,23h32.3c0.1,0,0.2,0,0.2,0c13.2-0.1,23.8-11,23.7-24.2c-0.1-9.3-5.5-17.7-14-21.5
	c13.1-2,22.1-14.2,20.1-27.2C523.1,221.3,516.5,213.8,507.6,211.1L507.6,211.1z M521.3,180.2c-1,2.7-2.6,5.1-4.5,7.2
	c-0.4,0.4-0.4,1,0,1.4c2,2.1,3.5,4.5,4.5,7.2c-4.4,11.3-17.1,16.9-28.4,12.6c-5.6-2.1-10-6.5-12.3-12l17.9,8.4
	c0.1,0.1,0.3,0.1,0.4,0.1c0.3,0,0.5-0.1,0.7-0.3c9-9.3,9-24.1,0-33.4c-0.3-0.3-0.8-0.4-1.1-0.2l-17.9,8.4c3-7.2,9.7-12.3,17.5-13.3
	c0.9-0.1,1.8-0.2,2.7-0.2C509.9,166.2,518,171.8,521.3,180.2z M479.3,239.7L479.3,239.7l-12.1-5.7l31.5-14.8
	c7.6,8.4,7.6,21.2,0,29.6L479.3,239.7z M464.4,233.1c-0.5,0.2-0.7,0.8-0.5,1.3c0.1,0.2,0.3,0.4,0.5,0.5l13.6,6.4
	c2.1,6.4,6.7,11.7,12.9,14.5c-9,1.4-16.4,7.7-19.2,16.4l-13.4,6.3H73l-13.4-6.3c-2.8-8.6-10.2-15-19.2-16.4
	c6.1-2.8,10.8-8.1,12.9-14.5l13.6-6.4c0.5-0.2,0.7-0.8,0.5-1.3c-0.1-0.2-0.3-0.4-0.5-0.5l-13.6-6.4c-2.5-7.5-8.5-13.4-16.1-15.6
	c7.6-2.3,13.6-8.1,16.1-15.6l13.6-6.4c0.4-0.2,0.6-0.5,0.6-0.9c0-0.4-0.2-0.7-0.6-0.9l-13.6-6.4c-2.1-6.7-7.1-12.1-13.6-14.8
	c9.2-1.2,16.8-7.6,19.7-16.4l13.4-6.3h10.3c3,4.1,7.3,7.2,12.1,8.8l6.4,13.6c0.2,0.5,0.8,0.7,1.3,0.5c0.2-0.1,0.4-0.3,0.5-0.5
	l6.4-13.6c4.8-1.6,9-4.6,12-8.7h287.6c3,4.1,7.2,7.1,12,8.7l6.4,13.6c0.2,0.5,0.8,0.7,1.3,0.5c0.2-0.1,0.4-0.3,0.5-0.5l6.4-13.6
	c4.9-1.6,9.1-4.6,12.1-8.8h10.3l13.4,6.3c2.9,8.8,10.6,15.2,19.8,16.4c-6.5,2.7-11.5,8.1-13.6,14.8l-13.6,6.4
	c-0.3,0.2-0.6,0.5-0.6,0.9c0,0.4,0.2,0.7,0.6,0.9l13.6,6.4c2.5,7.5,8.5,13.4,16.1,15.6c-7.6,2.3-13.6,8.1-16.1,15.7L464.4,233.1z
	 M472.9,285.1l-12.1-5.7l31.5-14.8c7.6,8.4,7.6,21.2,0,29.6L472.9,285.1z M38.9,294.2c-7.6-8.4-7.6-21.2,0-29.6l19.4,9.1l0,0
	l12.1,5.7L38.9,294.2z M52,228.4l12.1,5.6l-31.5,14.8c-7.6-8.4-7.6-21.2,0-29.6L52,228.4z M52,182.5L52,182.5l12.1,5.7l-31.5,14.8
	c-7.6-8.4-7.6-21.2,0-29.6L52,182.5z M58,136.6L58,136.6l12.2,5.7l-31.5,14.8c-7.6-8.4-7.6-21.2,0-29.6L58,136.6z M108.2,150.8
	l-5.7,12.1l-5.7-12c0,0,0-0.1-0.1-0.1l-9.1-19.4c8.4-7.6,21.2-7.6,29.6,0L108.2,150.8z M200.8,135.6c3-10,12.1-16.9,22.6-16.9h15.3
	c0,0.1,0,0.1,0,0.2c0,1.7,0.4,3.3,1.2,4.8c0.5,1,1.2,1.8,2,2.6c0.9,0.8,1.8,1.5,2.7,2.2l3.8,2.7l1.6,1.1c2.2,1.6,4.4,3.1,6.7,4.7
	l2.6,1.9l0.1,0.1l3.4,2.5h-25.8c-0.5-1.3-1.9-2-3.3-1.6c-0.7,0.3-1.3,0.8-1.6,1.6h-17.3c-0.5-1.3-1.9-2-3.3-1.6
	c-0.7,0.3-1.3,0.8-1.6,1.6h-10C200,139.4,200.3,137.4,200.8,135.6L200.8,135.6z M248.8,110.6h33.6c3.6,0,6.8,2.3,7.8,5.8
	c0.1,0.4,0.2,0.9,0.3,1.3l0,0c0,0.3,0.1,0.7,0.1,1.1c0,1.3-0.3,2.6-0.9,3.8c-0.3,0.5-0.6,1-1,1.4c-1.8-1.4-4-2.1-6.2-2.1h-33.5
	c-2.3,0-4.5,0.7-6.2,2.1c-0.4-0.4-0.7-0.9-1-1.4c-0.6-1.2-0.9-2.5-0.9-3.8c0-0.3,0-0.7,0.1-1c0,0,0,0,0-0.1c0-0.5,0.1-0.9,0.3-1.3
	C242.1,113,245.3,110.7,248.8,110.6L248.8,110.6z M307.8,118.6c12.7-0.1,23.1,10,23.5,22.6h-10c-0.5-1.3-1.9-2-3.3-1.6
	c-0.7,0.3-1.3,0.8-1.6,1.6h-17.3c-0.5-1.3-1.9-2-3.3-1.6c-0.7,0.3-1.3,0.8-1.6,1.6h-25.9c0.1-0.1,0.2-0.2,0.4-0.3
	c1.7-1.2,3.4-2.4,5.1-3.6l0.7-0.5l6.7-4.7l5.4-3.8c1-0.7,1.9-1.4,2.7-2.2c0.8-0.7,1.5-1.6,2-2.6c0.8-1.5,1.2-3.1,1.2-4.8v-0.2H307.8
	z M428.7,162.8L414,131.4c8.4-7.6,21.2-7.6,29.6,0L428.7,162.8z M492.5,127.5c7.6,8.4,7.6,21.2,0,29.6l-19.4-9.1l0,0l-12.1-5.7
	L492.5,127.5z M479.2,193.8l-12.1-5.7l31.5-14.8c7.6,8.4,7.6,21.2,0,29.6L479.2,193.8z M515.1,134.4c-1,2.7-2.6,5.1-4.5,7.2
	c-0.4,0.4-0.4,1,0,1.4c2,2.1,3.5,4.5,4.5,7.2c-2.8,7.4-9.5,12.7-17.3,13.8c-1,0.1-2.1,0.2-3.1,0.2c-8.8,0-16.8-5.3-20.2-13.4
	l17.9,8.4c0.1,0.1,0.3,0.1,0.4,0.1c0.3,0,0.5-0.1,0.7-0.3c9-9.3,9-24.1,0-33.4c-0.3-0.3-0.8-0.4-1.1-0.2l-17.9,8.4
	c4.8-11.2,17.7-16.4,28.9-11.6C508.7,124.5,513,128.9,515.1,134.4L515.1,134.4z M485,120.3c-6.3,2.8-11.1,8.1-13.2,14.7l-13.4,6.3
	h-9c3.5-6,4.2-13.3,1.9-19.9c3.5-0.7,7.2-1.1,10.8-1.1L485,120.3z M411.4,116c2.4-3.2,5.7-5.7,9.5-7.2h0c2.7,1,5.1,2.6,7.2,4.5
	c0.4,0.4,1,0.4,1.4,0c2.1-2,4.5-3.5,7.2-4.6c11.3,4.3,17,17,12.7,28.3c-0.6,1.7-1.5,3.2-2.5,4.7l0,0c-2.4,3.4-5.7,6.1-9.6,7.8
	l8.4-17.9c0.2-0.4,0.1-0.9-0.2-1.1c-9.3-9-24.1-9-33.4,0c-0.3,0.3-0.4,0.8-0.2,1.1l8.4,17.9c-3.8-1.6-7.1-4.3-9.5-7.7
	c0,0,0,0-0.1-0.1c0-0.1-0.1-0.1-0.1-0.1c0,0-0.1-0.1-0.1-0.1l-0.2-0.1c-0.1,0-0.1,0-0.2,0h-0.1h-3.1v-11.9c0-0.1,0-0.1,0-0.2v-0.1
	c0-3.8,1-7.5,2.9-10.8 M427.6,113.3 M404.8,128.9c0,0.1,0,0.2,0,0.2v12.2h-71.4c-0.1-1.8-0.3-3.5-0.7-5.3l63.8-14.6h0.1l10.7-2.4
	C405.7,122.1,404.9,125.5,404.8,128.9L404.8,128.9z M387.6,86.8c-8.5-19.4-21.3-36.5-37.5-50.1c21.9-20.3,53.1-27.1,81.6-17.9
	C429.8,47.5,413.1,73.3,387.6,86.8L387.6,86.8z M99.6,18.8c28.4-9.2,59.6-2.4,81.6,17.9c-16.2,13.6-29,30.8-37.5,50.1
	C118.1,73.4,101.4,47.5,99.6,18.8L99.6,18.8z M136.1,119.5l0.1-0.7c1.6-10.1,4.4-19.9,8.4-29.3c3.8,1.9,7.7,3.5,11.7,4.7
	c0.1,0,0.2,0,0.3,0c0.4,0,0.8-0.2,0.9-0.6l0,0c0,0,0,0,0-0.1c0,0,0-0.1,0-0.1c0-0.1,0.1-0.2,0.1-0.2c1-20.9,9.9-40.7,25-55.3
	l52.9,47.5l0,0l0,0c0.1,0,0.1,0.1,0.2,0.1c0,0,0.1,0,0.1,0.1c0.1,0,0.2,0.1,0.3,0.1l0,0c0.1,0,0.3,0,0.4-0.1c0,0,0.1-0.1,0.1-0.1
	c0.1,0,0.2-0.1,0.2-0.2l0,0l0,0l3.8-4.4c1-1.2,2.2-2.6,3.4-4.1l0,0c4.4-5.3,9.6-11.6,13.5-16.2c0.4-0.4,0.3-1.1-0.1-1.4
	c-0.4-0.4-1.1-0.3-1.4,0.1c-3.7,4.4-8.6,10.3-12.9,15.4l-21.9-19.6c-0.4-0.4-1-0.4-1.4,0.1c-0.4,0.4-0.4,1,0.1,1.4l22,19.7l-2.8,3.3
	l-2.9,3.5l-52.9-47.4c0,0-0.1-0.1-0.1-0.1c-11.1-10.5-24.9-17.9-39.9-21.1h18.3c13.5,0,26.8,3.3,38.7,9.6c0.1,0.1,0.3,0.1,0.5,0.1
	c0.2,0,0.4,0,0.5-0.1c0.3-0.2,0.5-0.5,0.5-0.9v-8.7H225c14,0,27.8,3.5,40.1,10.4c0.2,0.1,0.3,0.1,0.5,0.1c0.2,0,0.3,0,0.5-0.1
	c12.3-6.8,26.1-10.4,40.1-10.4h23.1v8.7c0,0.6,0.4,1,1,1c0.2,0,0.3,0,0.5-0.1c5.8-3.1,12-5.5,18.4-7.1c6.6-1.7,13.4-2.5,20.3-2.5
	h18.3c-15,3.3-28.9,10.6-40,21.2l0,0l0,0l0,0l0,0V36l-52.7,47.3l-3-3.5l-2.8-3.3l21.9-19.7c0.5-0.3,0.6-0.9,0.3-1.4
	c-0.3-0.5-0.9-0.6-1.4-0.3c-0.1,0-0.1,0.1-0.2,0.2l-21.9,19.6c-4.2-5.1-9.2-11-12.9-15.4c-0.3-0.4-0.9-0.6-1.4-0.2
	c-0.4,0.3-0.6,0.9-0.2,1.4c0,0,0.1,0.1,0.1,0.1c3.9,4.6,9.2,10.9,13.5,16.2l0,0c1.2,1.4,2.4,2.8,3.4,4.1l3.6,4.3l0,0l0,0
	c0.1,0.1,0.1,0.1,0.2,0.2c0,0,0.1,0.1,0.1,0.1c0.1,0.1,0.3,0.1,0.4,0.1l0,0c0.1,0,0.2,0,0.3-0.1c0,0,0.1,0,0.1-0.1
	c0.1,0,0.1-0.1,0.2-0.1l0,0L348.5,38c15.1,14.5,24,34.3,25,55.2c0,0.1,0,0.2,0.1,0.2c0,0,0,0.1,0,0.1c0,0,0,0,0,0.1l0,0
	c0.2,0.4,0.5,0.6,0.9,0.6c0.1,0,0.2,0,0.3,0c4-1.3,7.9-2.9,11.7-4.7c4,9.4,6.9,19.2,8.5,29.3v0.1l0.1,0.8L332,134.1
	c-3.5-10.4-13.2-17.4-24.2-17.4h-15.5c-0.1-0.2-0.1-0.5-0.2-0.7c-0.1-6.8-1.6-13.4-4.4-19.5c1.7,1.8,3.6,3.4,5.7,4.8
	c7.4,5,16.2,7.7,25.2,7.8c12.1,0,23.1-4.8,32.4-14.1c0.4-0.4,0.4-1,0-1.4s-1-0.4-1.4,0c-9,9-19.4,13.5-31,13.5
	c-8.6-0.1-17-2.7-24.1-7.5c-4.7-3.2-8.2-7.3-11.9-11.8l-1.4-1.7l0,0c-0.1-0.2-0.3-0.4-0.5-0.6l-0.1-0.1c-0.2-0.2-0.4-0.3-0.7-0.3
	c-0.1,0-0.2,0-0.3,0h-0.1c-0.1,0-0.3,0.1-0.4,0.2c-0.4,0.4-0.5,1-0.1,1.4c0.2,0.2,0.4,0.5,0.6,0.7l0,0c5.7,7.1,9.3,15.7,10.2,24.7
	c-1.9-2.2-4.7-3.4-7.6-3.4h-33.6c-2.9,0-5.6,1.2-7.6,3.3c0.9-9,4.5-17.6,10.2-24.7l0,0c0.2-0.2,0.4-0.5,0.6-0.7
	c0.4-0.4,0.3-1-0.1-1.4c-0.2-0.2-0.5-0.3-0.7-0.2c-0.3,0-0.5,0.1-0.7,0.3c-0.2,0.3-0.4,0.5-0.6,0.8l0,0l-1.4,1.7
	c-3.7,4.4-7.2,8.6-11.9,11.8c-7.1,4.8-15.5,7.4-24.1,7.5c-11.6,0-22-4.6-31-13.5c-0.4-0.4-1-0.4-1.4,0s-0.4,1,0,1.4
	c9.4,9.4,20.3,14.1,32.4,14.1c9-0.1,17.8-2.8,25.2-7.8c2-1.4,4-3,5.7-4.8c-2.8,6.1-4.3,12.8-4.4,19.6c-0.1,0.2-0.1,0.4-0.2,0.7
	h-15.5c-11,0-20.7,7-24.2,17.4l-63.1-14.4C136.2,119.6,136.2,119.5,136.1,119.5L136.1,119.5z M134.8,121.5L134.8,121.5l63.9,14.5
	c-0.4,1.7-0.7,3.5-0.7,5.3h-71.5v-12.2c0-0.1,0-0.2,0-0.2c-0.1-3.4-0.9-6.8-2.3-9.9L134.8,121.5z M121.5,118.4
	c1.9,3.3,2.9,7,2.9,10.8v0.1c0,0.1,0,0.1,0,0.2v11.9h-3.1h-0.1c-0.1,0-0.1,0-0.2,0l-0.2,0.1c-0.1,0-0.1,0.1-0.2,0.1
	c-0.1,0-0.1,0.1-0.2,0.1l-0.1,0.1c-2.4,3.4-5.7,6.1-9.5,7.7l8.4-17.9c0.2-0.4,0.1-0.9-0.2-1.1c-9.3-9-24.1-9-33.4,0
	c-0.3,0.3-0.4,0.8-0.2,1.1l8.4,18c-3.9-1.6-7.2-4.3-9.6-7.8c-4.2-6-5.1-13.8-2.3-20.6c0,0,0-0.1,0.1-0.1c2.3-5.6,6.8-10.1,12.5-12.2
	c2.7,1,5.1,2.6,7.2,4.5c0.4,0.4,1,0.4,1.4,0c2.1-2,4.5-3.5,7.2-4.6c3.8,1.5,7.1,4,9.5,7.2L121.5,118.4z M69.1,120.3
	c3.6,0,7.2,0.4,10.8,1.1c-2.3,6.6-1.6,13.9,1.9,19.9h-9L59.4,135c-2.1-6.6-6.9-11.9-13.2-14.7L69.1,120.3z M16.1,150.2
	c1-2.7,2.6-5.1,4.5-7.2c0.4-0.4,0.4-1,0-1.4c-2-2.1-3.5-4.5-4.5-7.2c4.4-11.3,17.1-16.9,28.4-12.6c5.6,2.1,10,6.5,12.3,12l-17.9-8.4
	c-0.4-0.2-0.9-0.1-1.2,0.2c-9,9.3-9,24.1,0,33.4c0.2,0.2,0.4,0.3,0.7,0.3c0.1,0,0.3,0,0.4-0.1l17.9-8.4
	c-4.7,11.2-17.5,16.4-28.7,11.7C22.6,160.3,18.3,155.8,16.1,150.2L16.1,150.2z M10,196c1-2.7,2.6-5.1,4.6-7.2c0.4-0.4,0.4-1,0-1.4
	c-2-2.1-3.5-4.5-4.6-7.2c3.3-8.4,11.4-14,20.5-14c0.8,0,1.7,0,2.5,0.1c7.9,0.9,14.7,6,17.7,13.3l-17.9-8.4c-0.4-0.2-0.9-0.1-1.1,0.2
	c-9,9.3-9,24.1,0,33.4c0.2,0.2,0.4,0.3,0.7,0.3c0.1,0,0.3,0,0.4-0.1l17.9-8.4C46,207.9,33.1,213.1,22,208.4
	C16.5,206,12.1,201.6,10,196z M10,241.9c1-2.7,2.6-5.1,4.6-7.2c0.4-0.4,0.4-1,0-1.4c-2-2.1-3.5-4.5-4.6-7.2
	c4.4-11.3,17.1-16.9,28.4-12.6c5.6,2.1,10,6.5,12.3,12l-17.9-8.4c-0.4-0.2-0.8-0.1-1.1,0.2c-9,9.3-9,24.1,0,33.4
	c0.2,0.2,0.4,0.3,0.7,0.3c0.1,0,0.3,0,0.4-0.1l17.9-8.4c-3,7.1-9.5,12.1-17.1,13.2l-0.6,0.1c-0.9,0.1-1.7,0.2-2.6,0.1
	C21.4,256,13.3,250.4,10,241.9L10,241.9z M16.4,287.4c1-2.7,2.6-5.1,4.5-7.2c0.4-0.4,0.4-1,0-1.4c-2-2.1-3.5-4.5-4.5-7.2
	c2.8-7.3,9.3-12.5,17-13.8c0.2,0,0.4,0,0.6-0.1c1-0.1,1.9-0.2,2.9-0.2c8.8,0.1,16.7,5.4,20.2,13.5l-17.9-8.4
	c-0.4-0.2-0.8-0.1-1.1,0.2c-9,9.3-9,24.1,0,33.4c0.3,0.3,0.8,0.4,1.1,0.2L57,288c-4.7,11.2-17.6,16.4-28.7,11.7
	C22.8,297.4,18.4,293,16.4,287.4L16.4,287.4z M69.1,301.4H46.2c6.4-2.7,11.2-8.1,13.4-14.7l13.4-6.3h39.5
	C101.9,293.7,86,301.4,69.1,301.4L69.1,301.4z M418.8,280.4h39.5l13.4,6.3c2.1,6.6,7,12,13.3,14.7h-22.8
	C445.3,301.4,429.3,293.7,418.8,280.4L418.8,280.4z M515,271.5c-1,2.7-2.6,5.1-4.5,7.2c-0.4,0.4-0.4,1,0,1.4c2,2.1,3.5,4.5,4.5,7.2
	c-4.4,11.3-17.1,16.9-28.4,12.6c-5.6-2.1-10-6.5-12.3-12l17.9,8.4c0.4,0.2,0.8,0.1,1.1-0.2c9-9.3,9-24.1,0-33.4
	c-0.3-0.3-0.8-0.4-1.1-0.2l-17.9,8.5c3.5-8.1,11.4-13.4,20.2-13.4c1,0,2,0.1,2.9,0.2h0.2l0.4,0C505.7,259.1,512.1,264.3,515,271.5
	L515,271.5z M500.8,256c-0.9,0-1.7-0.1-2.6-0.2l0,0l-0.6-0.1l0,0c-7.6-1.1-14-6.1-17-13.2l17.9,8.4c0.4,0.2,0.8,0.1,1.1-0.2
	c9-9.3,9-24.1,0-33.4c-0.3-0.3-0.8-0.4-1.1-0.2l-17.9,8.4c4.7-11.2,17.6-16.4,28.7-11.7c5.5,2.3,9.8,6.8,12,12.3
	c-1,2.7-2.6,5.1-4.5,7.2c-0.4,0.4-0.4,1,0,1.4c2,2.1,3.5,4.5,4.5,7.2C518,250.4,509.9,256,500.8,256z"/>
</svg>
