<svg id="Capa_1" data-name="Capa 1" xmlns="http://www.w3.org/2000/svg" viewBox="0 0 531.26 309.97"><defs><style>.cls-1{fill:#cd2e25;}</style></defs><path class="cls-1" d="M35.75,309.89a7.17,7.17,0,0,0,1,.08H69.07a64.17,64.17,0,0,0,49.07-23h295a64.23,64.23,0,0,0,49.08,23h32.27a7.17,7.17,0,0,0,1-.08,30.44,30.44,0,0,0,27.63-40.68s0-.08,0-.13l0-.07a30.46,30.46,0,0,0-5.64-9.51,30.39,30.39,0,0,0,12-15l0-.09,0-.09a30.31,30.31,0,0,0-8.7-33.24,30.31,30.31,0,0,0,8.64-12.48l0-.09,0-.09a30.51,30.51,0,0,0-.06-20.76,30.55,30.55,0,0,0-15.77-17.11l3.64-2.94a8.35,8.35,0,0,0,1.53-.38,7.46,7.46,0,0,0,4.43-4.45l0,0a30.55,30.55,0,0,0,.12-20.55.78.78,0,0,0,0-.14.88.88,0,0,0-.05-.15l0-.1c0-.07-.06-.13-.08-.2l-.09-.22a30.55,30.55,0,0,0-28.43-19.55H462.19a65.67,65.67,0,0,0-8.05.52,30.35,30.35,0,0,0-49.54-1.54l-2.35.54a136.36,136.36,0,0,0-5.74-19.89,91.22,91.22,0,0,0,43.67-73.11,1.41,1.41,0,0,0,0-.2h0c.07-1.55.11-3,.11-4.48a7.5,7.5,0,0,0-7.5-7.5H307.33a143.74,143.74,0,0,0-83.39,0H98.46a7.51,7.51,0,0,0-7.5,7.5c0,1.51,0,3.09.12,4.7a91.21,91.21,0,0,0,43.68,73.11A135.31,135.31,0,0,0,129,111.37l-2.38-.54A30.3,30.3,0,0,0,113.72,101a7.82,7.82,0,0,0-1.35-.51,30.39,30.39,0,0,0-35.25,11.93,63.76,63.76,0,0,0-8.05-.53H36.6A30.53,30.53,0,0,0,8,131.8l0,.07L8,132a30.31,30.31,0,0,0,6,30.6A30.4,30.4,0,0,0,1.79,198.42l0,.09,0,.09a30.24,30.24,0,0,0,8.65,12.48,30.37,30.37,0,0,0-8.71,33.24l0,.09,0,.09a30.42,30.42,0,0,0,12,15,30.41,30.41,0,0,0,21.92,50.39Z"/><path d="M307.8,133.66a2.58,2.58,0,1,0-2.56-2.58A2.58,2.58,0,0,0,307.8,133.66Z"/><path d="M223.46,133.66a2.58,2.58,0,1,0-2.57-2.58A2.58,2.58,0,0,0,223.46,133.66Z"/><path d="M302,94.16a1,1,0,0,0,.67-.25l13.17-11.82c-.68,5.07.3,10.54,2.82,14h.09c3.24-4.46,3.94-12.25,1.81-18.23l23.56-21.14a1,1,0,1,0-1.33-1.48L301.36,92.42a1,1,0,0,0-.07,1.41A1,1,0,0,0,302,94.16Z"/><path d="M210.76,77.86c-2.12,6-1.43,13.77,1.82,18.23h.08c2.52-3.46,3.5-8.93,2.82-14l13.18,11.82A1,1,0,0,0,230,92.42L188.54,55.24a1,1,0,1,0-1.34,1.48Z"/><path d="M507.59,211.08a23.92,23.92,0,0,0-3.7-46.68,24,24,0,0,0,13.26-30.33h0s0,0,0,0h0a24,24,0,0,0-22.48-15.66H462.19a57.63,57.63,0,0,0-11.51,1.17,23.91,23.91,0,0,0-42.2-2.91l-11.41,2.61-.11-.74,0-.11a128.46,128.46,0,0,0-8.55-29.76,84.71,84.71,0,0,0,45.31-70.56c.07-1.53.11-3,.11-4.37a1,1,0,0,0-1-1H306.38a137.44,137.44,0,0,0-81.5,0H98.46a1,1,0,0,0-1,1c0,1.41,0,2.88.11,4.37a84.7,84.7,0,0,0,45.32,70.56,128.67,128.67,0,0,0-8.57,29.86l-.11.67a.22.22,0,0,1,0,.08l-11.43-2.61a24,24,0,0,0-11.88-9.79,1,1,0,0,0-.34-.12,23.92,23.92,0,0,0-30,12.82,57.63,57.63,0,0,0-11.51-1.17H36.6a24,24,0,0,0-22.49,15.7,23.74,23.74,0,0,0-1.46,8.25,23.88,23.88,0,0,0,14.72,22.1,23.92,23.92,0,0,0-3.7,46.68,23.93,23.93,0,0,0,3.16,46.62,23.94,23.94,0,0,0,9.71,45.72,1,1,0,0,0,.25.05H69.07a57.63,57.63,0,0,0,45.92-23H416.26a57.68,57.68,0,0,0,45.93,23h32.27a1,1,0,0,0,.25-.05,23.95,23.95,0,0,0,9.73-45.72,23.93,23.93,0,0,0,3.15-46.62Zm13.7-30.85a21.88,21.88,0,0,1-4.55,7.21,1,1,0,0,0,0,1.38,22,22,0,0,1,4.55,7.21,21.94,21.94,0,0,1-40.7.61l17.88,8.41a1.11,1.11,0,0,0,.43.09,1,1,0,0,0,.72-.3,24,24,0,0,0,0-33.42,1,1,0,0,0-1.15-.21l-17.89,8.41a21.94,21.94,0,0,1,17.49-13.27,22.4,22.4,0,0,1,2.74-.17A22,22,0,0,1,521.29,180.23Zm-42,59.47h0L467.18,234l31.49-14.8a22,22,0,0,1,0,29.6Zm-14.84-6.58a1,1,0,0,0,0,1.82l13.6,6.39a24,24,0,0,0,12.87,14.49,24.06,24.06,0,0,0-19.2,16.36l-13.41,6.3H73l-13.39-6.3a24.12,24.12,0,0,0-19.22-16.36,24,24,0,0,0,12.87-14.49l13.61-6.39a1,1,0,0,0,0-1.82l-13.61-6.39a24.1,24.1,0,0,0-16.07-15.65,24.1,24.1,0,0,0,16.07-15.65L66.86,189a1,1,0,0,0,.57-.91,1,1,0,0,0-.57-.9l-13.61-6.4A23.83,23.83,0,0,0,39.68,166,24.14,24.14,0,0,0,59.41,149.6l13.39-6.3H83.08a24.13,24.13,0,0,0,12.14,8.76l6.37,13.59a1,1,0,0,0,1.82,0l6.4-13.63a24,24,0,0,0,12-8.71h287.6a24.11,24.11,0,0,0,12,8.72l6.4,13.62a1,1,0,0,0,1.82,0l6.39-13.59a24,24,0,0,0,12.11-8.76h10.29l13.4,6.3A24.1,24.1,0,0,0,491.6,166,23.94,23.94,0,0,0,478,180.84l-13.6,6.39a1,1,0,0,0-.57.9,1,1,0,0,0,.58.91L478,195.43a24.13,24.13,0,0,0,16.08,15.65A24.13,24.13,0,0,0,478,226.73Zm8.5,52-12.07-5.67,31.5-14.8a22,22,0,0,1,0,29.6Zm-434,9.13a22,22,0,0,1,0-29.6l19.44,9.14h0l12.06,5.66ZM52,228.37,64.08,234l-31.5,14.8a22,22,0,0,1,0-29.6Zm0-45.9h0l12.06,5.66-31.5,14.8a22,22,0,0,1,0-29.6Zm6-45.91h0l12.23,5.74L38.74,157.1a22,22,0,0,1,0-29.6Zm50.16,14.23-5.67,12.08-5.65-12a.75.75,0,0,0-.07-.12L87.7,131.38a22,22,0,0,1,29.61,0Zm92.67-15.23a23.6,23.6,0,0,1,22.55-16.89h15.27c0,.06,0,.13,0,.19a10.21,10.21,0,0,0,1.17,4.75,10,10,0,0,0,2,2.59,24.12,24.12,0,0,0,2.74,2.19l3.78,2.67,1.58,1.13c2.23,1.57,4.45,3.14,6.68,4.73l2.61,1.85.12.08,3.41,2.46H236.94a2.56,2.56,0,0,0-4.84,0H214.81a2.56,2.56,0,0,0-4.84,0h-10A23.61,23.61,0,0,1,200.84,135.56Zm48-24.92h33.57a8.16,8.16,0,0,1,7.83,5.78,6.87,6.87,0,0,1,.29,1.34,0,0,0,0,0,0,0c0,.35.06.71.06,1.07a8.12,8.12,0,0,1-.94,3.82,7.26,7.26,0,0,1-1,1.43,10.16,10.16,0,0,0-6.25-2.13H248.85a10.16,10.16,0,0,0-6.25,2.13,7,7,0,0,1-1-1.43,8.24,8.24,0,0,1-.94-3.82,7.67,7.67,0,0,1,.07-1s0,0,0-.06a6.14,6.14,0,0,1,.3-1.35A8.23,8.23,0,0,1,248.85,110.64Zm59,8a23.35,23.35,0,0,1,23.45,22.64h-10a2.56,2.56,0,0,0-4.84,0H299.17a2.56,2.56,0,0,0-4.84,0H268.44c.12-.09.24-.18.37-.26,1.7-1.22,3.41-2.42,5.13-3.63l.72-.51,6.66-4.72,5.36-3.8a23.06,23.06,0,0,0,2.73-2.18,9.73,9.73,0,0,0,2-2.6,10.09,10.09,0,0,0,1.17-4.75v-.19Zm120.87,44.2L414,131.38a22,22,0,0,1,29.6,0Zm63.76-35.37a22,22,0,0,1,0,29.6L473.09,148h0L461,142.3Zm-13.27,66.29-12.06-5.66,31.49-14.8a22,22,0,0,1,0,29.6Zm35.89-59.39a21.66,21.66,0,0,1-4.55,7.21,1,1,0,0,0,0,1.38,22,22,0,0,1,4.55,7.21A21.91,21.91,0,0,1,497.76,164a21.68,21.68,0,0,1-3.11.22,22.1,22.1,0,0,1-20.22-13.44l17.88,8.41a1.11,1.11,0,0,0,.43.09,1,1,0,0,0,.72-.3,24,24,0,0,0,0-33.42,1,1,0,0,0-1.14-.21l-17.91,8.42a22,22,0,0,1,40.72.6ZM485,120.35A23.85,23.85,0,0,0,471.83,135l-13.38,6.29h-9a23.87,23.87,0,0,0,1.92-19.88,55.58,55.58,0,0,1,10.78-1.07Zm-64.18-11.57a21.62,21.62,0,0,1,7.2,4.53,1,1,0,0,0,1.38,0,22.11,22.11,0,0,1,7.19-4.56,21.95,21.95,0,0,1,10.23,33l0,0a22,22,0,0,1-9.59,7.75l8.42-17.9a1,1,0,0,0-.21-1.15,24,24,0,0,0-33.42,0,1,1,0,0,0-.21,1.15l8.4,17.86a22.2,22.2,0,0,1-9.49-7.7s0,0-.06-.06a.67.67,0,0,0-.15-.14.65.65,0,0,0-.15-.1l-.18-.07a.65.65,0,0,0-.19,0l-.09,0H406.8V129.44a1.42,1.42,0,0,0,0-.2v-.12a21.91,21.91,0,0,1,2.91-10.75l17.11-3.91a1,1,0,0,0,.76-1.2,1,1,0,0,0-1.2-.75L411.36,116A21.93,21.93,0,0,1,420.86,108.78Zm-16,20.09a1,1,0,0,0-.05.25v12.19H333.33a26.11,26.11,0,0,0-.72-5.28l63.77-14.6h.07L407.19,119A24,24,0,0,0,404.85,128.87Zm-17.26-42.1a138.09,138.09,0,0,0-37.51-50.14,82.54,82.54,0,0,1,81.56-17.91A82.69,82.69,0,0,1,387.59,86.77Zm-288-68a82.56,82.56,0,0,1,81.57,17.91,137.92,137.92,0,0,0-37.51,50.14A82.71,82.71,0,0,1,99.62,18.72Zm36.57,100.75.11-.68a126.84,126.84,0,0,1,8.38-29.28,81.59,81.59,0,0,0,11.72,4.74.79.79,0,0,0,.3,0,1,1,0,0,0,.91-.62l0,0s0,0,0-.05a.19.19,0,0,0,0-.08.6.6,0,0,0,.06-.23,82.07,82.07,0,0,1,25-55.29l52.92,47.47a0,0,0,0,1,0,0h0a.78.78,0,0,0,.2.11.33.33,0,0,0,.1.06,1,1,0,0,0,.34.06h0a1,1,0,0,0,.41-.09,1.25,1.25,0,0,0,.12-.08.89.89,0,0,0,.22-.16,0,0,0,0,1,0,0,0,0,0,0,0,0,0L240.72,81c1-1.24,2.17-2.61,3.38-4.06h0c4.38-5.28,9.64-11.58,13.55-16.19a1,1,0,0,0-1.53-1.29c-3.71,4.37-8.64,10.28-12.88,15.38L221.37,55.24A1,1,0,1,0,220,56.72L242,76.4l-2.79,3.35-2.94,3.54L183.42,35.91a.64.64,0,0,0-.14-.08,84.12,84.12,0,0,0-39.85-21.15h18.32a82.21,82.21,0,0,1,38.71,9.62,1,1,0,0,0,.47.12,1.07,1.07,0,0,0,.52-.14,1,1,0,0,0,.48-.86V14.68H225a82.11,82.11,0,0,1,40.11,10.38,1,1,0,0,0,.5.13,1,1,0,0,0,.49-.13,82.54,82.54,0,0,1,40.1-10.38h23.11v8.74a1,1,0,0,0,1,1,1,1,0,0,0,.47-.12,81.84,81.84,0,0,1,18.44-7.11,83,83,0,0,1,20.27-2.51h18.32a84.06,84.06,0,0,0-40,21.25l0,0h0a0,0,0,0,1,0,0l0,0,0,.06L295.12,83.29l-2.95-3.54-2.78-3.35,21.93-19.68A1,1,0,1,0,310,55.24L288.11,74.86c-4.25-5.1-9.18-11-12.89-15.38a1,1,0,1,0-1.52,1.29c3.9,4.61,9.16,10.92,13.55,16.19h0c1.21,1.45,2.35,2.82,3.37,4.06l3.61,4.33h0s0,0,0,0a1.06,1.06,0,0,0,.21.16,1.25,1.25,0,0,1,.12.08,1,1,0,0,0,.41.09h0a1,1,0,0,0,.34-.06.6.6,0,0,0,.11-.06.93.93,0,0,0,.19-.11h0l52.87-47.42a82,82,0,0,1,25,55.24.86.86,0,0,0,.06.23.19.19,0,0,0,0,.08s0,0,0,.05l0,0a1,1,0,0,0,.91.62.79.79,0,0,0,.3,0,83.42,83.42,0,0,0,11.73-4.74A126.35,126.35,0,0,1,395,118.79l0,.1.12.78L332.05,134.1a25.62,25.62,0,0,0-24.17-17.43h-15.5q-.08-.35-.18-.69a48.3,48.3,0,0,0-4.39-19.55,39.76,39.76,0,0,0,5.69,4.76A45.57,45.57,0,0,0,318.69,109c12.15,0,23.06-4.75,32.44-14.11a1,1,0,0,0-1.42-1.42c-9,9-19.42,13.53-31,13.53a43.55,43.55,0,0,1-24.07-7.51c-4.7-3.18-8.17-7.35-11.85-11.77l-1.4-1.68,0,0c-.15-.2-.32-.4-.48-.6l-.11-.13a1,1,0,0,0-.71-.35,1,1,0,0,0-.29,0h-.06a1,1,0,0,0-.39.2,1,1,0,0,0-.09,1.41c.2.23.4.46.59.71h0A46.49,46.49,0,0,1,290,112a10.13,10.13,0,0,0-7.57-3.37H248.85a10.17,10.17,0,0,0-7.57,3.35,46.52,46.52,0,0,1,10.19-24.66h0c.18-.23.38-.46.58-.69a1,1,0,0,0-.09-1.41,1,1,0,0,0-.73-.25,1,1,0,0,0-.7.34c-.23.27-.45.53-.61.75h0l-1.38,1.66c-3.69,4.43-7.18,8.62-11.88,11.8A43.55,43.55,0,0,1,212.58,107c-11.6,0-22-4.55-31-13.53a1,1,0,1,0-1.42,1.42c9.38,9.36,20.29,14.11,32.44,14.11a45.57,45.57,0,0,0,25.19-7.85,39.91,39.91,0,0,0,5.7-4.77,48.19,48.19,0,0,0-4.4,19.56c-.07.22-.13.45-.19.69H223.39a25.6,25.6,0,0,0-24.17,17.43l-63.07-14.43A1.42,1.42,0,0,1,136.19,119.47Zm-1.34,2h.05L198.66,136a25.62,25.62,0,0,0-.73,5.28H126.45V129.12a1,1,0,0,0,0-.25,23.89,23.89,0,0,0-2.34-9.92ZM94.58,108.77a21.77,21.77,0,0,1,7.23,4.54,1,1,0,0,0,1.38,0,22,22,0,0,1,7.16-4.55,21.93,21.93,0,0,1,9.54,7.19l-15-3.44a1,1,0,0,0-1.19.75,1,1,0,0,0,.75,1.2l17.09,3.91a21.88,21.88,0,0,1,2.91,10.75v.12a1.42,1.42,0,0,0,0,.2v11.87h-3.12l-.09,0a.65.65,0,0,0-.19,0l-.18.07a.65.65,0,0,0-.15.1.67.67,0,0,0-.15.14l-.06.06a22.12,22.12,0,0,1-9.48,7.7l8.4-17.86a1,1,0,0,0-.21-1.15,24,24,0,0,0-33.43,0,1,1,0,0,0-.21,1.15L94,149.48a22.14,22.14,0,0,1-9.59-7.75,22,22,0,0,1-2.35-20.59.67.67,0,0,0,.06-.12A21.91,21.91,0,0,1,94.58,108.77ZM69.07,120.35a55.66,55.66,0,0,1,10.78,1.07,23.8,23.8,0,0,0,1.91,19.88h-9L59.42,135a23.81,23.81,0,0,0-13.2-14.66ZM16.13,150.21A21.61,21.61,0,0,1,20.67,143a1,1,0,0,0,0-1.38,21.63,21.63,0,0,1-4.54-7.21,21.95,21.95,0,0,1,40.71-.6l-17.9-8.42a1,1,0,0,0-1.15.21,24,24,0,0,0,0,33.42,1,1,0,0,0,.72.3,1.07,1.07,0,0,0,.43-.09l17.88-8.41a21.93,21.93,0,0,1-40.69-.6ZM10,196a22,22,0,0,1,4.55-7.21,1,1,0,0,0,0-1.38A21.88,21.88,0,0,1,10,180.23a22,22,0,0,1,20.48-14,22.71,22.71,0,0,1,2.5.14,21.85,21.85,0,0,1,17.72,13.3l-17.89-8.41a1,1,0,0,0-1.15.21,24,24,0,0,0,0,33.42,1,1,0,0,0,.72.3,1.07,1.07,0,0,0,.43-.09l17.89-8.41A21.94,21.94,0,0,1,10,196Zm0,45.9a22,22,0,0,1,4.55-7.21,1,1,0,0,0,0-1.38A21.88,21.88,0,0,1,10,226.13a21.94,21.94,0,0,1,40.7-.61l-17.89-8.4a1,1,0,0,0-1.15.2,24,24,0,0,0,0,33.42,1,1,0,0,0,.72.3,1.07,1.07,0,0,0,.43-.09l17.89-8.41a22,22,0,0,1-17.08,13.21l-.56.08a21.2,21.2,0,0,1-2.58.15A22,22,0,0,1,10,241.93Zm6.35,45.46a21.67,21.67,0,0,1,4.54-7.22,1,1,0,0,0,0-1.38,21.51,21.51,0,0,1-4.54-7.22,22,22,0,0,1,17-13.76,4.77,4.77,0,0,0,.6-.09,21.54,21.54,0,0,1,2.88-.19A22.1,22.1,0,0,1,57,271l-17.89-8.4a1,1,0,0,0-1.14.2,24,24,0,0,0,0,33.42,1,1,0,0,0,1.14.21L57,288a21.94,21.94,0,0,1-40.7-.6Zm52.75,14.08H46.22a24.05,24.05,0,0,0,13.38-14.7L73,280.48h39.46A55.63,55.63,0,0,1,69.07,301.47Zm349.73-21h39.46l13.4,6.3A24.06,24.06,0,0,0,485,301.47H462.19A55.68,55.68,0,0,1,418.8,280.48Zm96.14-8.9a22,22,0,0,1-4.55,7.21,1,1,0,0,0,0,1.38,22,22,0,0,1,4.55,7.21,21.94,21.94,0,0,1-40.7.61l17.9,8.41a1,1,0,0,0,1.14-.21,24,24,0,0,0,0-33.42,1,1,0,0,0-1.14-.2L474.25,271a22.1,22.1,0,0,1,20.21-13.44,21.22,21.22,0,0,1,2.93.2l.2,0,.37.05A22,22,0,0,1,514.94,271.58ZM500.81,256a20.1,20.1,0,0,1-2.61-.16h0l-.58-.08h0a22,22,0,0,1-17-13.2l17.9,8.41a1,1,0,0,0,1.14-.21,24,24,0,0,0,0-33.42,1,1,0,0,0-1.14-.2l-17.89,8.4a21.94,21.94,0,0,1,40.7.61,21.88,21.88,0,0,1-4.55,7.21,1,1,0,0,0,0,1.38,22,22,0,0,1,4.55,7.21A22,22,0,0,1,500.81,256Z"/></svg>