<?xml version="1.0" encoding="UTF-8"?>
<svg xmlns="http://www.w3.org/2000/svg" xmlns:xlink="http://www.w3.org/1999/xlink" width="px" height="px" viewBox="0 0 265 155" version="1.1">
<g id="surface1">
<path style=" stroke:none;fill-rule:nonzero;fill:rgb(80.392158%,18.039216%,14.509805%);fill-opacity:1;" d="M 17.832031 154.914062 C 17.996094 154.941406 18.164062 154.953125 18.332031 154.953125 L 34.453125 154.953125 C 43.90625 154.933594 52.867188 150.726562 58.929688 143.460938 L 206.078125 143.460938 C 212.148438 150.722656 221.109375 154.929688 230.5625 154.953125 L 246.660156 154.953125 C 246.824219 154.953125 246.992188 154.941406 247.15625 154.914062 C 252.003906 154.75 256.480469 152.277344 259.203125 148.257812 C 261.929688 144.238281 262.574219 139.160156 260.941406 134.585938 C 260.941406 134.585938 260.941406 134.542969 260.941406 134.519531 L 260.941406 134.484375 C 260.300781 132.742188 259.34375 131.132812 258.125 129.730469 C 260.878906 127.949219 262.976562 125.316406 264.113281 122.234375 L 264.113281 122.144531 C 266.242188 116.242188 264.515625 109.636719 259.773438 105.535156 C 261.714844 103.855469 263.195312 101.707031 264.082031 99.296875 L 264.082031 99.207031 C 265.28125 95.851562 265.273438 92.179688 264.050781 88.832031 C 262.660156 85.054688 259.832031 81.980469 256.1875 80.28125 L 258 78.8125 C 258.261719 78.773438 258.515625 78.710938 258.765625 78.621094 C 259.792969 78.242188 260.601562 77.429688 260.972656 76.398438 C 262.175781 73.085938 262.199219 69.457031 261.035156 66.128906 C 261.027344 66.03125 261.019531 66.007812 261.007812 65.984375 L 261.007812 65.933594 C 261.007812 65.898438 260.980469 65.867188 260.96875 65.832031 L 260.925781 65.722656 C 258.660156 59.847656 253.03125 55.96875 246.742188 55.953125 L 230.546875 55.953125 C 229.203125 55.957031 227.863281 56.042969 226.53125 56.214844 C 223.820312 52.105469 219.289062 49.574219 214.375 49.417969 C 209.460938 49.265625 204.78125 51.511719 201.820312 55.441406 L 200.648438 55.714844 C 199.945312 52.332031 198.988281 49.007812 197.785156 45.773438 C 210.621094 37.945312 218.773438 24.273438 219.566406 9.234375 C 219.570312 9.203125 219.570312 9.167969 219.566406 9.136719 C 219.601562 8.363281 219.621094 7.636719 219.621094 6.898438 C 219.621094 4.828125 217.949219 3.148438 215.882812 3.148438 L 153.300781 3.148438 C 139.738281 -0.96875 125.265625 -0.96875 111.703125 3.148438 L 49.113281 3.148438 C 47.046875 3.152344 45.375 4.828125 45.371094 6.898438 C 45.371094 7.652344 45.371094 8.441406 45.433594 9.246094 C 46.226562 24.28125 54.378906 37.957031 67.21875 45.78125 C 66.011719 49.011719 65.050781 52.328125 64.347656 55.703125 L 63.160156 55.433594 C 61.5 53.242188 59.277344 51.542969 56.726562 50.519531 C 56.507812 50.414062 56.285156 50.328125 56.050781 50.265625 C 49.519531 48.003906 42.289062 50.457031 38.46875 56.226562 C 37.136719 56.054688 35.796875 55.964844 34.453125 55.964844 L 18.257812 55.964844 C 11.894531 55.96875 6.203125 59.9375 3.992188 65.914062 L 3.992188 66.011719 C 2.09375 71.273438 3.246094 77.152344 6.984375 81.304688 C 1.042969 85.125 -1.484375 92.546875 0.894531 99.207031 L 0.894531 99.296875 C 1.777344 101.710938 3.261719 103.855469 5.207031 105.535156 C 0.472656 109.640625 -1.253906 116.242188 0.863281 122.144531 L 0.863281 122.234375 C 1.996094 125.316406 4.097656 127.945312 6.847656 129.730469 C 2.996094 134.15625 2.03125 140.40625 4.367188 145.789062 C 6.703125 151.171875 11.925781 154.722656 17.78125 154.914062 Z M 17.832031 154.914062 "/>
<path style=" stroke:none;fill-rule:nonzero;fill:rgb(0%,0%,0%);fill-opacity:1;" d="M 153.535156 66.84375 C 154.054688 66.847656 154.527344 66.535156 154.730469 66.054688 C 154.933594 65.570312 154.824219 65.015625 154.457031 64.644531 C 154.089844 64.273438 153.535156 64.164062 153.054688 64.359375 C 152.574219 64.558594 152.257812 65.03125 152.257812 65.554688 C 152.257812 66.261719 152.828125 66.835938 153.535156 66.84375 Z M 153.535156 66.84375 "/>
<path style=" stroke:none;fill-rule:nonzero;fill:rgb(0%,0%,0%);fill-opacity:1;" d="M 111.464844 66.84375 C 111.984375 66.84375 112.457031 66.53125 112.65625 66.050781 C 112.859375 65.570312 112.75 65.011719 112.382812 64.644531 C 112.015625 64.273438 111.460938 64.164062 110.980469 64.363281 C 110.496094 64.5625 110.183594 65.03125 110.183594 65.554688 C 110.183594 66.261719 110.757812 66.839844 111.464844 66.84375 Z M 111.464844 66.84375 "/>
<path style=" stroke:none;fill-rule:nonzero;fill:rgb(0%,0%,0%);fill-opacity:1;" d="M 150.640625 47.101562 C 150.765625 47.101562 150.882812 47.058594 150.976562 46.976562 L 157.546875 41.070312 C 157.207031 43.605469 157.695312 46.335938 158.953125 48.066406 L 158.996094 48.066406 C 160.613281 45.839844 160.960938 41.945312 159.898438 38.957031 L 171.652344 28.390625 C 171.804688 28.277344 171.882812 28.089844 171.847656 27.902344 C 171.816406 27.714844 171.679688 27.5625 171.496094 27.507812 C 171.3125 27.453125 171.117188 27.511719 170.988281 27.652344 L 150.324219 46.234375 C 150.121094 46.417969 150.105469 46.734375 150.289062 46.9375 C 150.378906 47.039062 150.507812 47.097656 150.640625 47.101562 Z M 150.640625 47.101562 "/>
<path style=" stroke:none;fill-rule:nonzero;fill:rgb(0%,0%,0%);fill-opacity:1;" d="M 105.128906 38.957031 C 104.074219 41.953125 104.417969 45.839844 106.039062 48.066406 L 106.078125 48.066406 C 107.335938 46.335938 107.824219 43.605469 107.484375 41.070312 L 114.058594 46.976562 C 114.265625 47.164062 114.582031 47.144531 114.765625 46.941406 C 114.949219 46.734375 114.933594 46.417969 114.726562 46.234375 L 94.046875 27.652344 C 93.917969 27.519531 93.722656 27.46875 93.546875 27.523438 C 93.371094 27.578125 93.234375 27.722656 93.199219 27.90625 C 93.164062 28.089844 93.234375 28.273438 93.378906 28.390625 Z M 105.128906 38.957031 "/>
<path style=" stroke:none;fill-rule:nonzero;fill:rgb(0%,0%,0%);fill-opacity:1;" d="M 253.191406 105.535156 C 258.613281 103.941406 262.175781 98.757812 261.730469 93.117188 C 261.28125 87.476562 256.949219 82.921875 251.347656 82.207031 C 257.234375 79.726562 260.144531 73.058594 257.960938 67.046875 C 256.222656 62.347656 251.75 59.226562 246.75 59.222656 L 230.546875 59.222656 C 228.617188 59.222656 226.695312 59.417969 224.804688 59.804688 C 223.015625 55.75 219.132812 53.023438 214.71875 52.71875 C 210.304688 52.414062 206.082031 54.582031 203.753906 58.351562 L 198.0625 59.65625 L 198.007812 59.285156 L 198.007812 59.230469 C 197.191406 54.121094 195.757812 49.125 193.746094 44.359375 C 206.964844 37.425781 215.554688 24.023438 216.34375 9.097656 C 216.378906 8.332031 216.402344 7.597656 216.402344 6.910156 C 216.402344 6.636719 216.175781 6.414062 215.902344 6.414062 L 152.828125 6.414062 C 139.585938 2.292969 125.414062 2.292969 112.171875 6.414062 L 49.113281 6.414062 C 48.835938 6.414062 48.613281 6.636719 48.613281 6.910156 C 48.613281 7.617188 48.613281 8.351562 48.667969 9.097656 C 49.460938 24.023438 58.054688 37.429688 71.277344 44.359375 C 69.253906 49.140625 67.820312 54.152344 67 59.28125 L 66.945312 59.617188 L 61.246094 58.351562 C 59.859375 56.113281 57.777344 54.394531 55.320312 53.460938 C 55.265625 53.429688 55.207031 53.410156 55.148438 53.398438 C 49.253906 51.265625 42.71875 54.066406 40.183594 59.804688 C 38.296875 59.417969 36.371094 59.222656 34.441406 59.222656 L 18.257812 59.222656 C 13.246094 59.226562 8.769531 62.359375 7.039062 67.066406 C 6.554688 68.386719 6.308594 69.785156 6.308594 71.191406 C 6.300781 76.023438 9.199219 80.382812 13.652344 82.234375 C 8.050781 82.953125 3.71875 87.507812 3.269531 93.148438 C 2.824219 98.789062 6.386719 103.972656 11.808594 105.5625 C 6.4375 107.144531 2.882812 112.25 3.261719 117.847656 C 3.640625 123.441406 7.847656 128.023438 13.382812 128.863281 C 8.289062 131.191406 5.496094 136.746094 6.65625 142.234375 C 7.820312 147.71875 12.628906 151.660156 18.226562 151.710938 C 18.265625 151.726562 18.308594 151.734375 18.351562 151.734375 L 34.453125 151.734375 C 43.464844 151.714844 51.945312 147.457031 57.359375 140.242188 L 207.636719 140.242188 C 213.054688 147.457031 221.535156 151.710938 230.546875 151.734375 L 246.644531 151.734375 C 246.6875 151.734375 246.726562 151.726562 246.769531 151.710938 C 252.359375 151.652344 257.164062 147.714844 258.328125 142.234375 C 259.492188 136.753906 256.707031 131.199219 251.621094 128.863281 C 257.15625 128.019531 261.363281 123.441406 261.738281 117.84375 C 262.117188 112.25 258.5625 107.144531 253.191406 105.5625 Z M 260.027344 90.117188 C 259.511719 91.453125 258.742188 92.679688 257.757812 93.71875 C 257.574219 93.914062 257.574219 94.214844 257.757812 94.410156 C 258.742188 95.449219 259.511719 96.675781 260.027344 98.011719 C 258.421875 102.1875 254.445312 104.964844 249.980469 105.035156 C 245.511719 105.101562 241.453125 102.441406 239.726562 98.316406 L 248.644531 102.519531 C 248.710938 102.550781 248.785156 102.566406 248.859375 102.566406 C 248.992188 102.566406 249.121094 102.511719 249.21875 102.414062 C 253.722656 97.761719 253.722656 90.367188 249.21875 85.714844 C 249.070312 85.558594 248.835938 85.515625 248.644531 85.609375 L 239.71875 89.8125 C 241.234375 86.199219 244.5625 83.667969 248.445312 83.179688 C 248.898438 83.125 249.355469 83.09375 249.8125 83.09375 C 254.335938 83.101562 258.390625 85.890625 260.027344 90.117188 Z M 239.078125 119.835938 L 233.035156 116.988281 L 248.742188 109.589844 C 252.550781 113.785156 252.550781 120.191406 248.742188 124.382812 Z M 231.675781 116.546875 C 231.496094 116.628906 231.382812 116.808594 231.382812 117.003906 C 231.382812 117.199219 231.496094 117.375 231.675781 117.457031 L 238.457031 120.652344 C 239.488281 123.863281 241.816406 126.492188 244.878906 127.894531 C 240.402344 128.589844 236.695312 131.75 235.300781 136.070312 L 228.613281 139.21875 L 36.414062 139.21875 L 29.734375 136.070312 C 28.332031 131.753906 24.625 128.589844 20.148438 127.894531 C 23.207031 126.492188 25.539062 123.863281 26.566406 120.652344 L 33.355469 117.457031 C 33.535156 117.375 33.648438 117.199219 33.648438 117.003906 C 33.648438 116.808594 33.535156 116.628906 33.355469 116.546875 L 26.566406 113.355469 C 25.34375 109.585938 22.34375 106.660156 18.550781 105.535156 C 22.34375 104.40625 25.34375 101.484375 26.566406 97.710938 L 33.351562 94.5 C 33.527344 94.414062 33.636719 94.238281 33.636719 94.042969 C 33.632812 93.851562 33.523438 93.675781 33.351562 93.59375 L 26.5625 90.394531 C 25.5 87.054688 23.023438 84.351562 19.792969 83.003906 C 24.371094 82.390625 28.195312 79.207031 29.632812 74.808594 L 36.3125 71.660156 L 41.441406 71.660156 C 42.945312 73.726562 45.066406 75.257812 47.496094 76.039062 L 50.675781 82.828125 C 50.753906 83.007812 50.933594 83.121094 51.128906 83.121094 C 51.324219 83.121094 51.5 83.007812 51.582031 82.828125 L 54.773438 76.019531 C 57.179688 75.238281 59.273438 73.714844 60.761719 71.664062 L 204.21875 71.664062 C 205.707031 73.710938 207.800781 75.238281 210.207031 76.023438 L 213.398438 82.828125 C 213.480469 83.007812 213.65625 83.121094 213.851562 83.121094 C 214.046875 83.121094 214.222656 83.007812 214.304688 82.828125 L 217.492188 76.039062 C 219.921875 75.261719 222.035156 73.726562 223.535156 71.660156 L 228.667969 71.660156 L 235.351562 74.808594 C 236.789062 79.214844 240.628906 82.402344 245.21875 83.003906 C 241.976562 84.359375 239.496094 87.070312 238.433594 90.421875 L 231.648438 93.613281 C 231.476562 93.699219 231.367188 93.871094 231.363281 94.0625 C 231.363281 94.257812 231.476562 94.4375 231.652344 94.519531 L 238.433594 97.710938 C 239.660156 101.480469 242.660156 104.40625 246.453125 105.535156 C 242.660156 106.660156 239.660156 109.585938 238.433594 113.355469 Z M 235.914062 142.535156 L 229.894531 139.703125 L 245.605469 132.304688 C 249.410156 136.5 249.410156 142.90625 245.605469 147.097656 Z M 19.429688 147.097656 C 15.621094 142.90625 15.621094 136.5 19.429688 132.304688 L 29.125 136.875 L 35.140625 139.703125 Z M 25.9375 114.175781 L 31.964844 116.988281 L 16.25 124.382812 C 12.445312 120.191406 12.445312 113.785156 16.25 109.589844 Z M 25.9375 91.234375 L 31.953125 94.0625 L 16.242188 101.460938 C 12.433594 97.265625 12.433594 90.863281 16.242188 86.667969 Z M 28.929688 68.292969 L 35.03125 71.160156 L 19.324219 78.558594 C 15.519531 74.363281 15.519531 67.957031 19.324219 63.765625 Z M 53.953125 75.402344 L 51.125 81.441406 L 48.304688 75.445312 L 43.746094 65.703125 C 47.933594 61.886719 54.328125 61.886719 58.515625 65.703125 Z M 100.175781 67.792969 C 101.65625 62.800781 106.226562 59.367188 111.425781 59.351562 L 119.042969 59.351562 C 119.042969 59.382812 119.042969 59.417969 119.042969 59.445312 C 119.042969 60.273438 119.242188 61.089844 119.625 61.820312 C 119.886719 62.304688 120.222656 62.742188 120.625 63.113281 C 121.050781 63.511719 121.507812 63.878906 121.988281 64.210938 L 123.875 65.542969 L 124.664062 66.109375 C 125.777344 66.894531 126.882812 67.675781 127.996094 68.472656 L 129.296875 69.394531 L 129.359375 69.4375 L 131.058594 70.664062 L 118.1875 70.664062 C 118.011719 70.148438 117.527344 69.804688 116.980469 69.804688 C 116.4375 69.804688 115.953125 70.148438 115.773438 70.664062 L 107.148438 70.664062 C 106.972656 70.148438 106.488281 69.804688 105.941406 69.804688 C 105.398438 69.804688 104.914062 70.148438 104.734375 70.664062 L 99.746094 70.664062 C 99.773438 69.695312 99.917969 68.730469 100.183594 67.792969 Z M 124.121094 55.339844 L 140.863281 55.339844 C 142.660156 55.332031 144.246094 56.507812 144.769531 58.226562 C 144.839844 58.445312 144.890625 58.667969 144.914062 58.898438 C 144.914062 59.070312 144.945312 59.25 144.945312 59.429688 C 144.949219 60.097656 144.785156 60.753906 144.476562 61.339844 C 144.339844 61.597656 144.171875 61.835938 143.976562 62.054688 C 143.085938 61.363281 141.988281 60.988281 140.859375 60.992188 L 124.128906 60.992188 C 123 60.988281 121.902344 61.363281 121.011719 62.054688 C 120.816406 61.839844 120.648438 61.597656 120.511719 61.339844 C 120.207031 60.75 120.042969 60.097656 120.042969 59.429688 C 120.046875 59.265625 120.058594 59.097656 120.078125 58.929688 C 120.078125 58.929688 120.078125 58.929688 120.078125 58.902344 C 120.105469 58.671875 120.152344 58.445312 120.230469 58.226562 C 120.761719 56.515625 122.339844 55.347656 124.128906 55.339844 Z M 153.550781 59.335938 C 159.867188 59.304688 165.054688 64.324219 165.246094 70.652344 L 160.257812 70.652344 C 160.082031 70.136719 159.597656 69.789062 159.050781 69.789062 C 158.507812 69.789062 158.023438 70.136719 157.84375 70.652344 L 149.230469 70.652344 C 149.050781 70.136719 148.566406 69.789062 148.023438 69.789062 C 147.476562 69.789062 146.992188 70.136719 146.816406 70.652344 L 133.902344 70.652344 C 133.960938 70.605469 134.019531 70.5625 134.085938 70.519531 C 134.933594 69.910156 135.789062 69.3125 136.644531 68.707031 L 137.003906 68.453125 L 140.328125 66.09375 L 143 64.195312 C 143.480469 63.867188 143.9375 63.5 144.363281 63.105469 C 144.765625 62.730469 145.101562 62.292969 145.359375 61.804688 C 145.746094 61.074219 145.945312 60.257812 145.941406 59.429688 L 145.941406 59.335938 Z M 213.839844 81.425781 L 206.507812 65.703125 C 210.695312 61.890625 217.089844 61.890625 221.273438 65.703125 Z M 245.644531 63.75 C 249.453125 67.941406 249.453125 74.347656 245.644531 78.542969 L 235.984375 74.007812 L 229.953125 71.160156 Z M 239.027344 96.878906 L 233.011719 94.050781 L 248.71875 86.652344 C 252.523438 90.847656 252.523438 97.253906 248.71875 101.445312 Z M 256.929688 67.199219 C 256.417969 68.539062 255.648438 69.761719 254.660156 70.800781 C 254.476562 70.992188 254.476562 71.296875 254.660156 71.492188 C 255.644531 72.53125 256.414062 73.753906 256.929688 75.09375 C 255.511719 78.792969 252.207031 81.4375 248.289062 82.003906 C 247.777344 82.078125 247.257812 82.117188 246.738281 82.117188 C 242.339844 82.09375 238.375 79.453125 236.652344 75.398438 L 245.570312 79.601562 C 245.640625 79.628906 245.710938 79.644531 245.785156 79.644531 C 245.921875 79.648438 246.050781 79.59375 246.144531 79.496094 C 250.648438 74.84375 250.648438 67.449219 246.144531 62.792969 C 245.996094 62.640625 245.769531 62.601562 245.578125 62.691406 L 236.640625 66.898438 C 238.390625 62.789062 242.441406 60.152344 246.898438 60.214844 C 251.355469 60.28125 255.328125 63.039062 256.953125 67.199219 Z M 241.925781 60.191406 C 238.785156 61.570312 236.390625 64.238281 235.355469 67.511719 L 228.679688 70.65625 L 224.191406 70.65625 C 225.945312 67.644531 226.296875 64.011719 225.148438 60.722656 C 226.921875 60.367188 228.722656 60.1875 230.527344 60.1875 Z M 209.910156 54.410156 C 211.246094 54.917969 212.464844 55.6875 213.503906 56.671875 C 213.695312 56.855469 214 56.855469 214.191406 56.671875 C 215.226562 55.6875 216.445312 54.914062 217.777344 54.394531 C 220.921875 55.59375 223.339844 58.175781 224.335938 61.394531 C 225.332031 64.613281 224.792969 68.113281 222.878906 70.886719 C 221.6875 72.605469 220.027344 73.949219 218.097656 74.757812 L 222.296875 65.8125 C 222.386719 65.617188 222.347656 65.386719 222.191406 65.238281 C 217.546875 60.726562 210.164062 60.726562 205.519531 65.238281 C 205.367188 65.386719 205.324219 65.617188 205.417969 65.8125 L 209.605469 74.738281 C 207.699219 73.925781 206.058594 72.59375 204.871094 70.890625 C 204.871094 70.890625 204.871094 70.890625 204.84375 70.859375 C 204.820312 70.832031 204.796875 70.808594 204.769531 70.789062 L 204.605469 70.707031 L 202.917969 70.707031 L 202.917969 64.734375 C 202.921875 64.699219 202.921875 64.667969 202.917969 64.632812 L 202.917969 64.574219 C 202.929688 62.6875 203.429688 60.835938 204.367188 59.203125 L 212.902344 57.246094 C 213.035156 57.21875 213.148438 57.140625 213.21875 57.027344 C 213.289062 56.914062 213.3125 56.777344 213.28125 56.648438 C 213.253906 56.519531 213.171875 56.40625 213.0625 56.335938 C 212.949219 56.265625 212.8125 56.242188 212.683594 56.273438 L 205.191406 58.015625 C 206.410156 56.398438 208.046875 55.148438 209.929688 54.410156 Z M 201.929688 64.449219 C 201.917969 64.488281 201.90625 64.53125 201.90625 64.574219 L 201.90625 70.664062 L 166.269531 70.664062 C 166.238281 69.777344 166.121094 68.890625 165.910156 68.027344 L 197.71875 60.730469 L 197.753906 60.730469 L 203.113281 59.515625 C 202.375 61.058594 201.980469 62.738281 201.945312 64.449219 Z M 193.320312 43.410156 C 189.082031 33.730469 182.679688 25.160156 174.609375 18.351562 C 185.554688 8.207031 201.113281 4.785156 215.292969 9.402344 C 214.402344 23.800781 206.078125 36.691406 193.335938 43.410156 Z M 49.660156 9.425781 C 63.84375 4.808594 79.40625 8.234375 90.351562 18.375 C 82.277344 25.179688 75.875 33.753906 71.640625 43.433594 C 58.894531 36.707031 50.574219 23.804688 49.691406 9.402344 Z M 67.902344 59.777344 L 67.957031 59.4375 C 68.761719 54.410156 70.164062 49.496094 72.136719 44.804688 C 74.023438 45.742188 75.976562 46.535156 77.984375 47.171875 C 78.035156 47.183594 78.085938 47.183594 78.132812 47.171875 C 78.332031 47.167969 78.511719 47.046875 78.589844 46.863281 C 78.589844 46.863281 78.589844 46.863281 78.589844 46.835938 C 78.605469 46.761719 78.617188 46.722656 78.617188 46.683594 C 79.097656 36.214844 83.5625 26.328125 91.089844 19.050781 L 117.484375 42.773438 C 117.515625 42.796875 117.550781 42.816406 117.585938 42.828125 C 117.691406 42.878906 117.746094 42.890625 117.804688 42.890625 C 117.875 42.890625 117.945312 42.875 118.007812 42.84375 C 118.03125 42.832031 118.050781 42.820312 118.070312 42.804688 C 118.109375 42.785156 118.148438 42.757812 118.179688 42.722656 L 120.074219 40.527344 C 120.574219 39.90625 121.15625 39.222656 121.761719 38.496094 C 123.945312 35.859375 126.570312 32.710938 128.519531 30.40625 C 128.695312 30.195312 128.671875 29.878906 128.460938 29.699219 C 128.25 29.523438 127.933594 29.550781 127.757812 29.761719 C 125.90625 31.945312 123.445312 34.898438 121.332031 37.445312 L 110.421875 27.652344 C 110.21875 27.460938 109.898438 27.476562 109.710938 27.679688 C 109.523438 27.882812 109.535156 28.203125 109.738281 28.390625 L 120.714844 38.226562 L 119.320312 39.902344 L 117.855469 41.671875 L 91.492188 17.992188 C 85.882812 12.679688 79.007812 9.027344 71.542969 7.382812 L 80.683594 7.382812 C 87.414062 7.371094 94.046875 9.023438 99.992188 12.191406 C 100.0625 12.226562 100.144531 12.25 100.226562 12.25 C 100.316406 12.25 100.40625 12.222656 100.484375 12.179688 C 100.636719 12.089844 100.726562 11.925781 100.726562 11.75 L 100.726562 7.382812 L 112.234375 7.382812 C 119.234375 7.367188 126.125 9.15625 132.242188 12.570312 C 132.316406 12.613281 132.402344 12.636719 132.488281 12.632812 C 132.574219 12.632812 132.660156 12.613281 132.734375 12.570312 C 138.851562 9.164062 145.738281 7.378906 152.738281 7.382812 L 164.265625 7.382812 L 164.265625 11.75 C 164.265625 12.027344 164.488281 12.25 164.761719 12.25 C 164.84375 12.25 164.925781 12.226562 164.996094 12.191406 C 167.910156 10.636719 170.996094 9.445312 174.195312 8.636719 C 177.5 7.800781 180.898438 7.382812 184.308594 7.382812 L 193.445312 7.382812 C 185.949219 9.027344 179.046875 12.699219 173.492188 18 L 173.492188 18.03125 L 147.210938 41.671875 L 145.738281 39.902344 L 144.351562 38.226562 L 155.289062 28.390625 C 155.449219 28.28125 155.535156 28.089844 155.503906 27.898438 C 155.472656 27.707031 155.332031 27.550781 155.144531 27.496094 C 154.960938 27.445312 154.757812 27.503906 154.632812 27.652344 L 143.714844 37.457031 C 141.59375 34.910156 139.132812 31.960938 137.285156 29.769531 C 137.175781 29.617188 136.988281 29.539062 136.800781 29.570312 C 136.617188 29.597656 136.464844 29.726562 136.40625 29.90625 C 136.347656 30.085938 136.394531 30.28125 136.527344 30.414062 C 138.472656 32.71875 141.09375 35.871094 143.285156 38.507812 C 143.886719 39.230469 144.457031 39.914062 144.964844 40.535156 L 146.765625 42.699219 C 146.796875 42.730469 146.832031 42.757812 146.871094 42.78125 C 146.890625 42.792969 146.910156 42.804688 146.929688 42.820312 C 146.996094 42.847656 147.066406 42.863281 147.136719 42.863281 C 147.191406 42.863281 147.25 42.855469 147.304688 42.835938 C 147.394531 42.789062 147.425781 42.773438 147.453125 42.75 L 173.828125 19.050781 C 181.351562 26.320312 185.8125 36.195312 186.296875 46.65625 C 186.300781 46.695312 186.3125 46.734375 186.328125 46.773438 C 186.328125 46.8125 186.328125 46.8125 186.328125 46.835938 C 186.402344 47.023438 186.582031 47.144531 186.78125 47.148438 C 186.832031 47.15625 186.882812 47.15625 186.929688 47.148438 C 188.9375 46.507812 190.894531 45.714844 192.78125 44.777344 C 194.78125 49.464844 196.210938 54.378906 197.03125 59.410156 L 197.03125 59.460938 L 197.089844 59.851562 L 165.632812 67.0625 C 163.882812 61.875 159.039062 58.375 153.574219 58.351562 L 145.84375 58.351562 C 145.816406 58.234375 145.785156 58.121094 145.753906 58.007812 C 145.714844 54.632812 144.96875 51.304688 143.5625 48.238281 C 144.433594 49.117188 145.382812 49.914062 146.402344 50.617188 C 150.113281 53.128906 154.484375 54.488281 158.96875 54.519531 C 165.027344 54.519531 170.46875 52.144531 175.148438 47.46875 C 175.34375 47.269531 175.34375 46.953125 175.148438 46.757812 C 174.953125 46.5625 174.636719 46.5625 174.441406 46.757812 C 169.949219 51.253906 164.753906 53.519531 158.976562 53.519531 C 154.691406 53.480469 150.515625 52.175781 146.96875 49.765625 C 144.625 48.175781 142.894531 46.09375 141.058594 43.882812 L 140.359375 43.042969 C 140.285156 42.945312 140.203125 42.84375 140.121094 42.746094 L 140.066406 42.679688 C 139.976562 42.574219 139.851562 42.511719 139.710938 42.503906 C 139.664062 42.496094 139.617188 42.496094 139.566406 42.503906 L 139.539062 42.503906 C 139.46875 42.523438 139.402344 42.558594 139.34375 42.605469 C 139.136719 42.785156 139.117188 43.101562 139.300781 43.308594 C 139.398438 43.425781 139.5 43.539062 139.59375 43.664062 C 142.449219 47.195312 144.210938 51.492188 144.65625 56.019531 C 143.695312 54.941406 142.320312 54.332031 140.878906 54.332031 L 124.128906 54.332031 C 122.691406 54.332031 121.320312 54.9375 120.355469 56.007812 C 120.8125 51.492188 122.578125 47.207031 125.4375 43.683594 C 125.527344 43.570312 125.625 43.453125 125.726562 43.339844 C 125.90625 43.132812 125.886719 42.816406 125.679688 42.632812 C 125.582031 42.546875 125.449219 42.5 125.316406 42.507812 C 125.183594 42.515625 125.054688 42.578125 124.96875 42.679688 C 124.851562 42.816406 124.742188 42.945312 124.664062 43.054688 L 123.976562 43.882812 C 122.132812 46.097656 120.394531 48.191406 118.050781 49.78125 C 114.5 52.1875 110.320312 53.488281 106.039062 53.519531 C 100.25 53.519531 95.0625 51.246094 90.574219 46.757812 C 90.378906 46.5625 90.0625 46.5625 89.867188 46.757812 C 89.671875 46.953125 89.671875 47.269531 89.867188 47.46875 C 94.546875 52.144531 99.988281 54.519531 106.046875 54.519531 C 110.53125 54.480469 114.902344 53.117188 118.613281 50.59375 C 119.632812 49.890625 120.585938 49.09375 121.457031 48.210938 C 120.046875 51.28125 119.300781 54.609375 119.261719 57.988281 C 119.226562 58.097656 119.195312 58.210938 119.167969 58.332031 L 111.429688 58.332031 C 105.964844 58.351562 101.117188 61.851562 99.375 67.042969 L 67.914062 59.832031 C 67.917969 59.804688 67.925781 59.777344 67.933594 59.75 Z M 67.234375 60.777344 L 67.261719 60.777344 L 99.09375 68.011719 C 98.882812 68.875 98.757812 69.761719 98.730469 70.652344 L 63.074219 70.652344 L 63.074219 64.574219 C 63.082031 64.53125 63.082031 64.492188 63.074219 64.449219 C 63.046875 62.730469 62.648438 61.039062 61.90625 59.492188 Z M 47.179688 54.402344 C 48.519531 54.914062 49.742188 55.683594 50.785156 56.671875 C 50.976562 56.855469 51.28125 56.855469 51.472656 56.671875 C 52.503906 55.691406 53.71875 54.917969 55.042969 54.398438 C 56.933594 55.132812 58.578125 56.375 59.804688 57.992188 L 52.320312 56.273438 C 52.054688 56.214844 51.789062 56.382812 51.726562 56.648438 C 51.695312 56.777344 51.71875 56.914062 51.789062 57.023438 C 51.859375 57.136719 51.972656 57.21875 52.101562 57.246094 L 60.625 59.203125 C 61.5625 60.835938 62.0625 62.6875 62.078125 64.574219 L 62.078125 64.632812 C 62.074219 64.667969 62.074219 64.699219 62.078125 64.734375 L 62.078125 70.664062 L 60.476562 70.664062 L 60.292969 70.699219 C 60.1875 70.769531 60.164062 70.792969 60.140625 70.820312 L 60.113281 70.851562 C 58.925781 72.550781 57.289062 73.886719 55.382812 74.699219 L 59.574219 65.773438 C 59.664062 65.578125 59.625 65.347656 59.46875 65.199219 C 54.824219 60.683594 47.4375 60.683594 42.792969 65.199219 C 42.636719 65.347656 42.597656 65.578125 42.6875 65.773438 L 46.886719 74.75 C 44.960938 73.9375 43.300781 72.59375 42.105469 70.875 C 40.023438 67.855469 39.585938 63.996094 40.933594 60.585938 C 42.097656 57.710938 44.347656 55.492188 47.179688 54.402344 Z M 34.453125 60.191406 C 36.257812 60.195312 38.058594 60.371094 39.832031 60.726562 C 38.679688 64.015625 39.027344 67.648438 40.78125 70.660156 L 36.292969 70.660156 L 29.640625 67.511719 C 28.605469 64.230469 26.203125 61.558594 23.054688 60.1875 Z M 8.046875 75.113281 C 8.554688 73.773438 9.324219 72.550781 10.308594 71.511719 C 10.496094 71.316406 10.496094 71.015625 10.308594 70.820312 C 9.324219 69.78125 8.554688 68.558594 8.046875 67.21875 C 9.65625 63.042969 13.632812 60.265625 18.097656 60.203125 C 22.5625 60.136719 26.621094 62.792969 28.351562 66.917969 L 19.421875 62.710938 C 19.230469 62.617188 19 62.660156 18.851562 62.816406 C 14.34375 67.46875 14.34375 74.863281 18.851562 79.515625 C 18.945312 79.613281 19.074219 79.667969 19.210938 79.667969 C 19.28125 79.667969 19.355469 79.652344 19.421875 79.621094 L 28.34375 75.417969 C 26.617188 79.546875 22.558594 82.207031 18.09375 82.140625 C 13.628906 82.074219 9.652344 79.292969 8.046875 75.117188 Z M 4.988281 97.996094 C 5.503906 96.660156 6.273438 95.433594 7.257812 94.394531 C 7.441406 94.203125 7.441406 93.898438 7.257812 93.703125 C 6.273438 92.667969 5.503906 91.449219 4.988281 90.117188 C 6.632812 85.898438 10.6875 83.121094 15.203125 83.121094 C 15.621094 83.121094 16.035156 83.144531 16.449219 83.191406 C 20.382812 83.632812 23.765625 86.175781 25.289062 89.835938 L 16.367188 85.632812 C 16.171875 85.542969 15.941406 85.582031 15.792969 85.738281 C 11.289062 90.390625 11.289062 97.789062 15.792969 102.441406 C 15.886719 102.535156 16.015625 102.589844 16.152344 102.589844 C 16.226562 102.589844 16.296875 102.574219 16.367188 102.546875 L 25.289062 98.34375 C 23.550781 102.464844 19.488281 105.113281 15.023438 105.039062 C 10.558594 104.964844 6.585938 102.175781 4.988281 97.996094 Z M 4.988281 120.9375 C 5.503906 119.597656 6.273438 118.375 7.257812 117.332031 C 7.441406 117.140625 7.441406 116.835938 7.257812 116.644531 C 6.273438 115.605469 5.503906 114.386719 4.988281 113.054688 C 6.59375 108.878906 10.570312 106.101562 15.035156 106.035156 C 19.5 105.96875 23.558594 108.625 25.289062 112.75 L 16.367188 108.550781 C 16.171875 108.457031 15.941406 108.5 15.792969 108.652344 C 11.289062 113.304688 11.289062 120.703125 15.792969 125.355469 C 15.886719 125.449219 16.015625 125.503906 16.152344 125.503906 C 16.226562 125.503906 16.296875 125.488281 16.367188 125.460938 L 25.289062 121.257812 C 23.796875 124.796875 20.566406 127.300781 16.769531 127.859375 L 16.492188 127.898438 C 16.0625 127.949219 15.632812 127.972656 15.203125 127.972656 C 10.679688 127.964844 6.625 125.179688 4.988281 120.953125 Z M 8.15625 143.65625 C 8.664062 142.3125 9.433594 141.085938 10.421875 140.046875 C 10.605469 139.855469 10.605469 139.550781 10.421875 139.355469 C 9.433594 138.316406 8.664062 137.089844 8.15625 135.75 C 9.5625 132.113281 12.792969 129.496094 16.636719 128.871094 C 16.734375 128.863281 16.835938 128.847656 16.933594 128.828125 C 17.410156 128.761719 17.890625 128.730469 18.371094 128.730469 C 22.769531 128.769531 26.722656 131.421875 28.433594 135.480469 L 19.507812 131.28125 C 19.316406 131.191406 19.089844 131.230469 18.941406 131.382812 C 14.433594 136.035156 14.433594 143.429688 18.941406 148.082031 C 19.085938 148.234375 19.316406 148.277344 19.507812 148.1875 L 28.433594 143.976562 C 26.703125 148.101562 22.644531 150.757812 18.179688 150.695312 C 13.714844 150.628906 9.738281 147.851562 8.128906 143.675781 Z M 34.46875 150.691406 L 23.054688 150.691406 C 26.234375 149.320312 28.664062 146.644531 29.730469 143.34375 L 36.414062 140.214844 L 56.097656 140.214844 C 50.847656 146.824219 42.882812 150.683594 34.453125 150.707031 Z M 208.917969 140.195312 L 228.601562 140.195312 L 235.285156 143.34375 C 236.339844 146.640625 238.757812 149.324219 241.925781 150.707031 L 230.546875 150.707031 C 222.117188 150.683594 214.15625 146.824219 208.902344 140.214844 Z M 256.875 135.75 C 256.359375 137.085938 255.589844 138.3125 254.605469 139.351562 C 254.421875 139.546875 254.421875 139.847656 254.605469 140.042969 C 255.589844 141.082031 256.359375 142.308594 256.875 143.644531 C 255.269531 147.820312 251.292969 150.597656 246.828125 150.667969 C 242.359375 150.734375 238.300781 148.074219 236.574219 143.949219 L 245.5 148.152344 C 245.695312 148.242188 245.921875 148.199219 246.070312 148.046875 C 250.574219 143.394531 250.574219 136 246.070312 131.347656 C 245.921875 131.195312 245.691406 131.15625 245.5 131.246094 L 236.5625 135.480469 C 238.285156 131.425781 242.246094 128.785156 246.644531 128.761719 C 247.132812 128.761719 247.621094 128.796875 248.105469 128.863281 L 248.203125 128.863281 L 248.390625 128.886719 C 252.230469 129.515625 255.453125 132.132812 256.859375 135.769531 Z M 249.8125 127.984375 C 249.375 127.984375 248.941406 127.957031 248.507812 127.902344 L 248.21875 127.863281 C 244.4375 127.292969 241.226562 124.792969 239.738281 121.265625 L 248.667969 125.46875 C 248.863281 125.558594 249.089844 125.515625 249.238281 125.363281 C 253.742188 120.710938 253.742188 113.316406 249.238281 108.664062 C 249.089844 108.511719 248.859375 108.472656 248.667969 108.5625 L 239.746094 112.761719 C 241.476562 108.636719 245.53125 105.976562 250 106.042969 C 254.464844 106.109375 258.441406 108.890625 260.046875 113.066406 C 259.535156 114.402344 258.761719 115.628906 257.777344 116.667969 C 257.59375 116.863281 257.59375 117.164062 257.777344 117.359375 C 258.761719 118.398438 259.53125 119.625 260.046875 120.960938 C 258.410156 125.195312 254.34375 127.984375 249.8125 127.984375 Z M 249.8125 127.984375 "/>
</g>
</svg>
