<svg xmlns="http://www.w3.org/2000/svg" viewBox="0 0 303.5 173.2" xmlns:v="https://vecta.io/nano"><path d="m278.1 17.1-96.2-.1c-.3-9.2-7.7-16.7-17.1-17-4.7-.1-9.1 1.6-12.5 4.8-.2.2-.3.3-.4.5-3.3-3.4-7.9-5.4-13-5.3-9.3.2-16.8 7.8-17.1 17l-96.4.1C11.2 17.1 0 47.7 0 86.7s11.2 69.6 25.4 69.6h96.3c.3 9.2 7.7 16.7 17.1 16.9 4.7.1 9.1-1.6 12.5-4.8.2-.2.3-.3.4-.5 3.3 3.4 7.9 5.4 13 5.3 9.3-.2 16.8-7.7 17.1-16.9h96.3c14.2 0 25.4-30.6 25.4-69.6s-11.2-69.6-25.4-69.6M153.7 6.3c3-2.9 7-4.4 11.1-4.3 8.2.2 14.8 6.8 15.1 15h-23.1c-.1-3.8-1.5-7.3-3.7-10.1zm9.5 12.6v20.9h-6.3V18.9zM151.9 8.4c1.8 2.5 2.9 5.4 3 8.6H149c0-3.2 1.1-6.1 2.9-8.6m3 10.5v20.9h-6V18.9h6M139 2c4.2-.1 8.1 1.4 11.1 4.3.2.2.3.4.5.5-2.2 2.9-3.5 6.4-3.7 10.1h-23.1c.3-8.1 6.9-14.7 15.2-14.9m7.9 16.9v20.9h-6.6V19h6.6zM49.8 154.2c-12.7 0-23.4-30.9-23.4-67.6C26.4 50 37.1 19 49.8 19H68c-11.1 7.4-19.2 34.4-19.2 67.6 0 33.1 8 60.2 19.2 67.6zm100.1 12.7c-3 2.9-7 4.4-11.1 4.3-8.2-.2-14.8-6.8-15.1-14.9h23.1c.1 3.8 1.5 7.3 3.7 10.1-.3.1-.4.3-.6.5m-9.6-12.7v-20.5h6.4v20.5zm11.4 10.6c-1.8-2.5-2.9-5.4-3-8.6h5.9c0 3.2-1 6.1-2.9 8.6m-3-10.6v-20.5h6.1v20.5zm16 17c-4.2.1-8.1-1.4-11.1-4.3-.2-.2-.3-.4-.5-.5 2.2-2.9 3.5-6.4 3.7-10.1h23c-.3 8.1-6.9 14.7-15.1 14.9m-7.9-17v-20.5h6.4v20.5zm70.7-22.5H76.9c-5.7 0-10.3-4.6-10.3-10.3V52.2c0-5.7 4.6-10.3 10.3-10.3h150.6c5.7 0 10.3 4.6 10.3 10.3v69.2c.1 5.7-4.5 10.3-10.3 10.3m26.2 22.5h-18.2c11.2-7.4 19.2-34.4 19.2-67.6 0-33.1-8-60.2-19.2-67.6h18.2c12.7 0 23.4 30.9 23.4 67.6s-10.8 67.6-23.4 67.6"/></svg>