<?xml version="1.0" encoding="UTF-8"?>
<svg xmlns="http://www.w3.org/2000/svg" xmlns:xlink="http://www.w3.org/1999/xlink" width="px" height="px" viewBox="0 0 152 87" version="1.1">
<g id="surface1">
<path style=" stroke:none;fill-rule:nonzero;fill:rgb(0%,0%,0%);fill-opacity:1;" d="M 139.101562 8.589844 L 91.058594 8.539062 C 90.90625 3.917969 87.210938 0.152344 82.515625 0 C 80.171875 -0.0507812 77.972656 0.804688 76.273438 2.410156 C 76.175781 2.511719 76.125 2.5625 76.074219 2.664062 C 74.425781 0.953125 72.128906 -0.0507812 69.582031 0 C 64.9375 0.101562 61.191406 3.917969 61.042969 8.539062 L 12.898438 8.589844 C 5.804688 8.589844 0.210938 23.960938 0.210938 43.550781 C 0.210938 63.140625 5.804688 78.511719 12.898438 78.511719 L 60.992188 78.511719 C 61.140625 83.132812 64.839844 86.898438 69.53125 87 C 71.878906 87.050781 74.078125 86.195312 75.773438 84.589844 C 75.875 84.488281 75.925781 84.4375 75.976562 84.335938 C 77.625 86.046875 79.921875 87.050781 82.46875 87 C 87.113281 86.898438 90.859375 83.132812 91.007812 78.511719 L 139.101562 78.511719 C 146.195312 78.511719 151.789062 63.140625 151.789062 43.550781 C 151.789062 23.960938 146.195312 8.589844 139.101562 8.589844 M 76.972656 3.164062 C 78.472656 1.707031 80.46875 0.953125 82.515625 1.003906 C 86.613281 1.105469 89.910156 4.421875 90.058594 8.539062 L 78.523438 8.539062 C 78.472656 6.628906 77.773438 4.871094 76.675781 3.464844 Z M 81.71875 9.492188 L 81.71875 19.992188 L 78.570312 19.992188 L 78.570312 9.492188 Z M 76.074219 4.21875 C 76.972656 5.476562 77.523438 6.933594 77.574219 8.539062 L 74.625 8.539062 C 74.625 6.933594 75.175781 5.476562 76.074219 4.21875 M 77.574219 9.492188 L 77.574219 19.992188 L 74.578125 19.992188 L 74.578125 9.492188 L 77.574219 9.492188 M 69.632812 1.003906 C 71.730469 0.953125 73.675781 1.707031 75.175781 3.164062 C 75.277344 3.265625 75.324219 3.367188 75.425781 3.414062 C 74.328125 4.871094 73.675781 6.628906 73.578125 8.488281 L 62.042969 8.488281 C 62.191406 4.421875 65.488281 1.105469 69.632812 1.003906 M 73.578125 9.492188 L 73.578125 19.992188 L 70.28125 19.992188 L 70.28125 9.542969 L 73.578125 9.542969 Z M 25.082031 77.457031 C 18.742188 77.457031 13.398438 61.933594 13.398438 43.5 C 13.398438 25.117188 18.742188 9.542969 25.082031 9.542969 L 34.171875 9.542969 C 28.628906 13.261719 24.585938 26.824219 24.585938 43.5 C 24.585938 60.125 28.578125 73.738281 34.171875 77.457031 Z M 75.074219 83.835938 C 73.578125 85.292969 71.582031 86.046875 69.53125 85.996094 C 65.4375 85.894531 62.140625 82.578125 61.992188 78.511719 L 73.527344 78.511719 C 73.578125 80.417969 74.277344 82.179688 75.375 83.585938 C 75.226562 83.632812 75.175781 83.734375 75.074219 83.835938 M 70.28125 77.457031 L 70.28125 67.160156 L 73.476562 67.160156 L 73.476562 77.457031 Z M 75.976562 82.78125 C 75.074219 81.523438 74.527344 80.066406 74.476562 78.460938 L 77.421875 78.460938 C 77.421875 80.066406 76.925781 81.523438 75.976562 82.78125 M 74.476562 77.457031 L 74.476562 67.160156 L 77.523438 67.160156 L 77.523438 77.457031 Z M 82.46875 85.996094 C 80.371094 86.046875 78.421875 85.292969 76.925781 83.835938 C 76.824219 83.734375 76.773438 83.632812 76.675781 83.585938 C 77.773438 82.128906 78.421875 80.371094 78.523438 78.511719 L 90.007812 78.511719 C 89.859375 82.578125 86.5625 85.894531 82.46875 85.996094 M 78.523438 77.457031 L 78.523438 67.160156 L 81.71875 67.160156 L 81.71875 77.457031 Z M 113.832031 66.152344 L 38.617188 66.152344 C 35.773438 66.152344 33.472656 63.84375 33.472656 60.980469 L 33.472656 26.21875 C 33.472656 23.355469 35.773438 21.046875 38.617188 21.046875 L 113.832031 21.046875 C 116.679688 21.046875 118.976562 23.355469 118.976562 26.21875 L 118.976562 60.980469 C 119.023438 63.84375 116.726562 66.152344 113.832031 66.152344 M 126.917969 77.457031 L 117.828125 77.457031 C 123.421875 73.738281 127.414062 60.175781 127.414062 43.5 C 127.414062 26.875 123.421875 13.261719 117.828125 9.542969 L 126.917969 9.542969 C 133.257812 9.542969 138.601562 25.066406 138.601562 43.5 C 138.601562 61.933594 133.207031 77.457031 126.917969 77.457031 "/>
</g>
</svg>
