<svg width="33" height="34" viewBox="0 0 33 34" fill="none" xmlns="http://www.w3.org/2000/svg">
<path fill-rule="evenodd" clip-rule="evenodd" d="M16.3977 0.5C13.1994 0.5 10.4413 2.78725 10.4413 5.82974V8.25H6.27674C5.25651 8.25 4.36748 9.00164 4.26059 10.0447L4.26047 10.0458L2.01081 31.0818C1.95069 31.6513 2.1436 32.2275 2.53358 32.6463C2.90929 33.0497 3.44738 33.3 4.02674 33.3H28.7686C29.3371 33.3 29.878 33.066 30.2691 32.6471C30.6723 32.2153 30.852 31.6438 30.7925 31.0806L28.5429 10.0446C28.437 9.01126 27.5477 8.2391 26.5212 8.25H22.3704L22.3704 5.82974L22.3704 5.8237C22.35 2.78757 19.598 0.5 16.3977 0.5ZM14.4913 8.25V5.7161C14.568 5.18883 15.2257 4.51895 16.3977 4.51895C17.2247 4.51895 17.7882 4.84744 18.0796 5.22606C18.2059 5.39017 18.281 5.56369 18.3043 5.72397C18.3096 5.75998 18.3122 5.79532 18.3122 5.82974V8.25H14.4913ZM6.27994 29.2811L8.10017 12.2608H10.4413V13.5716C10.4413 14.692 11.3631 15.5811 12.4622 15.5811C13.5613 15.5811 14.4831 14.692 14.4831 13.5716V12.2608H18.304V13.5716C18.304 14.692 19.2258 15.5811 20.3249 15.5811C21.1652 15.5811 21.8897 15.0707 22.1934 14.3397C22.2916 14.1034 22.3458 13.8441 22.3458 13.5716V12.2608H24.6951L26.5154 29.2811H6.27994Z" fill="black"/>
</svg>